<svg width="16" height="16" viewBox="0 0 16 16" fill="none" xmlns="http://www.w3.org/2000/svg">
<g clip-path="url(#clip0_7_419)">
<path d="M3.66669 1.33332C3.66669 0.965133 3.36821 0.666656 3.00002 0.666656C2.63183 0.666656 2.33335 0.965133 2.33335 1.33332V2.33332H1.33335C0.965164 2.33332 0.666687 2.6318 0.666687 2.99999C0.666687 3.36818 0.965164 3.66666 1.33335 3.66666H2.33335V4.66666C2.33335 5.03485 2.63183 5.33332 3.00002 5.33332C3.36821 5.33332 3.66669 5.03485 3.66669 4.66666V3.66666H4.66669C5.03488 3.66666 5.33335 3.36818 5.33335 2.99999C5.33335 2.6318 5.03488 2.33332 4.66669 2.33332H3.66669V1.33332Z" fill="#2098F3"/>
<path d="M3.66669 11.3333C3.66669 10.9651 3.36821 10.6667 3.00002 10.6667C2.63183 10.6667 2.33335 10.9651 2.33335 11.3333V12.3333H1.33335C0.965164 12.3333 0.666687 12.6318 0.666687 13C0.666687 13.3682 0.965164 13.6667 1.33335 13.6667H2.33335V14.6667C2.33335 15.0348 2.63183 15.3333 3.00002 15.3333C3.36821 15.3333 3.66669 15.0348 3.66669 14.6667V13.6667H4.66669C5.03488 13.6667 5.33335 13.3682 5.33335 13C5.33335 12.6318 5.03488 12.3333 4.66669 12.3333H3.66669V11.3333Z" fill="#2098F3"/>
<path d="M9.28892 1.76067C9.18989 1.50321 8.94253 1.33332 8.66669 1.33332C8.39084 1.33332 8.14348 1.50321 8.04446 1.76067L6.88834 4.76658C6.68807 5.28727 6.62514 5.43732 6.53906 5.55838C6.45268 5.67986 6.34655 5.78598 6.22508 5.87236C6.10402 5.95844 5.95397 6.02137 5.43327 6.22164L2.42737 7.37776C2.16991 7.47678 2.00002 7.72414 2.00002 7.99999C2.00002 8.27584 2.16991 8.5232 2.42737 8.62222L5.43328 9.77834C5.95397 9.97861 6.10402 10.0415 6.22508 10.1276C6.34655 10.214 6.45268 10.3201 6.53906 10.4416C6.62514 10.5627 6.68807 10.7127 6.88834 11.2334L8.04446 14.2393C8.14348 14.4968 8.39084 14.6667 8.66669 14.6667C8.94253 14.6667 9.18989 14.4968 9.28892 14.2393L10.445 11.2334C10.6453 10.7127 10.7082 10.5627 10.7943 10.4416C10.8807 10.3201 10.9868 10.214 11.1083 10.1276C11.2294 10.0415 11.3794 9.97861 11.9001 9.77834L14.906 8.62222C15.1635 8.5232 15.3334 8.27584 15.3334 7.99999C15.3334 7.72414 15.1635 7.47678 14.906 7.37776L11.9001 6.22164C11.3794 6.02137 11.2294 5.95844 11.1083 5.87236C10.9868 5.78598 10.8807 5.67986 10.7943 5.55838C10.7082 5.43732 10.6453 5.28727 10.445 4.76658L9.28892 1.76067Z" fill="#2098F3"/>
</g>
<defs>
<clipPath id="clip0_7_419">
<rect width="16" height="16" fill="white"/>
</clipPath>
</defs>
</svg>
