<svg width="16" height="16" viewBox="0 0 16 16" fill="none" xmlns="http://www.w3.org/2000/svg">
<path d="M14.7507 8.44327C14.8888 8.16393 14.8888 7.83618 14.7507 7.55685C14.6291 7.31088 14.4156 7.18192 14.3051 7.1197C14.1861 7.05272 14.0335 6.9841 13.8814 6.91568L2.69222 1.88057C2.5366 1.81051 2.38145 1.74067 2.25058 1.69533C2.13042 1.65371 1.88851 1.57767 1.62067 1.65219C1.31799 1.73641 1.07249 1.95798 0.957776 2.25047C0.856265 2.50929 0.907188 2.75771 0.93631 2.88149C0.968036 3.01633 1.02167 3.17782 1.07546 3.3398L2.15845 6.60269C2.24565 6.8654 2.28925 6.99676 2.37032 7.09389C2.44192 7.17966 2.53392 7.24606 2.63787 7.28699C2.7556 7.33334 2.894 7.33334 3.17081 7.33334H7.99994C8.36813 7.33334 8.66661 7.63182 8.66661 8.00001C8.66661 8.3682 8.36813 8.66667 7.99994 8.66667H3.18341C2.9073 8.66667 2.76925 8.66667 2.65174 8.71284C2.54797 8.7536 2.45608 8.81974 2.38448 8.9052C2.3034 9.00198 2.25957 9.13289 2.17192 9.39472L1.08022 12.6558C1.02584 12.8181 0.971678 12.9798 0.939543 13.1148C0.910085 13.2386 0.858313 13.4874 0.959546 13.7469C1.07387 14.0399 1.31939 14.2621 1.62235 14.3466C1.89064 14.4215 2.1331 14.3452 2.25329 14.3036C2.38443 14.2581 2.53996 14.1881 2.69609 14.1178L13.8814 9.08445C14.0335 9.01603 14.1861 8.9474 14.3051 8.88041C14.4156 8.8182 14.6291 8.68923 14.7507 8.44327Z" fill="#8A949E"/>
</svg>
