<svg width="96" height="96" viewBox="0 0 96 96" fill="none" xmlns="http://www.w3.org/2000/svg">
<path d="M73.8746 13.418C92.1425 27.7033 95.3692 54.0889 81.0843 72.3516C69.029 87.7741 47.9153 92.8159 30.1908 84.5081L17.1551 90.76C15.5025 91.5499 13.5194 90.8552 12.7296 89.2026C12.4159 88.5472 12.3262 87.8077 12.4719 87.0963L15.4017 72.9399C0.791862 54.9349 3.54241 28.4932 21.5526 13.883C36.7507 1.54727 58.4581 1.3568 73.8746 13.418Z" fill="#0C1A28"/>
<path d="M48.0287 5.6267C44.9981 5.6267 41.9619 5.96282 39.004 6.62947C36.0294 7.29611 33.1332 8.29888 30.3883 9.60976C27.5929 10.9431 24.9544 12.5901 22.54 14.5228C20.0527 16.5059 17.7895 18.7915 15.812 21.3237C12.8822 25.0658 10.6527 29.2338 9.17936 33.6986C7.75647 38.0178 7.07304 42.5274 7.14026 47.0931C7.21309 51.6196 8.01976 56.0788 9.54909 60.3364C11.1064 64.6724 13.364 68.6778 16.2602 72.2407L16.5963 72.6553L13.5601 87.3327C13.4256 87.9937 13.5769 88.6435 13.997 89.1533C14.4172 89.6743 15.0614 89.9824 15.7112 89.9824C16.0361 89.9824 16.3554 89.9096 16.6635 89.7584L30.1754 83.2768L30.6572 83.5009C33.3741 84.7781 36.2423 85.7529 39.1777 86.4027C42.0571 87.0358 45.0205 87.3607 47.9839 87.3607C50.9473 87.3607 54.0452 87.0246 57.003 86.3579C59.9777 85.6913 62.8739 84.6885 65.6132 83.3832C68.403 82.0555 71.0471 80.4029 73.4615 78.4758C75.9488 76.4927 78.2063 74.2071 80.1838 71.6805C83.5842 67.3333 86.0266 62.4539 87.4551 57.1712C88.1386 54.6335 88.5811 52.0117 88.766 49.3843C88.9452 46.7794 88.878 44.1408 88.5587 41.5471C88.2394 38.9533 87.6736 36.3764 86.8669 33.8891C86.0546 31.3793 84.9959 28.9425 83.7186 26.6456C81.0633 21.8615 77.5117 17.7159 73.1646 14.3155C69.5065 11.4528 65.4451 9.25683 61.0924 7.78349C56.8854 6.36057 52.4823 5.63791 48.0175 5.63791M48.0175 4.51749C57.0647 4.51749 66.179 7.43056 73.8536 13.436C92.1215 27.7212 95.3426 54.1125 81.0577 72.3752C72.7781 82.9575 60.437 88.4867 47.9727 88.4867C41.917 88.4867 35.8389 87.1814 30.1698 84.526L17.1341 90.7779C14.6581 91.9656 11.8963 89.8032 12.4509 87.1142L15.3807 72.9578C3.30294 58.0955 2.6139 36.3652 14.9101 20.6402C23.1898 10.0523 35.5364 4.51749 48.0119 4.51749H48.0175Z" fill="#0C1A28"/>
<path d="M33.2818 28.3692H55.8015C61.4763 28.3692 66.0754 32.9685 66.0754 38.6433V55.9089C66.0754 61.5837 61.4763 66.183 55.8015 66.183H33.2818C27.607 66.183 23.0078 61.5837 23.0078 55.9089V38.6433C23.0078 32.9685 27.607 28.3692 33.2818 28.3692Z" fill="white"/>
<path d="M54.3702 44.3796C52.6112 45.4832 52.079 47.8025 53.1826 49.5615C53.4851 50.0433 53.8885 50.4466 54.3702 50.7492L73.1479 62.5191C74.9069 63.6227 77.2261 63.0905 78.3297 61.3314C78.705 60.732 78.9067 60.043 78.9067 59.3315V35.7861C78.9067 33.7077 77.2205 32.0271 75.1478 32.0271C74.4419 32.0271 73.7473 32.2288 73.1479 32.6041L54.3702 44.374V44.3796Z" fill="white"/>
<path d="M53.9644 50.7008C52.2502 49.6364 51.7292 47.39 52.788 45.6758C53.0849 45.1996 53.4882 44.7963 53.9644 44.4994L66.1486 36.903V58.2972L53.9644 50.7008Z" fill="#0E82F3"/>
</svg>
