<svg width="96" height="96" viewBox="0 0 96 96" fill="none" xmlns="http://www.w3.org/2000/svg">
<path fill-rule="evenodd" clip-rule="evenodd" d="M56.0537 73.8359H10.9924C5.51756 73.8359 1.07908 69.3977 1.07908 63.9216V53.1586V36.7647V24.5298L1 15.8858C1 12.6347 3.63542 10 6.88472 10H31.4557C34.7073 10 35.8848 11.211 37.3136 14.3282L39.2132 19.8184H69.8824C75.3568 19.8184 79.7957 24.2545 79.7957 29.7306V32.6782V39.6948V36.7647V53.1586V63.9216C79.7957 69.3977 75.3568 73.8359 69.8824 73.8359L56.0537 73.8359Z" fill="#0C1A28"/>
<path fill-rule="evenodd" clip-rule="evenodd" d="M76.6248 85.6138H36.0476C27.3782 85.6138 22.3512 78.5866 24.8194 69.9181L30.5563 49.7713C31.7912 45.4343 36.309 41.9185 40.6465 41.9185H89.0673C93.4048 41.9185 95.9199 45.4343 94.6849 49.7713L86.7149 77.7609C85.4799 82.0979 80.9625 85.6138 76.6248 85.6138V85.6138Z" fill="#0E82F3"/>
<mask id="mask0_14924_7153" style="mask-type:luminance" maskUnits="userSpaceOnUse" x="1" y="10" width="79" height="64">
<path fill-rule="evenodd" clip-rule="evenodd" d="M56.0537 73.8359H10.9924C5.51756 73.8359 1.07908 69.3977 1.07908 63.9216V53.1586V36.7647V24.5298L1 15.8858C1 12.6347 3.63542 10 6.88472 10H31.4557C34.7073 10 35.8848 11.211 37.3136 14.3282L39.2132 19.8184H69.8824C75.3568 19.8184 79.7957 24.2545 79.7957 29.7306V32.6782V39.6948V36.7647V53.1586V63.9216C79.7957 69.3977 75.3568 73.8359 69.8824 73.8359L56.0537 73.8359Z" fill="white"/>
</mask>
<g mask="url(#mask0_14924_7153)">
<path fill-rule="evenodd" clip-rule="evenodd" d="M76.7693 85.8446H35.9775C27.2622 85.8446 22.2086 78.7802 24.6899 70.0658L30.4571 49.8125C31.6986 45.4526 36.2403 41.9181 40.6007 41.9181H89.2776C93.6381 41.9181 96.1665 45.4526 94.925 49.8125L86.9128 77.9501C85.6713 82.3101 81.1299 85.8446 76.7693 85.8446Z" fill="white"/>
</g>
</svg>
