<svg width="96" height="96" viewBox="0 0 96 96" fill="none" xmlns="http://www.w3.org/2000/svg">
<path d="M70.2821 0.0126063H25.1874C11.3432 0.0126063 0.0757856 11.2168 0.0757856 24.9979V69.8653C0.0757856 73.7053 0.947351 77.3432 2.51367 80.5895V80.7158L2.62735 80.8168C6.71998 89.1158 15.2968 94.8379 25.1874 94.8379H70.2821C84.1263 94.8379 95.3937 83.6337 95.3937 69.8526V24.9853C95.3937 11.2042 84.1263 0 70.2821 0V0.0126063Z" fill="#2E65AF"/>
<path d="M83.5326 16.7999C83.1537 15.9157 81.941 14.5136 79.7053 14.5641C77.5074 14.5767 76.2316 15.9283 75.8526 16.6609L60.6568 43.4904L48.3537 36.1767C51.8147 35.4062 56.4884 33.8146 59.1537 30.5683C60.8589 28.4967 61.5537 26.0462 61.2126 23.2799C60.8968 20.7157 59.6589 18.6062 57.5368 16.9894C50.3368 11.4946 34.9263 13.6799 34.2695 13.7809C33.5116 13.8946 32.9432 14.5388 32.9432 15.3094L32.8421 38.8167L21.9789 16.0294C21.6505 15.1578 20.4379 13.6925 18.1137 13.6925C15.9158 13.6925 14.64 15.0567 14.2484 15.8146L0.0252492 40.4083C0.0252492 40.1051 0 46.3704 0 46.3704L16.9642 17.3178C17.0147 17.2294 17.3179 16.7999 18.1263 16.7999C18.8463 16.8125 19.0484 17.103 19.1242 17.2546L32.9558 46.282C33.2716 46.9388 33.9916 47.2799 34.6989 47.1283C35.4063 46.9641 35.9116 46.3451 35.9116 45.6251L36.0379 16.7115C39.7895 16.3199 50.5895 15.6125 55.6547 19.4778C57.1074 20.5894 57.9158 21.9662 58.1305 23.6841C58.3579 25.5915 57.9158 27.2083 56.7537 28.6104C53.0779 33.0694 43.8189 33.7641 43.7305 33.7767C43.0484 33.8272 42.48 34.3073 42.3284 34.9641C42.1768 35.6209 42.4674 36.303 43.0484 36.6567L60.4295 46.9894C60.4295 46.9894 60.4295 46.9894 60.4421 46.9894C60.4421 46.9894 60.4421 46.9894 60.4547 46.9894C60.5432 47.0399 60.6568 47.0525 60.7453 47.0904C60.8337 47.1157 60.9221 47.1662 61.0105 47.1788C61.1242 47.1915 61.2253 47.1788 61.3263 47.1662C61.4147 47.1662 61.5158 47.1662 61.6042 47.1409C61.7053 47.1157 61.7937 47.0525 61.8821 47.0146C61.9705 46.9767 62.0589 46.9515 62.1347 46.8883C62.2231 46.8251 62.2863 46.7241 62.3495 46.6483C62.4126 46.5725 62.4884 46.522 62.5389 46.4462C62.5389 46.4462 62.5389 46.4462 62.5389 46.4336C62.5389 46.4336 62.5389 46.4336 62.5516 46.4209L78.5305 18.202C78.581 18.1136 78.8842 17.6841 79.6926 17.6841C80.4126 17.6841 80.6147 17.9872 80.64 18.0125C80.6653 18.063 80.6779 18.1136 80.7032 18.1641L95.28 47.7978L95.3179 40.8504L83.5074 16.8125L83.5326 16.7999Z" fill="white"/>
<path d="M47.7347 53.0403C27.7137 53.0403 10.6737 65.9118 4.35788 83.7981C5.19156 85.036 6.17684 86.1602 7.21263 87.2213C8.05894 84.3034 9.18315 81.5118 10.6105 78.8845H24.8337C23.5579 83.6971 22.7747 89.0276 22.4842 94.6487C23.381 94.7497 24.2653 94.8379 25.1874 94.8379L26.261 94.8382C26.5642 89.1413 27.4231 83.7224 28.8126 78.8718H45.8526V94.8382H49.6295V78.8718H66.6695C68.0589 83.7224 68.9179 89.1413 69.221 94.8382H70.2947C71.2042 94.8382 72.1137 94.7876 72.9979 94.6866C72.72 89.0403 71.9242 83.7097 70.6484 78.8718H84.2779C84.4674 78.8718 84.6442 78.8213 84.821 78.7834C86.2737 81.436 87.4358 84.2781 88.2821 87.2339C89.3305 86.1603 90.2905 85.0108 91.1242 83.7729C84.8084 65.8866 67.7684 53.015 47.7474 53.015L47.7347 53.0403ZM25.9453 75.1203H12.9474C18.3032 67.3645 26.1726 61.4781 35.381 58.6613C31.4653 62.5266 28.2316 68.2108 25.9453 75.1203ZM45.84 75.1203H30.0253C33.6379 65.116 39.3726 58.156 45.84 57.0066V75.1203ZM49.6168 75.1203V57.0066C56.0716 58.156 61.8189 65.116 65.4316 75.1203H49.6168ZM69.5242 75.1203C67.2379 68.2108 64.0042 62.5266 60.0884 58.6613C69.2968 61.4781 77.1663 67.3645 82.5221 75.1203H69.5242Z" fill="white"/>
<path d="M76.08 33.5117C76.08 31.8064 77.5074 30.417 79.2758 30.417C81.0442 30.417 82.4716 31.8064 82.4716 33.5117C82.4716 35.217 81.0442 36.6064 79.2758 36.6064C77.5074 36.6064 76.08 35.217 76.08 33.5117Z" fill="white"/>
<path d="M78.6947 40.6739H79.8442C80.0968 40.6739 80.2989 40.876 80.2989 41.1287V52.9897C80.2989 53.2424 80.0968 53.4445 79.8442 53.4445H78.6947C78.4421 53.4445 78.24 53.2424 78.24 52.9897V41.1287C78.24 40.876 78.4421 40.6739 78.6947 40.6739Z" fill="white"/>
</svg>
