<svg width="96" height="96" viewBox="0 0 96 96" fill="none" xmlns="http://www.w3.org/2000/svg">
<path d="M62.3772 20.8616C77.556 32.7337 80.2375 54.6574 68.3654 69.8361C58.3467 82.6459 40.8044 86.8354 26.0807 79.9315L15.2504 85.1245C13.8795 85.7826 12.2289 85.2068 11.5709 83.8304C11.3077 83.2875 11.2364 82.6679 11.357 82.0756L13.7918 70.3132C1.6564 55.3483 3.94858 33.3808 18.9081 21.24C31.537 10.9966 49.5673 10.8375 62.3772 20.8507V20.8616Z" fill="#0C1A28"/>
<path d="M55.9064 13.4844C46.7322 20.657 45.109 33.9165 52.2817 43.0906C58.3411 50.839 68.9466 53.3725 77.8521 49.1939L84.3996 52.3361C85.2276 52.7364 86.2256 52.3854 86.6259 51.5519C86.785 51.2229 86.8288 50.85 86.7576 50.4936L85.2879 43.3813C92.6251 34.3333 91.2432 21.0519 82.2006 13.7147C74.5618 7.51821 63.6603 7.41951 55.9119 13.4789L55.9064 13.4844Z" fill="#0E82F3"/>
<path d="M62.373 20.8602C59.6531 18.7326 56.6316 17.0162 53.4127 15.7714C45.4997 24.3149 46.0097 37.6622 54.5588 45.5751C60.2563 50.8503 68.3886 52.5667 75.7313 50.0497C76.2906 38.726 71.3114 27.8355 62.373 20.8602Z" fill="white"/>
</svg>
