<svg width="96" height="96" viewBox="0 0 96 96" fill="none" xmlns="http://www.w3.org/2000/svg">
<path fill-rule="evenodd" clip-rule="evenodd" d="M38.5231 9.97948L11.1443 37.315C9.13099 39.3253 8 42.0518 8 44.8947V73.438C8 82.585 15.4268 90 24.5882 90H71.703C80.8644 90 88.2912 82.585 88.2912 73.438V44.8947C88.2912 42.0518 87.1599 39.3253 85.1465 37.315L57.7678 9.97948C52.4534 4.67351 43.8374 4.67351 38.5231 9.97948H38.5231Z" fill="#0C1A28"/>
<path d="M39.2295 10.6875C44.1534 5.77131 52.1375 5.7713 57.0615 10.6875L84.4404 38.0225C86.266 39.8453 87.291 42.3175 87.291 44.8945V73.4385C87.2908 82.0314 80.3135 89 71.7031 89H24.5879C15.9775 88.9998 9.00024 82.0313 9 73.4385V44.8945C9.00003 42.3174 10.025 39.8452 11.8506 38.0225L39.2295 10.6875Z" stroke="black" stroke-opacity="0.101961" stroke-width="2"/>
<path fill-rule="evenodd" clip-rule="evenodd" d="M48.3095 71.7828L69.3943 89.9997H46.4739H27.2246L48.3095 71.7828Z" fill="#0E82F3"/>
<path fill-rule="evenodd" clip-rule="evenodd" d="M48.4061 72.2657L18.2223 47.4219C15.3504 45.0582 17.022 40.397 20.7419 40.397H76.0704C79.7898 40.397 81.4618 45.0582 78.5896 47.4219L48.4061 72.2657Z" fill="white"/>
</svg>
