<svg width="20" height="20" viewBox="0 0 20 20" fill="none" xmlns="http://www.w3.org/2000/svg">
<path fill-rule="evenodd" clip-rule="evenodd" d="M8.33333 10.0007C8.33333 9.08018 9.07952 8.33398 10 8.33398C10.9205 8.33398 11.6667 9.08018 11.6667 10.0007C11.6667 10.9211 10.9205 11.6673 10 11.6673C9.07952 11.6673 8.33333 10.9211 8.33333 10.0007Z" fill="#58616A"/>
<path fill-rule="evenodd" clip-rule="evenodd" d="M14.1667 10.0007C14.1667 9.08018 14.9129 8.33398 15.8333 8.33398C16.7538 8.33398 17.5 9.08018 17.5 10.0007C17.5 10.9211 16.7538 11.6673 15.8333 11.6673C14.9129 11.6673 14.1667 10.9211 14.1667 10.0007Z" fill="#58616A"/>
<path fill-rule="evenodd" clip-rule="evenodd" d="M2.5 10.0007C2.5 9.08018 3.24619 8.33398 4.16667 8.33398C5.08714 8.33398 5.83333 9.08018 5.83333 10.0007C5.83333 10.9211 5.08714 11.6673 4.16667 11.6673C3.24619 11.6673 2.5 10.9211 2.5 10.0007Z" fill="#58616A"/>
</svg>
