<svg width="20" height="20" viewBox="0 0 20 20" fill="none" xmlns="http://www.w3.org/2000/svg">
<path fill-rule="evenodd" clip-rule="evenodd" d="M9.75591 5.24408C10.0813 5.56951 10.0813 6.09715 9.75591 6.42259L6.1785 10L9.75591 13.5774C10.0813 13.9028 10.0813 14.4305 9.75591 14.7559C9.43048 15.0814 8.90284 15.0814 8.5774 14.7559L4.41073 10.5893C4.0853 10.2638 4.0853 9.73618 4.41073 9.41074L8.5774 5.24408C8.90284 4.91864 9.43048 4.91864 9.75591 5.24408ZM15.5892 5.24408C15.9147 5.56951 15.9147 6.09715 15.5892 6.42259L12.0118 10L15.5892 13.5774C15.9147 13.9028 15.9147 14.4305 15.5892 14.7559C15.2638 15.0814 14.7362 15.0814 14.4107 14.7559L10.2441 10.5893C9.91863 10.2638 9.91863 9.73618 10.2441 9.41074L14.4107 5.24408C14.7362 4.91864 15.2638 4.91864 15.5892 5.24408Z" fill="#58616A"/>
</svg>
