<svg width="16" height="16" viewBox="0 0 16 16" fill="none" xmlns="http://www.w3.org/2000/svg">
<path fill-rule="evenodd" clip-rule="evenodd" d="M2.66683 1.99967C2.66683 1.63148 2.36835 1.33301 2.00016 1.33301C1.63197 1.33301 1.3335 1.63148 1.3335 1.99967V8.82721C1.33349 9.36385 1.33348 9.80676 1.36296 10.1676C1.39358 10.5423 1.45929 10.8868 1.62415 11.2103C1.87981 11.7121 2.28776 12.12 2.78952 12.3757C3.11308 12.5406 3.45755 12.6063 3.83228 12.6369C4.19307 12.6664 4.63597 12.6664 5.17261 12.6663H9.41751C9.71354 13.8165 10.7576 14.6663 12.0002 14.6663C13.4729 14.6663 14.6668 13.4724 14.6668 11.9997C14.6668 10.5269 13.4729 9.33301 12.0002 9.33301C10.7576 9.33301 9.71354 10.1829 9.41751 11.333H5.20016C4.62911 11.333 4.24092 11.3325 3.94086 11.308C3.64858 11.2841 3.49911 11.2408 3.39484 11.1877C3.14396 11.0599 2.93999 10.8559 2.81215 10.605C2.75903 10.5007 2.71574 10.3513 2.69186 10.059C2.66735 9.75892 2.66683 9.37073 2.66683 8.79967V5.99967L9.41751 5.99968C9.71354 7.14983 10.7576 7.99967 12.0002 7.99967C13.4729 7.99967 14.6668 6.80577 14.6668 5.33301C14.6668 3.86025 13.4729 2.66634 12.0002 2.66634C10.7576 2.66634 9.71354 3.51619 9.41751 4.66634L2.66683 4.66634V1.99967Z" fill="white"/>
</svg>
