<svg width="16" height="16" viewBox="0 0 16 16" fill="none" xmlns="http://www.w3.org/2000/svg">
<mask id="mask0_45_2437" style="mask-type:alpha" maskUnits="userSpaceOnUse" x="0" y="0" width="16" height="16">
<rect width="16" height="16" fill="#D9D9D9"/>
</mask>
<g mask="url(#mask0_45_2437)">
<path d="M5.10997 11.4974C5.29392 11.4974 5.44798 11.4352 5.57215 11.3108C5.69621 11.1863 5.75824 11.0321 5.75824 10.8482C5.75824 10.6643 5.69603 10.5102 5.5716 10.386C5.44718 10.262 5.293 10.1999 5.10905 10.1999C4.92511 10.1999 4.77111 10.2621 4.64705 10.3866C4.52288 10.511 4.46079 10.6652 4.46079 10.8491C4.46079 11.0331 4.523 11.1871 4.64742 11.3111C4.77197 11.4353 4.92615 11.4974 5.10997 11.4974ZM5.10997 8.64857C5.29392 8.64857 5.44798 8.58636 5.57215 8.46194C5.69621 8.33751 5.75824 8.18333 5.75824 7.99939C5.75824 7.81544 5.69603 7.66144 5.5716 7.53738C5.44718 7.41333 5.293 7.3513 5.10905 7.3513C4.92511 7.3513 4.77111 7.41351 4.64705 7.53793C4.52288 7.66236 4.46079 7.81654 4.46079 8.00049C4.46079 8.18443 4.523 8.33843 4.64742 8.46249C4.77197 8.58654 4.92615 8.64857 5.10997 8.64857ZM5.10997 5.79993C5.29392 5.79993 5.44798 5.73772 5.57215 5.6133C5.69621 5.48888 5.75824 5.3347 5.75824 5.15075C5.75824 4.96681 5.69603 4.81281 5.5716 4.68875C5.44718 4.56457 5.293 4.50248 5.10905 4.50248C4.92511 4.50248 4.77111 4.5647 4.64705 4.68912C4.52288 4.81354 4.46079 4.96772 4.46079 5.15167C4.46079 5.33561 4.523 5.48967 4.64742 5.61385C4.77197 5.73791 4.92615 5.79993 5.10997 5.79993ZM7.88784 11.3986H10.9622C11.118 11.3986 11.2486 11.3458 11.3539 11.2404C11.4594 11.135 11.5122 11.0043 11.5122 10.8484C11.5122 10.6926 11.4594 10.562 11.3539 10.4566C11.2486 10.3514 11.118 10.2988 10.9622 10.2988H7.88784C7.732 10.2988 7.60135 10.3514 7.49587 10.4568C7.39051 10.5623 7.33784 10.693 7.33784 10.8489C7.33784 11.0048 7.39051 11.1354 7.49587 11.2407C7.60135 11.346 7.732 11.3986 7.88784 11.3986ZM7.88784 8.54993H10.9622C11.118 8.54993 11.2486 8.4972 11.3539 8.39172C11.4594 8.28624 11.5122 8.15559 11.5122 7.99975C11.5122 7.8438 11.4594 7.7132 11.3539 7.60797C11.2486 7.50261 11.118 7.44993 10.9622 7.44993H7.88784C7.732 7.44993 7.60135 7.50267 7.49587 7.60815C7.39051 7.71363 7.33784 7.84429 7.33784 8.00012C7.33784 8.15607 7.39051 8.28667 7.49587 8.3919C7.60135 8.49726 7.732 8.54993 7.88784 8.54993ZM7.88784 5.70112H10.9622C11.118 5.70112 11.2486 5.64844 11.3539 5.54308C11.4594 5.43761 11.5122 5.30689 11.5122 5.15093C11.5122 4.9951 11.4594 4.86451 11.3539 4.75915C11.2486 4.65392 11.118 4.6013 10.9622 4.6013H7.88784C7.732 4.6013 7.60135 4.65404 7.49587 4.75952C7.39051 4.86487 7.33784 4.99553 7.33784 5.15149C7.33784 5.30732 7.39051 5.43791 7.49587 5.54327C7.60135 5.6485 7.732 5.70112 7.88784 5.70112ZM3.09294 14.2333C2.72248 14.2333 2.40892 14.1049 2.15225 13.8483C1.89559 13.5916 1.76725 13.278 1.76725 12.9076V3.09228C1.76725 2.72183 1.89559 2.40827 2.15225 2.1516C2.40892 1.89493 2.72248 1.7666 3.09294 1.7666H12.9082C13.2787 1.7666 13.5923 1.89493 13.8489 2.1516C14.1056 2.40827 14.2339 2.72183 14.2339 3.09228V12.9076C14.2339 13.278 14.1056 13.5916 13.8489 13.8483C13.5923 14.1049 13.2787 14.2333 12.9082 14.2333H3.09294ZM3.09294 13.1333H12.9082C12.9647 13.1333 13.0164 13.1097 13.0633 13.0627C13.1104 13.0158 13.1339 12.9641 13.1339 12.9076V3.09228C13.1339 3.03582 13.1104 2.98412 13.0633 2.93718C13.0164 2.89013 12.9647 2.8666 12.9082 2.8666H3.09294C3.03647 2.8666 2.98477 2.89013 2.93784 2.93718C2.89078 2.98412 2.86725 3.03582 2.86725 3.09228V12.9076C2.86725 12.9641 2.89078 13.0158 2.93784 13.0627C2.98477 13.1097 3.03647 13.1333 3.09294 13.1333Z" fill="#33363D"/>
</g>
</svg>
