<svg width="16" height="16" viewBox="0 0 16 16" fill="none" xmlns="http://www.w3.org/2000/svg">
<path fill-rule="evenodd" clip-rule="evenodd" d="M5.17263 1.3335L6.66683 1.3335C7.03502 1.3335 7.3335 1.63197 7.3335 2.00016C7.3335 2.36835 7.03502 2.66683 6.66683 2.66683H5.20016C4.62911 2.66683 4.24091 2.66735 3.94086 2.69186C3.64858 2.71574 3.49911 2.75903 3.39484 2.81215C3.14396 2.93999 2.93999 3.14396 2.81215 3.39484C2.75903 3.49911 2.71574 3.64858 2.69186 3.94086C2.66735 4.24091 2.66683 4.62911 2.66683 5.20016V10.8002C2.66683 11.3712 2.66735 11.7594 2.69186 12.0595C2.71574 12.3517 2.75903 12.5012 2.81215 12.6055C2.93999 12.8564 3.14396 13.0603 3.39484 13.1882C3.49911 13.2413 3.64858 13.2846 3.94086 13.3085C4.24091 13.333 4.62911 13.3335 5.20016 13.3335H10.8002C11.3712 13.3335 11.7594 13.333 12.0595 13.3085C12.3517 13.2846 12.5012 13.2413 12.6055 13.1882C12.8564 13.0603 13.0603 12.8564 13.1882 12.6055C13.2413 12.5012 13.2846 12.3517 13.3085 12.0595C13.333 11.7594 13.3335 11.3712 13.3335 10.8002V9.3335C13.3335 8.96531 13.632 8.66683 14.0002 8.66683C14.3684 8.66683 14.6668 8.96531 14.6668 9.3335V10.8277C14.6668 11.3644 14.6668 11.8073 14.6374 12.168C14.6067 12.5428 14.541 12.8872 14.3762 13.2108C14.1205 13.7126 13.7126 14.1205 13.2108 14.3762C12.8872 14.541 12.5428 14.6067 12.168 14.6374C11.8073 14.6668 11.3644 14.6668 10.8277 14.6668H5.17261C4.63597 14.6668 4.19307 14.6668 3.83228 14.6374C3.45755 14.6067 3.11308 14.541 2.78952 14.3762C2.28776 14.1205 1.87981 13.7126 1.62415 13.2108C1.45929 12.8872 1.39358 12.5428 1.36296 12.168C1.33348 11.8073 1.33349 11.3643 1.3335 10.8277V5.17263C1.33349 4.63598 1.33348 4.19308 1.36296 3.83228C1.39358 3.45755 1.45929 3.11308 1.62415 2.78952C1.87981 2.28776 2.28776 1.87981 2.78952 1.62415C3.11308 1.45929 3.45755 1.39358 3.83228 1.36296C4.19308 1.33348 4.63598 1.33349 5.17263 1.3335ZM9.33348 2.00017C9.33348 1.63198 9.63196 1.3335 10.0001 1.3335H14.0001C14.3683 1.3335 14.6668 1.63198 14.6668 2.00017L14.6668 6.00017C14.6668 6.36836 14.3683 6.66684 14.0001 6.66684C13.632 6.66684 13.3335 6.36836 13.3335 6.00017L13.3335 3.60965L8.47157 8.47157C8.21122 8.73192 7.78911 8.73192 7.52876 8.47157C7.26841 8.21122 7.26841 7.78911 7.52876 7.52876L12.3907 2.66684H10.0001C9.63196 2.66684 9.33348 2.36836 9.33348 2.00017Z" fill="#052B57"/>
</svg>
