<svg width="16" height="16" viewBox="0 0 16 16" fill="none" xmlns="http://www.w3.org/2000/svg">
<path fill-rule="evenodd" clip-rule="evenodd" d="M4.70016 2.0335C5.57533 1.15833 6.76231 0.666666 7.99999 0.666666C9.23766 0.666666 10.4246 1.15833 11.2998 2.0335C12.175 2.90867 12.6667 4.09566 12.6667 5.33333C12.6667 7.27512 13.1547 8.56257 13.6662 9.38473L13.6741 9.39735C13.9123 9.78019 14.1006 10.0828 14.2276 10.3031C14.2912 10.4135 14.3492 10.5198 14.3921 10.6143C14.4135 10.6615 14.4375 10.7193 14.4562 10.7822C14.4717 10.8343 14.5013 10.9458 14.4902 11.0815C14.4828 11.1727 14.4642 11.3285 14.3747 11.4895C14.2853 11.6505 14.1628 11.7486 14.0893 11.8032C13.9225 11.9269 13.7308 11.9552 13.6669 11.9647L13.6639 11.9651C13.5657 11.9797 13.4541 11.9869 13.3416 11.9913C13.1181 12 12.8087 12 12.4239 12H3.57609C3.19127 12 2.88184 12 2.65834 11.9913C2.54584 11.9869 2.43432 11.9797 2.33604 11.9651L2.33309 11.9647C2.26913 11.9552 2.07752 11.9269 1.91066 11.8032C1.83716 11.7486 1.71468 11.6505 1.62525 11.4895C1.53581 11.3285 1.51722 11.1727 1.50976 11.0815C1.49866 10.9458 1.52826 10.8343 1.5438 10.7822C1.56252 10.7193 1.58649 10.6615 1.6079 10.6143C1.65081 10.5198 1.70877 10.4135 1.77238 10.3031C1.89933 10.0828 2.08764 9.78022 2.32584 9.39741L2.33373 9.38473C2.84532 8.56257 3.33332 7.27512 3.33332 5.33333C3.33332 4.09566 3.82499 2.90867 4.70016 2.0335ZM7.99999 2C7.11593 2 6.26809 2.35119 5.64296 2.97631C5.01784 3.60143 4.66665 4.44928 4.66665 5.33333C4.66665 7.5118 4.11528 9.04537 3.4658 10.0892C3.3239 10.3172 3.20547 10.5076 3.10871 10.6659C3.24643 10.6666 3.40664 10.6667 3.59256 10.6667H12.4074C12.5933 10.6667 12.7535 10.6666 12.8913 10.6659C12.7945 10.5076 12.6761 10.3172 12.5342 10.0892C11.8847 9.04537 11.3333 7.5118 11.3333 5.33333C11.3333 4.44928 10.9821 3.60143 10.357 2.97631C9.73189 2.35119 8.88404 2 7.99999 2ZM5.99999 14C5.99999 13.6318 6.29846 13.3333 6.66665 13.3333H9.33332C9.70151 13.3333 9.99999 13.6318 9.99999 14C9.99999 14.3682 9.70151 14.6667 9.33332 14.6667H6.66665C6.29846 14.6667 5.99999 14.3682 5.99999 14Z" fill="#33363D"/>
</svg>
