<svg width="20" height="20" viewBox="0 0 20 20" fill="none" xmlns="http://www.w3.org/2000/svg">
<path fill-rule="evenodd" clip-rule="evenodd" d="M6.46542 1.66699H13.5343C14.2051 1.66698 14.7587 1.66697 15.2097 1.70382C15.6781 1.74209 16.1087 1.82423 16.5131 2.0303C17.1403 2.34988 17.6503 2.85982 17.9699 3.48702C18.1759 3.89147 18.2581 4.32206 18.2963 4.79047C18.3332 5.24146 18.3332 5.79509 18.3332 6.46589V13.5348C18.3332 14.2056 18.3332 14.7592 18.2963 15.2102C18.2581 15.6786 18.1759 16.1092 17.9699 16.5136C17.6503 17.1408 17.1403 17.6508 16.5131 17.9703C16.1087 18.1764 15.6781 18.2586 15.2097 18.2968C14.7587 18.3337 14.2051 18.3337 13.5343 18.3337H6.4654C5.7946 18.3337 5.24097 18.3337 4.78998 18.2968C4.32157 18.2586 3.89098 18.1764 3.48654 17.9703C2.85933 17.6508 2.34939 17.1408 2.02982 16.5136C1.82374 16.1092 1.7416 15.6786 1.70333 15.2102C1.66648 14.7592 1.66649 14.2056 1.6665 13.5347V6.46591C1.66649 5.7951 1.66648 5.24147 1.70333 4.79047C1.7416 4.32206 1.82374 3.89147 2.02982 3.48702C2.34939 2.85982 2.85933 2.34988 3.48654 2.0303C3.89098 1.82423 4.32157 1.74209 4.78998 1.70382C5.24098 1.66697 5.79461 1.66698 6.46542 1.66699ZM3.33317 10.8337V13.5003C3.33317 14.2141 3.33382 14.6994 3.36446 15.0745C3.39431 15.4398 3.44842 15.6266 3.51483 15.757C3.67462 16.0706 3.92958 16.3255 4.24319 16.4853C4.37352 16.5517 4.56036 16.6058 4.9257 16.6357C5.30078 16.6663 5.78602 16.667 6.49984 16.667H13.4998C14.2137 16.667 14.6989 16.6663 15.074 16.6357C15.4393 16.6058 15.6262 16.5517 15.7565 16.4853C16.0701 16.3255 16.3251 16.0706 16.4848 15.757C16.5513 15.6266 16.6054 15.4398 16.6352 15.0745C16.6659 14.6994 16.6665 14.2141 16.6665 13.5003V10.8337H3.33317ZM16.6665 9.16699H3.33317V6.50033C3.33317 5.78651 3.33382 5.30127 3.36446 4.92619C3.39431 4.56084 3.44842 4.37401 3.51483 4.24368C3.67462 3.93007 3.92958 3.6751 4.24319 3.51532C4.37352 3.44891 4.56036 3.3948 4.9257 3.36495C5.30078 3.33431 5.78602 3.33366 6.49984 3.33366H13.4998C14.2137 3.33366 14.6989 3.33431 15.074 3.36495C15.4393 3.3948 15.6262 3.44891 15.7565 3.51532C16.0701 3.6751 16.3251 3.93007 16.4848 4.24368C16.5513 4.37401 16.6054 4.56085 16.6352 4.92619C16.6659 5.30127 16.6665 5.78651 16.6665 6.50033V9.16699Z" fill="#58616A"/>
</svg>
