<svg width="20" height="20" viewBox="0 0 20 20" fill="none" xmlns="http://www.w3.org/2000/svg">
<path d="M2.5 18.3327C2.31944 18.3327 2.17014 18.2737 2.05208 18.1556C1.93403 18.0375 1.875 17.8882 1.875 17.7077C1.875 17.5271 1.93403 17.3778 2.05208 17.2598C2.17014 17.1417 2.31944 17.0827 2.5 17.0827H3.95833V16.4577H3.33333C3.15278 16.4577 3.00347 16.3987 2.88542 16.2806C2.76736 16.1625 2.70833 16.0132 2.70833 15.8327C2.70833 15.6521 2.76736 15.5028 2.88542 15.3848C3.00347 15.2667 3.15278 15.2077 3.33333 15.2077H3.95833V14.5827H2.5C2.31944 14.5827 2.17014 14.5237 2.05208 14.4056C1.93403 14.2875 1.875 14.1382 1.875 13.9577C1.875 13.7771 1.93403 13.6278 2.05208 13.5098C2.17014 13.3917 2.31944 13.3327 2.5 13.3327H4.375C4.61111 13.3327 4.80903 13.4125 4.96875 13.5723C5.12847 13.732 5.20833 13.9299 5.20833 14.166V14.9993C5.20833 15.2355 5.12847 15.4334 4.96875 15.5931C4.80903 15.7528 4.61111 15.8327 4.375 15.8327C4.61111 15.8327 4.80903 15.9125 4.96875 16.0723C5.12847 16.232 5.20833 16.4299 5.20833 16.666V17.4993C5.20833 17.7355 5.12847 17.9334 4.96875 18.0931C4.80903 18.2528 4.61111 18.3327 4.375 18.3327H2.5ZM2.5 12.4993C2.31944 12.4993 2.17014 12.4403 2.05208 12.3223C1.93403 12.2042 1.875 12.0549 1.875 11.8743V10.2077C1.875 9.97157 1.95486 9.77365 2.11458 9.61393C2.27431 9.45421 2.47222 9.37435 2.70833 9.37435H3.95833V8.74935H2.5C2.31944 8.74935 2.17014 8.69032 2.05208 8.57227C1.93403 8.45421 1.875 8.3049 1.875 8.12435C1.875 7.94379 1.93403 7.79449 2.05208 7.67643C2.17014 7.55838 2.31944 7.49935 2.5 7.49935H4.375C4.61111 7.49935 4.80903 7.57921 4.96875 7.73893C5.12847 7.89865 5.20833 8.09657 5.20833 8.33268V9.79102C5.20833 10.0271 5.12847 10.225 4.96875 10.3848C4.80903 10.5445 4.61111 10.6243 4.375 10.6243H3.125V11.2493H4.58333C4.76389 11.2493 4.91319 11.3084 5.03125 11.4264C5.14931 11.5445 5.20833 11.6938 5.20833 11.8743C5.20833 12.0549 5.14931 12.2042 5.03125 12.3223C4.91319 12.4403 4.76389 12.4993 4.58333 12.4993H2.5ZM3.75 6.66602C3.56944 6.66602 3.42014 6.60699 3.30208 6.48893C3.18403 6.37088 3.125 6.22157 3.125 6.04102V2.91602H2.5C2.31944 2.91602 2.17014 2.85699 2.05208 2.73893C1.93403 2.62088 1.875 2.47157 1.875 2.29102C1.875 2.11046 1.93403 1.96115 2.05208 1.8431C2.17014 1.72504 2.31944 1.66602 2.5 1.66602H3.75C3.93056 1.66602 4.07986 1.72504 4.19792 1.8431C4.31597 1.96115 4.375 2.11046 4.375 2.29102V6.04102C4.375 6.22157 4.31597 6.37088 4.19792 6.48893C4.07986 6.60699 3.93056 6.66602 3.75 6.66602ZM7.70833 15.8327C7.47222 15.8327 7.27431 15.7528 7.11458 15.5931C6.95486 15.4334 6.875 15.2355 6.875 14.9993C6.875 14.7632 6.95486 14.5653 7.11458 14.4056C7.27431 14.2459 7.47222 14.166 7.70833 14.166H17.2917C17.5278 14.166 17.7257 14.2459 17.8854 14.4056C18.0451 14.5653 18.125 14.7632 18.125 14.9993C18.125 15.2355 18.0451 15.4334 17.8854 15.5931C17.7257 15.7528 17.5278 15.8327 17.2917 15.8327H7.70833ZM7.70833 10.8327C7.47222 10.8327 7.27431 10.7528 7.11458 10.5931C6.95486 10.4334 6.875 10.2355 6.875 9.99935C6.875 9.76324 6.95486 9.56532 7.11458 9.4056C7.27431 9.24588 7.47222 9.16602 7.70833 9.16602H17.2917C17.5278 9.16602 17.7257 9.24588 17.8854 9.4056C18.0451 9.56532 18.125 9.76324 18.125 9.99935C18.125 10.2355 18.0451 10.4334 17.8854 10.5931C17.7257 10.7528 17.5278 10.8327 17.2917 10.8327H7.70833ZM7.70833 5.83268C7.47222 5.83268 7.27431 5.75282 7.11458 5.5931C6.95486 5.43338 6.875 5.23546 6.875 4.99935C6.875 4.76324 6.95486 4.56532 7.11458 4.4056C7.27431 4.24588 7.47222 4.16602 7.70833 4.16602H17.2917C17.5278 4.16602 17.7257 4.24588 17.8854 4.4056C18.0451 4.56532 18.125 4.76324 18.125 4.99935C18.125 5.23546 18.0451 5.43338 17.8854 5.5931C17.7257 5.75282 17.5278 5.83268 17.2917 5.83268H7.70833Z" fill="#58616A"/>
</svg>
