<svg width="12" height="12" viewBox="0 0 12 12" fill="none" xmlns="http://www.w3.org/2000/svg">
<path fill-rule="evenodd" clip-rule="evenodd" d="M6.00033 0.666992C6.36852 0.666992 6.66699 0.965469 6.66699 1.33366V5.33366H10.667C11.0352 5.33366 11.3337 5.63214 11.3337 6.00033C11.3337 6.36852 11.0352 6.66699 10.667 6.66699H6.66699V10.667C6.66699 11.0352 6.36852 11.3337 6.00033 11.3337C5.63214 11.3337 5.33366 11.0352 5.33366 10.667V6.66699H1.33366C0.965469 6.66699 0.666992 6.36852 0.666992 6.00033C0.666992 5.63214 0.965469 5.33366 1.33366 5.33366H5.33366V1.33366C5.33366 0.965469 5.63214 0.666992 6.00033 0.666992Z" fill="#58616A"/>
</svg>
