<svg width="20" height="20" viewBox="0 0 20 20" fill="none" xmlns="http://www.w3.org/2000/svg">
<path fill-rule="evenodd" clip-rule="evenodd" d="M9.41077 1.91009C9.7362 1.58466 10.2638 1.58466 10.5893 1.91009L14.7559 6.07676C15.0814 6.4022 15.0814 6.92983 14.7559 7.25527C14.4305 7.58071 13.9029 7.58071 13.5774 7.25527L10.8334 4.51119V12.4993C10.8334 12.9596 10.4603 13.3327 10 13.3327C9.53978 13.3327 9.16669 12.9596 9.16669 12.4993V4.51119L6.42261 7.25527C6.09717 7.58071 5.56954 7.58071 5.2441 7.25527C4.91866 6.92983 4.91866 6.4022 5.2441 6.07676L9.41077 1.91009ZM2.50002 11.666C2.96026 11.666 3.33335 12.0391 3.33335 12.4993V13.4993C3.33335 14.2132 3.334 14.6984 3.36465 15.0735C3.3945 15.4388 3.4486 15.6257 3.51501 15.756C3.6748 16.0696 3.92977 16.3246 4.24337 16.4844C4.3737 16.5508 4.56054 16.6049 4.92589 16.6347C5.30096 16.6654 5.7862 16.666 6.50002 16.666H13.5C14.2138 16.666 14.6991 16.6654 15.0742 16.6347C15.4395 16.6049 15.6263 16.5508 15.7567 16.4844C16.0703 16.3246 16.3252 16.0696 16.485 15.756C16.5514 15.6257 16.6055 15.4388 16.6354 15.0735C16.666 14.6984 16.6667 14.2132 16.6667 13.4993V12.4993C16.6667 12.0391 17.0398 11.666 17.5 11.666C17.9603 11.666 18.3334 12.0391 18.3334 12.4993V13.5338C18.3334 14.2046 18.3334 14.7582 18.2965 15.2092C18.2583 15.6776 18.1761 16.1082 17.97 16.5127C17.6505 17.1399 17.1405 17.6498 16.5133 17.9694C16.1089 18.1754 15.6783 18.2576 15.2099 18.2959C14.7589 18.3327 14.2053 18.3327 13.5345 18.3327H6.46558C5.79478 18.3327 5.24116 18.3327 4.79017 18.2959C4.32175 18.2576 3.89117 18.1754 3.48672 17.9694C2.85951 17.6498 2.34958 17.1399 2.03 16.5127C1.82392 16.1082 1.74179 15.6776 1.70352 15.2092C1.66667 14.7582 1.66668 14.2046 1.66669 13.5338L1.66669 12.4993C1.66669 12.0391 2.03978 11.666 2.50002 11.666Z" fill="#33363D"/>
</svg>
