<svg width="20" height="20" viewBox="0 0 20 20" fill="none" xmlns="http://www.w3.org/2000/svg">
<path fill-rule="evenodd" clip-rule="evenodd" d="M8.08926 2.74408C8.41469 3.06951 8.41469 3.59715 8.08926 3.92259L5.34518 6.66667H8.70368C10.0725 6.66666 11.1508 6.66666 12.0185 6.73756C12.9038 6.80989 13.6431 6.96014 14.3149 7.30246C15.4126 7.86172 16.3049 8.75411 16.8642 9.85172C17.2065 10.5236 17.3568 11.2629 17.4291 12.1481C17.5 13.0159 17.5 14.0942 17.5 15.463V16.6667C17.5 17.1269 17.1269 17.5 16.6667 17.5C16.2064 17.5 15.8333 17.1269 15.8333 16.6667V15.5C15.8333 14.0861 15.8327 13.0758 15.768 12.2839C15.7041 11.5016 15.5818 11.0061 15.3792 10.6084C14.9797 9.82436 14.3423 9.18694 13.5583 8.78747C13.1606 8.58482 12.665 8.4626 11.8828 8.39869C11.0908 8.33398 10.0805 8.33333 8.66667 8.33333H5.34518L8.08926 11.0774C8.41469 11.4028 8.41469 11.9305 8.08926 12.2559C7.76382 12.5814 7.23618 12.5814 6.91074 12.2559L2.74408 8.08926C2.41864 7.76382 2.41864 7.23618 2.74408 6.91074L6.91074 2.74408C7.23618 2.41864 7.76382 2.41864 8.08926 2.74408Z" fill="#58616A"/>
</svg>
