<svg width="96" height="96" viewBox="0 0 96 96" fill="none" xmlns="http://www.w3.org/2000/svg">
<path fill-rule="evenodd" clip-rule="evenodd" d="M32 4C34.2091 4 36 5.79086 36 8V12H60V8C60 5.79086 61.7909 4 64 4C66.2091 4 68 5.79086 68 8V12.0065C69.9019 12.0196 71.5641 12.0589 73.0073 12.1768C75.2557 12.3605 77.3225 12.7547 79.2638 13.7439C82.2744 15.2779 84.7221 17.7256 86.2561 20.7362C87.2453 22.6775 87.6395 24.7443 87.8232 26.9927C88.0001 29.1575 88.0001 31.8149 88 35.0347V68.9653C88.0001 72.1851 88.0001 74.8425 87.8232 77.0073C87.6395 79.2557 87.2453 81.3225 86.2561 83.2638C84.7221 86.2744 82.2744 88.7221 79.2638 90.2561C77.3225 91.2453 75.2557 91.6395 73.0073 91.8232C70.8425 92.0001 68.1851 92.0001 64.9653 92H31.0347C27.8149 92.0001 25.1575 92.0001 22.9927 91.8232C20.7443 91.6395 18.6775 91.2453 16.7362 90.2561C13.7256 88.7221 11.2779 86.2744 9.7439 83.2638C8.75474 81.3225 8.36048 79.2557 8.17678 77.0073C7.99991 74.8425 7.99995 72.1851 8 68.9652V35.0348C7.99995 31.8149 7.99991 29.1575 8.17678 26.9927C8.36048 24.7443 8.75474 22.6775 9.7439 20.7362C11.2779 17.7256 13.7256 15.2779 16.7362 13.7439C18.6775 12.7547 20.7443 12.3605 22.9927 12.1768C24.4359 12.0589 26.0981 12.0196 28 12.0065V8C28 5.79086 29.7909 4 32 4ZM28 20.007C26.2179 20.0196 24.8185 20.0543 23.6442 20.1502C21.8905 20.2935 20.9937 20.5532 20.3681 20.8719C18.8628 21.6389 17.6389 22.8628 16.872 24.3681C16.5532 24.9937 16.2935 25.8905 16.1502 27.6441C16.0031 29.4445 16 31.7737 16 35.2V36H80V35.2C80 31.7737 79.9969 29.4445 79.8498 27.6442C79.7065 25.8905 79.4468 24.9937 79.1281 24.3681C78.3611 22.8628 77.1372 21.6389 75.6319 20.8719C75.0063 20.5532 74.1095 20.2935 72.3559 20.1502C71.1815 20.0543 69.7821 20.0196 68 20.007V24C68 26.2091 66.2091 28 64 28C61.7909 28 60 26.2091 60 24V20H36V24C36 26.2091 34.2091 28 32 28C29.7909 28 28 26.2091 28 24V20.007ZM80 44H16V68.8C16 72.2263 16.0031 74.5555 16.1502 76.3559C16.2935 78.1095 16.5532 79.0063 16.872 79.6319C17.6389 81.1372 18.8628 82.3611 20.3681 83.1281C20.9937 83.4468 21.8905 83.7065 23.6442 83.8498C25.4445 83.9969 27.7737 84 31.2 84H64.8C68.2263 84 70.5555 83.9969 72.3559 83.8498C74.1095 83.7065 75.0063 83.4468 75.6319 83.1281C77.1372 82.3611 78.3611 81.1372 79.1281 79.6319C79.4468 79.0063 79.7065 78.1095 79.8498 76.3559C79.9969 74.5555 80 72.2263 80 68.8V44Z" fill="#33363D"/>
</svg>
