<svg width="16" height="16" viewBox="0 0 16 16" fill="none" xmlns="http://www.w3.org/2000/svg">
<mask id="mask0_871_6075" style="mask-type:alpha" maskUnits="userSpaceOnUse" x="0" y="0" width="16" height="16">
<rect width="16" height="16" fill="#D9D9D9"/>
</mask>
<g mask="url(#mask0_871_6075)">
<path d="M12.3793 11.3523V5.22303C11.5426 5.29356 9.89857 5.04409 9.89857 5.04409C9.89857 5.04409 8.32503 4.54944 7.62883 4.12996C7.14505 3.84236 6.66293 3.62639 6.18246 3.48204C5.70199 3.33781 5.21589 3.2657 4.72418 3.2657C4.53901 3.2657 4.35451 3.27719 4.17068 3.30017C3.98685 3.32315 3.78964 3.35627 3.57904 3.39954V9.53298C3.79526 9.49912 3.99644 9.47681 4.18259 9.46606C4.36874 9.45518 4.55447 9.44974 4.73976 9.44974C5.45405 9.44974 6.15398 9.54404 6.83955 9.73263C7.52499 9.92111 8.15917 10.1893 8.74206 10.5371C9.31371 10.8765 9.90352 11.1161 10.5115 11.2556C11.1193 11.3953 11.7419 11.4275 12.3793 11.3523ZM8.29233 11.5328C7.75417 11.2075 7.18918 10.9604 6.59736 10.7916C6.00542 10.6229 5.40455 10.5386 4.79476 10.5386C4.586 10.5386 4.38433 10.5501 4.18974 10.5731C3.99504 10.5962 3.79147 10.6201 3.57904 10.6447V14.0714C3.57904 14.2272 3.5263 14.3578 3.42082 14.4632C3.31534 14.5686 3.18468 14.6214 3.02884 14.6214C2.87288 14.6214 2.74228 14.5686 2.63704 14.4632C2.53168 14.3578 2.479 14.2272 2.479 14.0714V3.08236C2.479 2.91577 2.53113 2.76586 2.63539 2.63263C2.73977 2.4994 2.87428 2.41611 3.03892 2.38274C3.35671 2.32163 3.65262 2.26827 3.92665 2.22268C4.20081 2.17709 4.47936 2.1543 4.76231 2.1543C5.3314 2.1543 5.90048 2.23863 6.46957 2.40731C7.03853 2.5761 7.59014 2.81756 8.12439 3.13168C8.68003 3.4645 9.25957 3.7172 9.863 3.88979C10.4663 4.06225 11.0846 4.14848 11.7178 4.14848C11.904 4.14848 12.082 4.14353 12.2517 4.13363C12.4214 4.12385 12.596 4.10906 12.7755 4.08926C12.9646 4.06946 13.1304 4.12471 13.2727 4.255C13.4151 4.38517 13.4863 4.54474 13.4863 4.7337V11.7444C13.4863 11.9216 13.4282 12.0739 13.312 12.2013C13.1956 12.3287 13.0488 12.4034 12.8714 12.4255C12.6796 12.45 12.4865 12.4671 12.2921 12.477C12.0976 12.4868 11.9086 12.4917 11.725 12.4917C11.1146 12.4917 10.5215 12.4109 9.94569 12.2492C9.36988 12.0874 8.81876 11.8487 8.29233 11.5328Z" fill="#33363D"/>
</g>
</svg>
