<svg width="16" height="16" viewBox="0 0 16 16" fill="none" xmlns="http://www.w3.org/2000/svg">
<mask id="mask0_45_2384" style="mask-type:alpha" maskUnits="userSpaceOnUse" x="0" y="0" width="16" height="16">
<rect width="16" height="16" fill="#D9D9D9"/>
</mask>
<g mask="url(#mask0_45_2384)">
<path d="M0.519083 11.7286C0.519083 11.3507 0.616612 11.0134 0.811669 10.7168C1.00673 10.4202 1.26723 10.1894 1.59318 10.0246C2.29006 9.6837 2.99078 9.42088 3.69536 9.23608C4.40006 9.05142 5.17448 8.95908 6.01863 8.95908C6.8629 8.95908 7.63732 9.05142 8.3419 9.23608C9.0466 9.42088 9.74739 9.6837 10.4443 10.0246C10.7702 10.1894 11.0307 10.4202 11.2258 10.7168C11.4208 11.0134 11.5184 11.3507 11.5184 11.7286V12.2448C11.5184 12.54 11.41 12.7994 11.1933 13.0232C10.9766 13.247 10.7136 13.3589 10.4043 13.3589H1.63296C1.32375 13.3589 1.06081 13.2505 0.844117 13.0338C0.627428 12.817 0.519083 12.554 0.519083 12.2448V11.7286ZM14.367 13.3589H12.7015C12.7937 13.1906 12.864 13.0115 12.9124 12.8215C12.9608 12.6316 12.985 12.4394 12.985 12.2448V11.6384C12.985 11.1571 12.8671 10.6983 12.6315 10.2622C12.3958 9.82608 12.0614 9.45192 11.6284 9.13966C12.12 9.21299 12.5868 9.32646 13.0288 9.48009C13.4706 9.63384 13.8922 9.81551 14.2937 10.0251C14.6726 10.2273 14.9652 10.4655 15.1715 10.7399C15.3778 11.0141 15.4809 11.3136 15.4809 11.6384V12.2448C15.4809 12.554 15.3726 12.817 15.1559 13.0338C14.9392 13.2505 14.6762 13.3589 14.367 13.3589ZM6.01863 7.77444C5.31283 7.77444 4.70866 7.52316 4.2061 7.02061C3.70355 6.51793 3.45227 5.9137 3.45227 5.2079C3.45227 4.5021 3.70355 3.89792 4.2061 3.39537C4.70866 2.8927 5.31283 2.64136 6.01863 2.64136C6.72443 2.64136 7.32867 2.8927 7.83134 3.39537C8.33389 3.89792 8.58517 4.5021 8.58517 5.2079C8.58517 5.9137 8.33389 6.51793 7.83134 7.02061C7.32867 7.52316 6.72443 7.77444 6.01863 7.77444ZM12.3503 5.2079C12.3503 5.9137 12.099 6.51793 11.5965 7.02061C11.0939 7.52316 10.4897 7.77444 9.78393 7.77444C9.70119 7.77444 9.5959 7.76503 9.46806 7.74621C9.3401 7.72739 9.23481 7.70673 9.15219 7.68424C9.44136 7.33654 9.66361 6.95082 9.81894 6.5271C9.97416 6.10338 10.0518 5.6634 10.0518 5.20717C10.0518 4.75081 9.97257 4.31248 9.81418 3.89218C9.65579 3.472 9.43512 3.08519 9.15219 2.73174C9.25742 2.69409 9.36271 2.66965 9.46806 2.65841C9.57329 2.64704 9.67858 2.64136 9.78393 2.64136C10.4897 2.64136 11.0939 2.8927 11.5965 3.39537C12.099 3.89792 12.3503 4.5021 12.3503 5.2079ZM1.61885 12.2589H10.4184V11.7286C10.4184 11.5754 10.3801 11.4392 10.3035 11.3197C10.227 11.2003 10.1055 11.096 9.93902 11.0066C9.33552 10.6955 8.71411 10.4597 8.0748 10.2994C7.43548 10.1391 6.75009 10.059 6.01863 10.059C5.28729 10.059 4.60196 10.1391 3.96265 10.2994C3.32333 10.4597 2.70193 10.6955 2.09842 11.0066C1.93196 11.096 1.81042 11.2003 1.73379 11.3197C1.65716 11.4392 1.61885 11.5754 1.61885 11.7286V12.2589ZM6.01863 6.67449C6.42194 6.67449 6.76721 6.53089 7.05441 6.24368C7.34162 5.95647 7.48523 5.61121 7.48523 5.2079C7.48523 4.80458 7.34162 4.45932 7.05441 4.17212C6.76721 3.88491 6.42194 3.7413 6.01863 3.7413C5.61532 3.7413 5.27006 3.88491 4.98285 4.17212C4.69564 4.45932 4.55204 4.80458 4.55204 5.2079C4.55204 5.61121 4.69564 5.95647 4.98285 6.24368C5.27006 6.53089 5.61532 6.67449 6.01863 6.67449Z" fill="#33363D"/>
</g>
</svg>
