<svg width="20" height="20" viewBox="0 0 20 20" fill="none" xmlns="http://www.w3.org/2000/svg">
<path fill-rule="evenodd" clip-rule="evenodd" d="M6.46559 1.66602H13.5344C14.2052 1.66601 14.7589 1.666 15.2099 1.70284C15.6783 1.74112 16.1089 1.82325 16.5133 2.02933C17.1405 2.34891 17.6504 2.85884 17.97 3.48605C18.1761 3.89049 18.2582 4.32108 18.2965 4.78949C18.3334 5.24049 18.3333 5.79411 18.3333 6.46491V13.5338C18.3333 14.2046 18.3334 14.7582 18.2965 15.2092C18.2582 15.6776 18.1761 16.1082 17.97 16.5127C17.6504 17.1399 17.1405 17.6498 16.5133 17.9694C16.1089 18.1754 15.6783 18.2576 15.2099 18.2959C14.7589 18.3327 14.2052 18.3327 13.5344 18.3327H6.46557C5.79477 18.3327 5.24114 18.3327 4.79015 18.2959C4.32174 18.2576 3.89115 18.1754 3.4867 17.9694C2.8595 17.6498 2.34956 17.1399 2.02998 16.5127C1.82391 16.1082 1.74177 15.6776 1.7035 15.2092C1.66665 14.7582 1.66666 14.2046 1.66667 13.5338V6.46493C1.66666 5.79412 1.66665 5.24049 1.7035 4.78949C1.74177 4.32108 1.82391 3.89049 2.02998 3.48605C2.34956 2.85884 2.8595 2.34891 3.4867 2.02933C3.89115 1.82325 4.32174 1.74112 4.79015 1.70284C5.24115 1.666 5.79478 1.66601 6.46559 1.66602ZM3.33334 8.33268V13.4993C3.33334 14.2132 3.33399 14.6984 3.36463 15.0735C3.39448 15.4388 3.44859 15.6257 3.51499 15.756C3.67478 16.0696 3.92975 16.3246 4.24336 16.4844C4.37369 16.5508 4.56052 16.6049 4.92587 16.6347C5.30094 16.6654 5.78619 16.666 6.50001 16.666H6.66667L6.66667 8.33268H3.33334ZM6.66667 6.66602L3.33334 6.66602V6.49935C3.33334 5.78553 3.33399 5.30029 3.36463 4.92521C3.39448 4.55987 3.44859 4.37303 3.51499 4.2427C3.67478 3.9291 3.92975 3.67413 4.24336 3.51434C4.37369 3.44793 4.56052 3.39383 4.92587 3.36398C5.30095 3.33333 5.78619 3.33268 6.50001 3.33268H6.66667L6.66667 6.66602ZM8.33334 8.33268L8.33334 16.666H13.5C14.2138 16.666 14.6991 16.6654 15.0741 16.6347C15.4395 16.6049 15.6263 16.5508 15.7567 16.4844C16.0703 16.3246 16.3252 16.0696 16.485 15.756C16.5514 15.6257 16.6055 15.4388 16.6354 15.0735C16.666 14.6984 16.6667 14.2132 16.6667 13.4994V8.33268L8.33334 8.33268ZM16.6667 6.66602L8.33334 6.66602V3.33268H13.5C14.2138 3.33268 14.6991 3.33333 15.0741 3.36398C15.4395 3.39383 15.6263 3.44793 15.7567 3.51434C16.0703 3.67413 16.3252 3.92909 16.485 4.2427C16.5514 4.37303 16.6055 4.55987 16.6354 4.92521C16.666 5.30029 16.6667 5.78553 16.6667 6.49935V6.66602Z" fill="#58616A"/>
</svg>
