<svg width="20" height="20" viewBox="0 0 20 20" fill="none" xmlns="http://www.w3.org/2000/svg">
<path fill-rule="evenodd" clip-rule="evenodd" d="M11.9107 2.74408C12.2362 2.41864 12.7638 2.41864 13.0893 2.74408L17.2559 6.91074C17.5814 7.23618 17.5814 7.76382 17.2559 8.08926L13.0893 12.2559C12.7638 12.5814 12.2362 12.5814 11.9107 12.2559C11.5853 11.9305 11.5853 11.4028 11.9107 11.0774L14.6548 8.33333H11.3333C9.91945 8.33333 8.90916 8.33398 8.1172 8.39869C7.33498 8.4626 6.83943 8.58482 6.44171 8.78747C5.6577 9.18694 5.02028 9.82436 4.62081 10.6084C4.41816 11.0061 4.29593 11.5016 4.23202 12.2839C4.16731 13.0758 4.16667 14.0861 4.16667 15.5V16.6667C4.16667 17.1269 3.79357 17.5 3.33333 17.5C2.8731 17.5 2.5 17.1269 2.5 16.6667L2.5 15.463C2.49999 14.0942 2.49999 13.0159 2.57089 12.1481C2.64322 11.2629 2.79348 10.5236 3.1358 9.85172C3.69506 8.75411 4.58744 7.86172 5.68506 7.30246C6.35689 6.96014 7.09619 6.80989 7.98148 6.73756C8.84924 6.66666 9.92754 6.66666 11.2963 6.66667H14.6548L11.9107 3.92259C11.5853 3.59715 11.5853 3.06951 11.9107 2.74408Z" fill="#58616A"/>
</svg>
