<svg width="20" height="20" viewBox="0 0 20 20" fill="none" xmlns="http://www.w3.org/2000/svg">
<path fill-rule="evenodd" clip-rule="evenodd" d="M4.16667 3.33333C4.16667 2.8731 4.53977 2.5 5.00001 2.5H11.6667C13.9679 2.5 15.8333 4.36548 15.8333 6.66667C15.8333 7.85892 15.3326 8.93422 14.5299 9.69371C15.8047 10.4062 16.6667 11.7691 16.6667 13.3333C16.6667 15.6345 14.8012 17.5 12.5 17.5H5.00001C4.53977 17.5 4.16667 17.1269 4.16667 16.6667V3.33333ZM5.83334 10.8333V15.8333H12.5C13.8807 15.8333 15 14.714 15 13.3333C15 11.9526 13.8807 10.8333 12.5 10.8333H5.83334ZM5.83334 9.16667H11.6667C13.0474 9.16667 14.1667 8.04738 14.1667 6.66667C14.1667 5.28595 13.0474 4.16667 11.6667 4.16667H5.83334V9.16667Z" fill="#58616A"/>
</svg>
