<svg width="24" height="25" viewBox="0 0 24 25" fill="none" xmlns="http://www.w3.org/2000/svg">
<path d="M17.9141 13.7701C16.8948 13.7931 15.8783 13.8853 14.8716 14.0462C13.8375 13.0301 12.9754 11.8527 12.3189 10.5601C12.8164 9.15319 13.1004 7.67969 13.1614 6.18864C13.2187 5.73378 13.1852 5.27209 13.0629 4.83026C12.9406 4.38844 12.7319 3.97524 12.4489 3.61457C12.2744 3.42524 12.0634 3.27318 11.8286 3.16756C11.5938 3.06194 11.34 3.00494 11.0826 3C10.5482 3 9.33508 3.24761 9.33508 5.54735C9.40605 7.00184 9.75431 8.42938 10.3611 9.75314C9.64101 11.9406 8.74749 14.0672 7.6891 16.1126C2.87943 17.9866 2.5 19.8535 2.5 20.3879C2.5 21.3837 3.21254 22 4.34371 22C6.92134 22 9.24067 17.7604 9.74658 16.7681C11.278 16.2016 12.8573 15.7741 14.4654 15.4909C15.7318 16.763 17.4096 17.5428 19.1985 17.6909C19.8273 17.6909 21.5 17.6909 21.5 15.9362C21.4929 14.3384 19.5637 13.7701 17.9141 13.7701ZM19.3873 15.6922C19.3873 15.8436 19.325 16.1963 18.7407 16.1963C17.8286 16.1028 16.9589 15.7643 16.2236 15.2166C16.745 15.1621 17.2688 15.1348 17.793 15.1346C19.1183 15.1346 19.3873 15.5728 19.3873 15.6922ZM10.8368 4.43578C10.8938 4.34315 10.9383 4.32711 11.006 4.32711C11.0355 4.32205 11.0658 4.32616 11.0929 4.33891C11.12 4.35165 11.1425 4.37241 11.1574 4.39837C11.4009 5.45124 11.3334 6.55214 10.9632 7.56741C10.6318 6.55528 10.5892 5.47077 10.8403 4.43578H10.8368ZM13.3111 14.3419C12.3759 14.5539 11.4727 14.7873 10.623 15.042C11.028 14.1228 11.3979 13.1888 11.7328 12.2399C12.2045 12.9802 12.7334 13.6824 13.3146 14.3401L13.3111 14.3419ZM6.54191 18.0828C6.12101 18.7424 5.63589 19.3588 5.09366 19.9229C4.50047 20.4876 4.20298 20.6052 4.04444 20.6052C4.01238 20.6052 3.92509 20.6052 3.78258 20.4271C3.77776 20.3958 3.77776 20.3639 3.78258 20.3326C3.80396 20.2258 4.10144 19.2941 6.53656 18.0739L6.54191 18.0828Z" fill="#FF3333"/>
</svg>
