<svg width="21" height="20" viewBox="0 0 21 20" fill="none" xmlns="http://www.w3.org/2000/svg">
<path fill-rule="evenodd" clip-rule="evenodd" d="M15.7441 1.07806C16.0695 0.752625 16.5972 0.752625 16.9226 1.07806L19.4226 3.57806C19.748 3.9035 19.748 4.43114 19.4226 4.75657C19.0972 5.08201 18.5695 5.08201 18.2441 4.75657L17.1667 3.67916V6.66732C17.1667 7.12755 16.7936 7.50065 16.3333 7.50065C15.8731 7.50065 15.5 7.12755 15.5 6.66732V3.67916L14.4226 4.75657C14.0972 5.08201 13.5695 5.08201 13.2441 4.75657C12.9186 4.43114 12.9186 3.9035 13.2441 3.57806L15.7441 1.07806ZM6.96559 1.66732H10.9167C11.3769 1.66732 11.75 2.04041 11.75 2.50065C11.75 2.96089 11.3769 3.33398 10.9167 3.33398H7.00001C6.28619 3.33398 5.80095 3.33463 5.42587 3.36528C5.06052 3.39513 4.87369 3.44923 4.74336 3.51564C4.42975 3.67543 4.17478 3.9304 4.01499 4.244C3.94859 4.37433 3.89448 4.56117 3.86463 4.92652C3.83399 5.30159 3.83334 5.78683 3.83334 6.50065V13.5007C3.83334 14.2145 3.83399 14.6997 3.86463 15.0748C3.89448 15.4401 3.94859 15.627 4.01499 15.7573C4.16434 16.0504 4.39684 16.2923 4.68265 16.4531C4.75464 16.3403 4.83168 16.255 4.88239 16.2001C5.00881 16.0633 5.18078 15.907 5.35868 15.7453L12.4487 9.29983C12.5829 9.17787 12.7155 9.05725 12.8369 8.96262C12.9719 8.85741 13.1392 8.74642 13.353 8.67698C13.6536 8.57937 13.9757 8.5692 14.2818 8.64768C14.4995 8.70351 14.6735 8.80373 14.8149 8.90022C14.942 8.98701 15.082 9.09902 15.2235 9.21228L17.5731 11.092C17.5913 11.1065 17.6093 11.1209 17.6271 11.1351C17.889 11.3442 18.1195 11.5283 18.2999 11.7581C18.5246 12.0443 18.684 12.3761 18.7672 12.7303C18.834 13.0148 18.8337 13.3097 18.8334 13.6449C18.8334 13.6677 18.8333 13.6907 18.8333 13.714V13.7434C18.8333 13.882 18.8333 14.0148 18.833 14.142C18.8332 14.1504 18.8333 14.1588 18.8333 14.1673C18.8333 14.2061 18.8334 14.2443 18.8334 14.282C18.8337 14.9448 18.834 15.437 18.7198 15.8634C18.5849 16.3666 18.3371 16.8217 18.0046 17.2002C17.8855 17.3358 17.7556 17.4616 17.6161 17.5762C17.2548 17.8731 16.8295 18.0953 16.3627 18.2204C15.9364 18.3346 15.4441 18.3344 14.7813 18.334C14.7437 18.334 14.7055 18.334 14.6667 18.334H14.2933C14.2766 18.334 14.2597 18.334 14.2428 18.334H6.96557C6.94547 18.334 6.92547 18.334 6.90558 18.334L6.3595 18.334C6.14632 18.334 5.93943 18.334 5.76592 18.3228C5.59602 18.3173 5.4376 18.3092 5.29015 18.2972C4.82174 18.2589 4.39115 18.1767 3.9867 17.9707C3.3595 17.6511 2.84956 17.1412 2.52998 16.514C2.32391 16.1095 2.24177 15.6789 2.2035 15.2105C2.16665 14.7595 2.16666 14.2059 2.16667 13.5351V6.46623C2.16666 5.79543 2.16665 5.24179 2.2035 4.7908C2.24177 4.32238 2.32391 3.8918 2.52998 3.48735C2.84956 2.86014 3.3595 2.35021 3.9867 2.03063C4.39115 1.82455 4.82174 1.74242 5.29015 1.70415C5.74115 1.6673 6.29478 1.66731 6.96559 1.66732ZM16.825 16.0117C16.9079 15.903 16.9778 15.7838 17.0324 15.6562C17.0812 15.542 17.1214 15.3786 17.1435 15.0637C17.1662 14.7409 17.1667 14.3254 17.1667 13.714C17.1667 13.2709 17.1615 13.1832 17.1446 13.1112C17.1169 12.9932 17.0637 12.8826 16.9889 12.7872C16.9433 12.7291 16.878 12.6702 16.532 12.3934L14.201 10.5286C14.0334 10.3946 13.9436 10.3234 13.8752 10.2767C13.8728 10.2751 13.8704 10.2735 13.8682 10.272C13.8661 10.2736 13.8638 10.2753 13.8615 10.2772C13.7962 10.3281 13.711 10.4048 13.5523 10.5491L6.82222 16.6673C6.87986 16.6673 6.9391 16.6673 7.00001 16.6673H14.2133C14.8247 16.6673 15.2403 16.6668 15.563 16.6442C15.878 16.6221 16.0414 16.5818 16.1555 16.533C16.2853 16.4775 16.4063 16.4062 16.5164 16.3216C16.6324 16.2323 16.7362 16.1281 16.825 16.0117ZM7.58334 6.25065C7.1231 6.25065 6.75001 6.62375 6.75001 7.08398C6.75001 7.54422 7.1231 7.91732 7.58334 7.91732C8.04358 7.91732 8.41667 7.54422 8.41667 7.08398C8.41667 6.62375 8.04358 6.25065 7.58334 6.25065ZM5.08334 7.08398C5.08334 5.70327 6.20263 4.58398 7.58334 4.58398C8.96405 4.58398 10.0833 5.70327 10.0833 7.08398C10.0833 8.4647 8.96405 9.58398 7.58334 9.58398C6.20263 9.58398 5.08334 8.4647 5.08334 7.08398Z" fill="white"/>
</svg>
