<svg width="20" height="20" viewBox="0 0 20 20" fill="none" xmlns="http://www.w3.org/2000/svg">
<path fill-rule="evenodd" clip-rule="evenodd" d="M5.41658 2.49992C5.18647 2.49992 4.99992 2.68647 4.99992 2.91658V7.49992C4.99992 7.96016 4.62682 8.33325 4.16659 8.33325C3.70635 8.33325 3.33325 7.96016 3.33325 7.49992V2.91658C3.33325 1.76599 4.26599 0.833252 5.41658 0.833252C6.56718 0.833252 7.49992 1.76599 7.49992 2.91658V7.49992C7.49992 9.34087 6.00753 10.8333 4.16659 10.8333C2.32564 10.8333 0.833252 9.34087 0.833252 7.49992V4.16658C0.833252 3.70635 1.20635 3.33325 1.66659 3.33325C2.12682 3.33325 2.49992 3.70635 2.49992 4.16658V7.49992C2.49992 8.42039 3.24611 9.16658 4.16659 9.16658C5.08706 9.16658 5.83325 8.42039 5.83325 7.49992V2.91658C5.83325 2.68647 5.6467 2.49992 5.41658 2.49992Z" fill="white"/>
<path d="M3.41316 12.4435C3.05111 12.3888 2.87008 12.3614 2.76737 12.4008C2.66705 12.4393 2.60726 12.4908 2.55422 12.5842C2.49992 12.6799 2.49992 12.8393 2.49992 13.1581V14.3677C2.49991 15.0385 2.4999 15.5921 2.53675 16.0431C2.57502 16.5115 2.65716 16.9421 2.86323 17.3466C3.18281 17.9738 3.69274 18.4837 4.31995 18.8033C4.7244 19.0093 5.15498 19.0915 5.6234 19.1298C6.07439 19.1666 6.62802 19.1666 7.29882 19.1666H12.701C13.3718 19.1666 13.9254 19.1666 14.3764 19.1298C14.8449 19.0915 15.2754 19.0093 15.6799 18.8033C16.3071 18.4837 16.817 17.9738 17.1366 17.3466C17.3427 16.9421 17.4248 16.5115 17.4631 16.0431C17.4999 15.5921 17.4999 15.0385 17.4999 14.3677V5.63215C17.4999 4.96135 17.4999 4.40772 17.4631 3.95673C17.4248 3.48832 17.3427 3.05773 17.1366 2.65328C16.817 2.02608 16.3071 1.51614 15.6799 1.19656C15.2754 0.990489 14.8449 0.908352 14.3764 0.870081C13.9254 0.833233 13.3718 0.833242 12.701 0.833252H9.7836C9.37561 0.833252 9.17162 0.833252 9.07167 0.894237C8.96758 0.957752 8.92488 1.01303 8.88972 1.1298C8.85597 1.24191 8.91903 1.48342 9.04516 1.96643C9.1244 2.26988 9.16658 2.5883 9.16658 2.91659V7.49992C9.16658 10.2613 6.92801 12.4999 4.16659 12.4999C3.91049 12.4999 3.6589 12.4807 3.41316 12.4435Z" fill="white"/>
</svg>
