<svg width="96" height="96" viewBox="0 0 96 96" fill="none" xmlns="http://www.w3.org/2000/svg">
<path fill-rule="evenodd" clip-rule="evenodd" d="M48 8C50.2091 8 52 9.79086 52 12V50.3431L65.1716 37.1716C66.7337 35.6095 69.2663 35.6095 70.8284 37.1716C72.3905 38.7337 72.3905 41.2663 70.8284 42.8284L50.8284 62.8284C49.2663 64.3905 46.7337 64.3905 45.1716 62.8284L25.1716 42.8284C23.6095 41.2663 23.6095 38.7337 25.1716 37.1716C26.7337 35.6095 29.2663 35.6095 30.8284 37.1716L44 50.3431V12C44 9.79086 45.7909 8 48 8ZM12 56C14.2091 56 16 57.7909 16 60V64.8C16 68.2263 16.0031 70.5555 16.1502 72.3559C16.2935 74.1095 16.5532 75.0063 16.872 75.6319C17.6389 77.1372 18.8628 78.3611 20.3681 79.1281C20.9937 79.4468 21.8905 79.7065 23.6442 79.8498C25.4445 79.9969 27.7737 80 31.2 80H64.8C68.2263 80 70.5555 79.9969 72.3559 79.8498C74.1095 79.7065 75.0063 79.4468 75.6319 79.1281C77.1372 78.3611 78.3611 77.1372 79.1281 75.6319C79.4468 75.0063 79.7065 74.1095 79.8498 72.3559C79.9969 70.5555 80 68.2263 80 64.8V60C80 57.7909 81.7909 56 84 56C86.2091 56 88 57.7909 88 60V64.9653C88.0001 68.1851 88.0001 70.8425 87.8232 73.0073C87.6395 75.2557 87.2453 77.3225 86.2561 79.2638C84.7221 82.2744 82.2744 84.7221 79.2638 86.2561C77.3225 87.2453 75.2557 87.6395 73.0073 87.8232C70.8425 88.0001 68.1851 88.0001 64.9653 88H31.0347C27.8149 88.0001 25.1575 88.0001 22.9927 87.8232C20.7443 87.6395 18.6775 87.2453 16.7362 86.2561C13.7256 84.7221 11.2779 82.2744 9.7439 79.2638C8.75474 77.3225 8.36048 75.2557 8.17678 73.0073C7.99991 70.8425 7.99995 68.1851 8 64.9652L8 60C8 57.7909 9.79086 56 12 56Z" fill="#33363D"/>
</svg>
