<svg width="16" height="16" viewBox="0 0 16 16" fill="none" xmlns="http://www.w3.org/2000/svg">
<mask id="mask0_45_2398" style="mask-type:alpha" maskUnits="userSpaceOnUse" x="0" y="0" width="16" height="16">
<rect width="16" height="16" fill="#D9D9D9"/>
</mask>
<g mask="url(#mask0_45_2398)">
<path d="M2.42943 13.1334V2.86662V6.04254V5.659V13.1334ZM4.62946 8.55003H7.39783C7.55367 8.55003 7.68433 8.49729 7.78981 8.39181C7.89516 8.28633 7.94784 8.15567 7.94784 7.99984C7.94784 7.84388 7.89516 7.71328 7.78981 7.60805C7.68433 7.50269 7.55367 7.45001 7.39783 7.45001H4.62946C4.47363 7.45001 4.34303 7.50275 4.23767 7.60823C4.13219 7.71371 4.07945 7.84437 4.07945 8.0002C4.07945 8.15616 4.13219 8.28676 4.23767 8.39199C4.34303 8.49735 4.47363 8.55003 4.62946 8.55003ZM4.62946 11.4834H7.39783C7.55367 11.4834 7.68433 11.4307 7.78981 11.3252C7.89516 11.2197 7.94784 11.089 7.94784 10.9332C7.94784 10.7773 7.89516 10.6467 7.78981 10.5414C7.68433 10.4361 7.55367 10.3834 7.39783 10.3834H4.62946C4.47363 10.3834 4.34303 10.4361 4.23767 10.5416C4.13219 10.6471 4.07945 10.7777 4.07945 10.9336C4.07945 11.0895 4.13219 11.2201 4.23767 11.3254C4.34303 11.4307 4.47363 11.4834 4.62946 11.4834ZM4.62946 5.61665H10.4962C10.652 5.61665 10.7826 5.56391 10.888 5.45844C10.9935 5.35296 11.0462 5.2223 11.0462 5.06646C11.0462 4.91051 10.9935 4.77991 10.888 4.67467C10.7826 4.56932 10.652 4.51664 10.4962 4.51664H4.62946C4.47363 4.51664 4.34303 4.56938 4.23767 4.67486C4.13219 4.78034 4.07945 4.91099 4.07945 5.06683C4.07945 5.22279 4.13219 5.35338 4.23767 5.45862C4.34303 5.56398 4.47363 5.61665 4.62946 5.61665ZM2.65512 14.2334C2.28466 14.2334 1.97109 14.1051 1.71442 13.8484C1.45775 13.5918 1.32942 13.2782 1.32942 12.9077V3.0923C1.32942 2.72184 1.45775 2.40828 1.71442 2.15161C1.97109 1.89494 2.28466 1.7666 2.65512 1.7666H12.4706C12.841 1.7666 13.1546 1.89494 13.4113 2.15161C13.6679 2.40828 13.7963 2.72184 13.7963 3.0923V6.00313C13.7963 6.15896 13.7435 6.28956 13.638 6.39492C13.5326 6.50039 13.4019 6.55313 13.2461 6.55313C13.0901 6.55313 12.9595 6.50039 12.8543 6.39492C12.7489 6.28956 12.6962 6.15896 12.6962 6.00313V3.0923C12.6962 3.03584 12.6727 2.98413 12.6257 2.9372C12.5787 2.89014 12.527 2.86662 12.4706 2.86662H2.65512C2.59865 2.86662 2.54695 2.89014 2.50002 2.9372C2.45296 2.98413 2.42943 3.03584 2.42943 3.0923V12.9077C2.42943 12.9642 2.45296 13.0159 2.50002 13.0628C2.54695 13.1099 2.59865 13.1334 2.65512 13.1334H5.54614C5.70198 13.1334 5.83263 13.1862 5.93811 13.2916C6.04347 13.3971 6.09615 13.5278 6.09615 13.6836C6.09615 13.8396 6.04347 13.9702 5.93811 14.0754C5.83263 14.1808 5.70198 14.2334 5.54614 14.2334H2.65512ZM11.1872 10.5667C10.7303 10.5667 10.3411 10.4059 10.0195 10.0844C9.69797 9.76279 9.53718 9.37357 9.53718 8.9167C9.53718 8.4597 9.69797 8.07048 10.0195 7.74903C10.3411 7.42746 10.7303 7.26668 11.1872 7.26668C11.6442 7.26668 12.0334 7.42746 12.3549 7.74903C12.6764 8.07048 12.8372 8.4597 12.8372 8.9167C12.8372 9.37357 12.6764 9.76279 12.3549 10.0844C12.0334 10.4059 11.6442 10.5667 11.1872 10.5667ZM11.1872 11.6667C11.6497 11.6667 12.1092 11.7114 12.5657 11.8008C13.0222 11.8901 13.4681 12.0241 13.9035 12.2026C14.1486 12.2982 14.3376 12.4549 14.4707 12.6727C14.604 12.8905 14.6706 13.1296 14.6706 13.3901V13.5705C14.6706 13.7584 14.6071 13.9158 14.4801 14.0428C14.353 14.1699 14.1956 14.2334 14.0078 14.2334H8.36676C8.17891 14.2334 8.02148 14.1699 7.89449 14.0428C7.76738 13.9158 7.70382 13.7584 7.70382 13.5705V13.3901C7.70382 13.1296 7.77043 12.8905 7.90366 12.6727C8.03688 12.4549 8.22602 12.2982 8.47108 12.2026C8.89764 12.0241 9.33899 11.8901 9.79513 11.8008C10.2513 11.7114 10.7153 11.6667 11.1872 11.6667Z" fill="#33363D"/>
</g>
</svg>
