<svg width="96" height="96" viewBox="0 0 96 96" fill="none" xmlns="http://www.w3.org/2000/svg">
<path fill-rule="evenodd" clip-rule="evenodd" d="M19.969 20H12C9.79086 20 8 21.7909 8 24C8 26.2091 9.79086 28 12 28H16.2578L18.8246 66.5017C19.026 69.5235 19.1926 72.0241 19.4915 74.0595C19.8026 76.1787 20.2962 78.1152 21.3244 79.92C22.9249 82.7295 25.3392 84.9882 28.2489 86.3983C30.1181 87.3042 32.0832 87.6678 34.2184 87.8373C36.2691 88.0001 38.7753 88.0001 41.8038 88H54.1962C57.2247 88.0001 59.7309 88.0001 61.7816 87.8373C63.9168 87.6678 65.8819 87.3042 67.7511 86.3983C70.6608 84.9882 73.0751 82.7295 74.6756 79.92C75.7038 78.1152 76.1974 76.1787 76.5085 74.0595C76.8074 72.024 76.9741 69.5232 77.1755 66.5012L79.7422 28H84C86.2091 28 88 26.2091 88 24C88 21.7909 86.2091 20 84 20H76.031C76.0077 19.9998 75.9843 19.9998 75.961 20H20.039C20.0157 19.9998 19.9923 19.9998 19.969 20ZM71.7245 28H24.2755L26.7963 65.8111C27.011 69.0311 27.1594 71.2134 27.4066 72.8974C27.6468 74.533 27.9402 75.3714 28.2755 75.96C29.0758 77.3648 30.2829 78.4941 31.7378 79.1992C32.3474 79.4946 33.2034 79.7316 34.8514 79.8624C36.5481 79.9971 38.7354 80 41.9626 80H54.0374C57.2646 80 59.4519 79.9971 61.1486 79.8624C62.7966 79.7316 63.6526 79.4946 64.2622 79.1992C65.7171 78.4941 66.9242 77.3648 67.7245 75.96C68.0598 75.3714 68.3532 74.533 68.5934 72.8974C68.8406 71.2134 68.989 69.0311 69.2037 65.8111L71.7245 28ZM40 38C42.2091 38 44 39.7909 44 42V62C44 64.2091 42.2091 66 40 66C37.7909 66 36 64.2091 36 62V42C36 39.7909 37.7909 38 40 38ZM56 38C58.2091 38 60 39.7909 60 42V62C60 64.2091 58.2091 66 56 66C53.7909 66 52 64.2091 52 62V42C52 39.7909 53.7909 38 56 38Z" fill="#33363D"/>
<path d="M32 12C32 9.79086 33.7909 8 36 8H60C62.2091 8 64 9.79086 64 12C64 14.2091 62.2091 16 60 16H36C33.7909 16 32 14.2091 32 12Z" fill="#33363D"/>
</svg>
