<svg width="20" height="20" viewBox="0 0 20 20" fill="none" xmlns="http://www.w3.org/2000/svg">
<path fill-rule="evenodd" clip-rule="evenodd" d="M6.46599 1.6665H13.5348C14.2056 1.66649 14.7593 1.66649 15.2103 1.70333C15.6787 1.7416 16.1093 1.82374 16.5137 2.02982C17.1409 2.34939 17.6509 2.85933 17.9704 3.48654C18.1765 3.89098 18.2586 4.32157 18.2969 4.78998C18.3338 5.24097 18.3338 5.7946 18.3337 6.4654V11.0343C18.3338 11.7051 18.3338 12.2587 18.2969 12.7097C18.2586 13.1781 18.1765 13.6087 17.9704 14.0131C17.6509 14.6403 17.1409 15.1503 16.5137 15.4699C16.1093 15.6759 15.6787 15.7581 15.2103 15.7963C14.7593 15.8332 14.2056 15.8332 13.5348 15.8332H11.4035C10.8501 15.8332 10.6889 15.8371 10.5423 15.8672C10.3952 15.8974 10.2528 15.9473 10.1191 16.0156C9.98578 16.0838 9.85748 16.1814 9.42533 16.5271L7.41439 18.1358C7.26132 18.2583 7.1053 18.3832 6.96813 18.4739C6.83694 18.5606 6.58257 18.7159 6.25176 18.7162C5.87108 18.7167 5.51096 18.5436 5.27348 18.2461C5.0671 17.9875 5.02943 17.6919 5.0152 17.5353C5.00033 17.3715 5.00036 17.1717 5.0004 16.9756L5.00041 15.8263C4.6739 15.8155 4.3939 15.7882 4.13768 15.7196C2.98737 15.4114 2.08888 14.5129 1.78065 13.3626C1.66641 12.9362 1.66667 12.444 1.66703 11.7812L1.66707 6.46542C1.66706 5.79461 1.66705 5.24098 1.7039 4.78998C1.74217 4.32157 1.82431 3.89098 2.03038 3.48654C2.34996 2.85933 2.8599 2.34939 3.4871 2.02982C3.89155 1.82374 4.32214 1.7416 4.79055 1.70333C5.24154 1.66649 5.79519 1.66649 6.46599 1.6665ZM5.00033 7.08317C5.00033 6.62293 5.37342 6.24984 5.83366 6.24984H10.0003C10.4606 6.24984 10.8337 6.62293 10.8337 7.08317C10.8337 7.54341 10.4606 7.9165 10.0003 7.9165H5.83366C5.37342 7.9165 5.00033 7.54341 5.00033 7.08317ZM5.83366 9.1665C5.37342 9.1665 5.00033 9.5396 5.00033 9.99984C5.00033 10.4601 5.37342 10.8332 5.83366 10.8332H12.5003C12.9606 10.8332 13.3337 10.4601 13.3337 9.99984C13.3337 9.5396 12.9606 9.1665 12.5003 9.1665H5.83366Z" fill="white"/>
</svg>
