<svg width="16" height="16" viewBox="0 0 16 16" fill="none" xmlns="http://www.w3.org/2000/svg">
<mask id="mask0_45_2377" style="mask-type:alpha" maskUnits="userSpaceOnUse" x="0" y="0" width="16" height="16">
<rect width="16" height="16" fill="#D9D9D9"/>
</mask>
<g mask="url(#mask0_45_2377)">
<path d="M12.0502 6.18913L14.7692 3.45891C14.8783 3.34989 15.0078 3.29537 15.1577 3.29537C15.3077 3.29537 15.4396 3.34989 15.5534 3.45891C15.667 3.56793 15.7227 3.69859 15.7204 3.85088C15.7181 4.00317 15.6624 4.13389 15.5534 4.24303L12.5142 7.27502C12.3816 7.40763 12.2269 7.47394 12.0502 7.47394C11.8735 7.47394 11.7188 7.40763 11.5862 7.27502L10.1054 5.79423C9.99637 5.6852 9.9407 5.55687 9.93838 5.40922C9.93605 5.2617 9.99173 5.13104 10.1054 5.01725C10.2163 4.90823 10.3455 4.85372 10.4931 4.85372C10.6408 4.85372 10.7692 4.90823 10.8783 5.01725L12.0502 6.18913ZM5.78016 7.77424C5.07432 7.77424 4.47011 7.52295 3.96753 7.02037C3.46483 6.51766 3.21348 5.91339 3.21348 5.20755C3.21348 4.50172 3.46483 3.89751 3.96753 3.39492C4.47011 2.89222 5.07432 2.64087 5.78016 2.64087C6.486 2.64087 7.09021 2.89222 7.59279 3.39492C8.0955 3.89751 8.34685 4.50172 8.34685 5.20755C8.34685 5.91339 8.0955 6.51766 7.59279 7.02037C7.09021 7.52295 6.486 7.77424 5.78016 7.77424ZM0.280123 12.2449V11.7286C0.280123 11.3695 0.377657 11.0369 0.572725 10.7309C0.767793 10.4248 1.0285 10.1896 1.35483 10.025C2.07961 9.66974 2.81081 9.40323 3.54843 9.22552C4.28605 9.0478 5.02996 8.95895 5.78016 8.95895C6.53037 8.95895 7.27428 9.0478 8.0119 9.22552C8.74951 9.40323 9.48071 9.66974 10.2055 10.025C10.5318 10.1896 10.7925 10.4248 10.9876 10.7309C11.1827 11.0369 11.2802 11.3695 11.2802 11.7286V12.2449C11.2802 12.5541 11.1719 12.8171 10.9552 13.0339C10.7385 13.2506 10.4754 13.359 10.1661 13.359H1.39425C1.0849 13.359 0.821877 13.2506 0.605175 13.0339C0.388474 12.8171 0.280123 12.5541 0.280123 12.2449ZM1.38013 12.259H10.1802V11.7286C10.1802 11.5801 10.1372 11.4426 10.0511 11.3161C9.96508 11.1897 9.8483 11.0865 9.70078 11.0066C9.06888 10.6954 8.42464 10.4597 7.76806 10.2993C7.11136 10.1391 6.44872 10.059 5.78016 10.059C5.1116 10.059 4.44897 10.1391 3.79227 10.2993C3.13568 10.4597 2.49144 10.6954 1.85955 11.0066C1.71203 11.0865 1.59524 11.1897 1.5092 11.3161C1.42315 11.4426 1.38013 11.5801 1.38013 11.7286V12.259ZM5.78016 6.67423C6.1835 6.67423 6.52878 6.53062 6.816 6.24339C7.10323 5.95617 7.24684 5.61089 7.24684 5.20755C7.24684 4.80422 7.10323 4.45894 6.816 4.17171C6.52878 3.88449 6.1835 3.74088 5.78016 3.74088C5.37683 3.74088 5.03155 3.88449 4.74432 4.17171C4.4571 4.45894 4.31349 4.80422 4.31349 5.20755C4.31349 5.61089 4.4571 5.95617 4.74432 6.24339C5.03155 6.53062 5.37683 6.67423 5.78016 6.67423Z" fill="white"/>
</g>
</svg>
