<svg width="21" height="20" viewBox="0 0 21 20" fill="none" xmlns="http://www.w3.org/2000/svg">
<path d="M10.6665 1.66699C15.2688 1.66699 18.9995 5.39766 18.9995 10C18.9995 14.6024 15.2688 18.333 10.6665 18.333C6.06413 18.333 2.3335 14.6024 2.3335 10C2.3335 5.39767 6.06413 1.66699 10.6665 1.66699ZM10.6665 3C6.80051 3 3.6665 6.13404 3.6665 10C3.66651 13.866 6.80051 17 10.6665 17C14.5325 17 17.6665 13.866 17.6665 10C17.6665 6.13404 14.5325 3 10.6665 3ZM9.1958 6.7002C9.45611 6.43989 9.87782 6.43998 10.1382 6.7002L12.9673 9.52832C13.2276 9.78867 13.2276 10.2113 12.9673 10.4717L10.1382 13.2998C9.87783 13.5599 9.45608 13.56 9.1958 13.2998C8.93552 13.0395 8.93567 12.6178 9.1958 12.3574L11.5532 10L9.1958 7.64258C8.9356 7.38223 8.93552 6.9605 9.1958 6.7002Z" fill="#33363D"/>
</svg>
