<svg width="20" height="20" viewBox="0 0 20 20" fill="none" xmlns="http://www.w3.org/2000/svg">
<path fill-rule="evenodd" clip-rule="evenodd" d="M1.66667 4.99935C1.66667 4.53911 2.03976 4.16602 2.5 4.16602H16.6667C17.1269 4.16602 17.5 4.53911 17.5 4.99935C17.5 5.45959 17.1269 5.83268 16.6667 5.83268H2.5C2.03976 5.83268 1.66667 5.45959 1.66667 4.99935ZM1.66667 8.33268C1.66667 7.87244 2.03976 7.49935 2.5 7.49935H13.3333C13.7936 7.49935 14.1667 7.87244 14.1667 8.33268C14.1667 8.79292 13.7936 9.16602 13.3333 9.16602H2.5C2.03976 9.16602 1.66667 8.79292 1.66667 8.33268ZM1.66667 11.666C1.66667 11.2058 2.03976 10.8327 2.5 10.8327H16.6667C17.1269 10.8327 17.5 11.2058 17.5 11.666C17.5 12.1263 17.1269 12.4993 16.6667 12.4993H2.5C2.03976 12.4993 1.66667 12.1263 1.66667 11.666ZM1.66667 14.9993C1.66667 14.5391 2.03976 14.166 2.5 14.166H13.3333C13.7936 14.166 14.1667 14.5391 14.1667 14.9993C14.1667 15.4596 13.7936 15.8327 13.3333 15.8327H2.5C2.03976 15.8327 1.66667 15.4596 1.66667 14.9993Z" fill="#58616A"/>
</svg>
