<svg width="20" height="20" viewBox="0 0 20 20" fill="none" xmlns="http://www.w3.org/2000/svg">
<g clip-path="url(#clip0_782_35232)">
<path d="M4.58337 1.66659C4.58337 1.20635 4.21028 0.833252 3.75004 0.833252C3.2898 0.833252 2.91671 1.20635 2.91671 1.66659V2.91658H1.66671C1.20647 2.91658 0.833374 3.28968 0.833374 3.74992C0.833374 4.21016 1.20647 4.58325 1.66671 4.58325H2.91671V5.83325C2.91671 6.29349 3.2898 6.66658 3.75004 6.66658C4.21028 6.66658 4.58337 6.29349 4.58337 5.83325V4.58325H5.83337C6.29361 4.58325 6.66671 4.21016 6.66671 3.74992C6.66671 3.28968 6.29361 2.91658 5.83337 2.91658H4.58337V1.66659Z" fill="white"/>
<path d="M4.58337 14.1666C4.58337 13.7063 4.21028 13.3333 3.75004 13.3333C3.2898 13.3333 2.91671 13.7063 2.91671 14.1666V15.4166H1.66671C1.20647 15.4166 0.833374 15.7897 0.833374 16.2499C0.833374 16.7102 1.20647 17.0833 1.66671 17.0833H2.91671V18.3333C2.91671 18.7935 3.2898 19.1666 3.75004 19.1666C4.21028 19.1666 4.58337 18.7935 4.58337 18.3333V17.0833H5.83337C6.29361 17.0833 6.66671 16.7102 6.66671 16.2499C6.66671 15.7897 6.29361 15.4166 5.83337 15.4166H4.58337V14.1666Z" fill="white"/>
<path d="M11.6112 2.20077C11.4874 1.87894 11.1782 1.66659 10.8334 1.66659C10.4886 1.66659 10.1794 1.87894 10.0556 2.20077L8.61044 5.95815C8.3601 6.60903 8.28144 6.79658 8.17383 6.94791C8.06587 7.09975 7.93321 7.23241 7.78137 7.34038C7.63004 7.44798 7.44248 7.52665 6.79161 7.77698L3.03422 9.22213C2.7124 9.34591 2.50004 9.65511 2.50004 9.99992C2.50004 10.3447 2.7124 10.6539 3.03422 10.7777L6.79161 12.2229C7.44248 12.4732 7.63004 12.5519 7.78137 12.6595C7.93321 12.7674 8.06587 12.9001 8.17383 13.0519C8.28144 13.2033 8.3601 13.3908 8.61044 14.0417L10.0556 17.7991C10.1794 18.1209 10.4886 18.3333 10.8334 18.3333C11.1782 18.3333 11.4874 18.1209 11.6112 17.7991L13.0563 14.0417C13.3066 13.3908 13.3853 13.2033 13.4929 13.0519C13.6009 12.9001 13.7335 12.7674 13.8854 12.6595C14.0367 12.5519 14.2243 12.4732 14.8751 12.2229L18.6325 10.7777C18.9543 10.6539 19.1667 10.3447 19.1667 9.99992C19.1667 9.65511 18.9543 9.34591 18.6325 9.22213L14.8751 7.77698C14.2243 7.52665 14.0367 7.44798 13.8854 7.34038C13.7335 7.23241 13.6009 7.09975 13.4929 6.94791C13.3853 6.79658 13.3066 6.60903 13.0563 5.95815L11.6112 2.20077Z" fill="white"/>
</g>
<defs>
<clipPath id="clip0_782_35232">
<rect width="20" height="20" fill="white"/>
</clipPath>
</defs>
</svg>
