<svg width="16" height="16" viewBox="0 0 16 16" fill="none" xmlns="http://www.w3.org/2000/svg">
<g clip-path="url(#clip0_337_5587)">
<path fill-rule="evenodd" clip-rule="evenodd" d="M7.99999 1.99935C4.68628 1.99935 1.99999 4.68564 1.99999 7.99935C1.99999 11.3131 4.68628 13.9993 7.99999 13.9993C11.3137 13.9993 14 11.3131 14 7.99935C14 4.68564 11.3137 1.99935 7.99999 1.99935ZM0.666656 7.99935C0.666656 3.94926 3.9499 0.666016 7.99999 0.666016C12.0501 0.666016 15.3333 3.94926 15.3333 7.99935C15.3333 12.0494 12.0501 15.3327 7.99999 15.3327C3.9499 15.3327 0.666656 12.0494 0.666656 7.99935ZM11.4714 5.52794C11.7317 5.78829 11.7317 6.2104 11.4714 6.47075L7.47139 10.4708C7.21104 10.7311 6.78893 10.7311 6.52858 10.4708L4.52859 8.47075C4.26824 8.2104 4.26824 7.78829 4.52859 7.52794C4.78893 7.26759 5.21104 7.26759 5.47139 7.52794L6.99999 9.05654L10.5286 5.52794C10.7889 5.26759 11.211 5.26759 11.4714 5.52794Z" fill="#33363D"/>
</g>
<defs>
<clipPath id="clip0_337_5587">
<rect width="16" height="16" fill="white"/>
</clipPath>
</defs>
</svg>
