<svg width="96" height="96" viewBox="0 0 96 96" fill="none" xmlns="http://www.w3.org/2000/svg">
<path fill-rule="evenodd" clip-rule="evenodd" d="M27.0348 4H68.9652C72.1851 3.99995 74.8425 3.99991 77.0073 4.17678C79.2557 4.36048 81.3225 4.75474 83.2638 5.7439C86.2744 7.27787 88.7221 9.72556 90.2561 12.7362C91.2453 14.6775 91.6395 16.7443 91.8232 18.9927C92.0001 21.1575 92.0001 23.8149 92 27.0347V68.9653C92.0001 72.1851 92.0001 74.8425 91.8232 77.0073C91.6395 79.2557 91.2453 81.3225 90.2561 83.2638C88.7221 86.2744 86.2744 88.7221 83.2638 90.2561C82.5845 90.6023 81.8851 90.8781 81.1597 91.0979C78.1714 92.0033 74.3774 92.0019 69.4644 92.0002C69.2452 92.0001 69.0237 92 68.8 92H27.2C26.9763 92 26.7548 92.0001 26.5356 92.0002C21.6226 92.0019 17.8286 92.0033 14.8403 91.0979C14.1149 90.8781 13.4155 90.6023 12.7362 90.2561C9.72556 88.7221 7.27787 86.2744 5.7439 83.2638C4.75474 81.3225 4.36048 79.2557 4.17678 77.0073C3.99991 74.8425 3.99995 72.1851 4 68.9652V27.0348C3.99995 23.8149 3.99991 21.1575 4.17678 18.9927C4.36048 16.7443 4.75474 14.6775 5.7439 12.7362C7.27787 9.72556 9.72556 7.27787 12.7362 5.7439C14.6775 4.75474 16.7443 4.36048 18.9927 4.17678C21.1575 3.99991 23.8149 3.99995 27.0348 4ZM19.6442 12.1502C17.8905 12.2935 16.9937 12.5532 16.3681 12.872C14.8628 13.6389 13.6389 14.8628 12.872 16.3681C12.5532 16.9937 12.2935 17.8905 12.1502 19.6442C12.0031 21.4445 12 23.7737 12 27.2V68.8C12 72.2263 12.0031 74.5555 12.1502 76.3559C12.2541 77.6279 12.4193 78.4491 12.6239 79.043C14.5214 71.6182 20.5197 65.8918 28.0982 64.3843C30.0374 63.9986 32.2666 63.9991 35.537 63.9999C35.689 64 35.8434 64 36 64H60C60.1567 64 60.311 64 60.463 63.9999C63.7334 63.9991 65.9626 63.9986 67.9018 64.3843C75.4803 65.8918 81.4786 71.6182 83.3761 79.043C83.5807 78.4491 83.7459 77.6279 83.8498 76.3559C83.9969 74.5555 84 72.2263 84 68.8V27.2C84 23.7737 83.9969 21.4445 83.8498 19.6442C83.7065 17.8905 83.4468 16.9937 83.1281 16.3681C82.3611 14.8628 81.1372 13.6389 79.6319 12.872C79.0063 12.5532 78.1095 12.2935 76.3559 12.1502C74.5555 12.0031 72.2263 12 68.8 12H27.2C23.7737 12 21.4445 12.0031 19.6442 12.1502ZM75.9673 83.8803C75.9361 82.8355 75.8773 82.2011 75.7694 81.6589C74.8225 76.8986 71.1014 73.1775 66.3411 72.2306C65.2793 72.0194 63.909 72 60 72H36C32.091 72 30.7207 72.0194 29.6589 72.2306C24.8986 73.1775 21.1775 76.8986 20.2306 81.6589C20.1227 82.2011 20.0639 82.8355 20.0327 83.8803C21.6606 83.986 23.8978 84 27.2 84H68.8C72.1022 84 74.3394 83.986 75.9673 83.8803ZM48 26C41.3726 26 36 31.3726 36 38C36 44.6274 41.3726 50 48 50C54.6274 50 60 44.6274 60 38C60 31.3726 54.6274 26 48 26ZM28 38C28 26.9543 36.9543 18 48 18C59.0457 18 68 26.9543 68 38C68 49.0457 59.0457 58 48 58C36.9543 58 28 49.0457 28 38Z" fill="#33363D"/>
</svg>
