<svg width="96" height="96" viewBox="0 0 96 96" fill="none" xmlns="http://www.w3.org/2000/svg">
<path fill-rule="evenodd" clip-rule="evenodd" d="M45.1716 13.1716C46.7337 11.6095 49.2663 11.6095 50.8284 13.1716L70.8284 33.1716C72.3905 34.7337 72.3905 37.2663 70.8284 38.8284C69.2663 40.3905 66.7337 40.3905 65.1716 38.8284L48 21.6569L30.8284 38.8284C29.2663 40.3905 26.7337 40.3905 25.1716 38.8284C23.6095 37.2663 23.6095 34.7337 25.1716 33.1716L45.1716 13.1716ZM25.1716 57.1716C26.7337 55.6095 29.2663 55.6095 30.8284 57.1716L48 74.3431L65.1716 57.1716C66.7337 55.6095 69.2663 55.6095 70.8284 57.1716C72.3905 58.7337 72.3905 61.2663 70.8284 62.8284L50.8284 82.8284C49.2663 84.3905 46.7337 84.3905 45.1716 82.8284L25.1716 62.8284C23.6095 61.2663 23.6095 58.7337 25.1716 57.1716Z" fill="#33363D"/>
</svg>
