<svg width="20" height="20" viewBox="0 0 20 20" fill="none" xmlns="http://www.w3.org/2000/svg">
<path fill-rule="evenodd" clip-rule="evenodd" d="M5.83333 10.834C5.83333 10.3737 6.20643 10.0007 6.66667 10.0007H13.3333C13.7936 10.0007 14.1667 10.3737 14.1667 10.834C14.1667 11.2942 13.7936 11.6673 13.3333 11.6673H6.66667C6.20643 11.6673 5.83333 11.2942 5.83333 10.834ZM5.83333 14.1673C5.83333 13.7071 6.20643 13.334 6.66667 13.334H11.6667C12.1269 13.334 12.5 13.7071 12.5 14.1673C12.5 14.6276 12.1269 15.0007 11.6667 15.0007H6.66667C6.20643 15.0007 5.83333 14.6276 5.83333 14.1673Z" fill="#8A949E"/>
<path fill-rule="evenodd" clip-rule="evenodd" d="M6.96602 0.833985L11.6667 0.833985C11.8877 0.833985 12.0996 0.921783 12.2559 1.07806L17.2559 6.07806C17.4122 6.23434 17.5 6.4463 17.5 6.66732V14.7013C17.5 15.3141 17.5 15.8241 17.466 16.2403C17.4306 16.674 17.3541 17.0789 17.1594 17.461C16.8598 18.049 16.3817 18.5271 15.7937 18.8267C15.4116 19.0214 15.0067 19.0979 14.573 19.1333C14.1568 19.1673 13.6468 19.1673 13.034 19.1673H6.966C6.35319 19.1673 5.84325 19.1673 5.42698 19.1333C4.9933 19.0979 4.58844 19.0214 4.20628 18.8267C3.61827 18.5271 3.14021 18.049 2.84061 17.461C2.64588 17.0789 2.56942 16.674 2.53399 16.2403C2.49998 15.8241 2.49999 15.3141 2.5 14.7013V5.30001C2.49999 4.68719 2.49998 4.17724 2.53399 3.76096C2.56942 3.32729 2.64588 2.92243 2.84061 2.54026C3.14021 1.95226 3.61827 1.47419 4.20628 1.17459C4.58844 0.979868 4.9933 0.903407 5.42698 0.867975C5.84326 0.833964 6.3532 0.833973 6.96602 0.833985ZM5.5627 2.52911C5.23209 2.55612 5.07098 2.60455 4.96293 2.6596C4.68853 2.79942 4.46543 3.02251 4.32562 3.29692C4.27056 3.40497 4.22213 3.56608 4.19512 3.89668C4.16732 4.23702 4.16667 4.67851 4.16667 5.33398V14.6673C4.16667 15.3228 4.16732 15.7643 4.19512 16.1046C4.22213 16.4352 4.27056 16.5963 4.32562 16.7044C4.46543 16.9788 4.68853 17.2019 4.96293 17.3417C5.07098 17.3968 5.23209 17.4452 5.5627 17.4722C5.90303 17.5 6.34452 17.5007 7 17.5007H13C13.6555 17.5007 14.097 17.5 14.4373 17.4722C14.7679 17.4452 14.929 17.3968 15.0371 17.3417C15.3115 17.2019 15.5346 16.9788 15.6744 16.7044C15.7294 16.5963 15.7779 16.4352 15.8049 16.1046C15.8327 15.7643 15.8333 15.3228 15.8333 14.6673V7.50065H12.5C11.5795 7.50065 10.8333 6.75446 10.8333 5.83398V2.50065H7C6.34452 2.50065 5.90303 2.5013 5.5627 2.52911ZM12.5 3.67916V5.83398H14.6548L12.5 3.67916Z" fill="#8A949E"/>
</svg>
