<svg width="96" height="96" viewBox="0 0 96 96" fill="none" xmlns="http://www.w3.org/2000/svg">
<path fill-rule="evenodd" clip-rule="evenodd" d="M21.1716 21.1716C22.7337 19.6095 25.2663 19.6095 26.8284 21.1716L48 42.3431L69.1716 21.1716C70.7337 19.6095 73.2663 19.6095 74.8284 21.1716C76.3905 22.7337 76.3905 25.2663 74.8284 26.8284L53.6569 48L74.8284 69.1716C76.3905 70.7337 76.3905 73.2663 74.8284 74.8284C73.2663 76.3905 70.7337 76.3905 69.1716 74.8284L48 53.6569L26.8284 74.8284C25.2663 76.3905 22.7337 76.3905 21.1716 74.8284C19.6095 73.2663 19.6095 70.7337 21.1716 69.1716L42.3431 48L21.1716 26.8284C19.6095 25.2663 19.6095 22.7337 21.1716 21.1716Z" fill="#33363D"/>
</svg>
