<svg width="20" height="20" viewBox="0 0 20 20" fill="none" xmlns="http://www.w3.org/2000/svg">
<path fill-rule="evenodd" clip-rule="evenodd" d="M6.66667 6.66602C6.20643 6.66602 5.83334 7.03911 5.83334 7.49935C5.83334 7.95959 6.20643 8.33268 6.66667 8.33268C7.12691 8.33268 7.5 7.95959 7.5 7.49935C7.5 7.03911 7.12691 6.66602 6.66667 6.66602ZM4.16667 7.49935C4.16667 6.11864 5.28596 4.99935 6.66667 4.99935C8.04738 4.99935 9.16667 6.11864 9.16667 7.49935C9.16667 8.88006 8.04738 9.99935 6.66667 9.99935C5.28596 9.99935 4.16667 8.88006 4.16667 7.49935ZM14.485 8.75943C14.8197 8.65067 15.1803 8.65067 15.515 8.75943C15.7565 8.83788 15.9414 8.97085 16.0871 9.09455C16.2198 9.20719 16.3646 9.35204 16.5133 9.50078L18.9226 11.9101C19.248 12.2355 19.248 12.7632 18.9226 13.0886C18.5972 13.414 18.0695 13.414 17.7441 13.0886L15.3536 10.6981C15.1788 10.5233 15.0828 10.4282 15.0084 10.3651C15.0055 10.3626 15.0027 10.3602 15 10.358C14.9973 10.3602 14.9945 10.3626 14.9916 10.3651C14.9172 10.4282 14.8212 10.5233 14.6464 10.6981L12.8452 12.4993L16.9925 16.6467C17.318 16.9721 17.318 17.4998 16.9925 17.8252C16.6671 18.1506 16.1394 18.1506 15.814 17.8252L10.3536 12.3647C10.1788 12.19 10.0828 12.0949 10.0084 12.0318C10.0055 12.0293 10.0027 12.0269 10 12.0247C9.99733 12.0269 9.99452 12.0293 9.99156 12.0318C9.91725 12.0949 9.82118 12.19 9.64645 12.3647L4.14934 17.8619C3.8239 18.1873 3.29626 18.1873 2.97082 17.8619C2.64539 17.5364 2.64539 17.0088 2.97082 16.6833L8.46794 11.1862C8.47421 11.18 8.48047 11.1737 8.48673 11.1674C8.63543 11.0187 8.78025 10.8739 8.91293 10.7612C9.05863 10.6375 9.24354 10.5045 9.48497 10.4261C9.81971 10.3173 10.1803 10.3173 10.515 10.4261C10.7565 10.5045 10.9414 10.6375 11.0871 10.7612C11.2198 10.8739 11.3646 11.0187 11.5133 11.1674L11.6667 11.3208L13.4867 9.50078C13.6354 9.35204 13.7802 9.20719 13.9129 9.09455C14.0586 8.97085 14.2435 8.83788 14.485 8.75943Z" fill="#58616A"/>
<path fill-rule="evenodd" clip-rule="evenodd" d="M5.63225 1.66602H14.3678C15.0386 1.66601 15.5922 1.666 16.0432 1.70284C16.5116 1.74112 16.9422 1.82325 17.3466 2.02933C17.9738 2.34891 18.4838 2.85884 18.8034 3.48605C19.0094 3.89049 19.0916 4.32108 19.1298 4.78949C19.1667 5.24049 19.1667 5.79411 19.1667 6.46491V13.5338C19.1667 14.2046 19.1667 14.7582 19.1298 15.2092C19.0916 15.6776 19.0094 16.1082 18.8034 16.5127C18.4838 17.1399 17.9738 17.6498 17.3466 17.9694C16.9422 18.1754 16.5116 18.2576 16.0432 18.2959C15.5922 18.3327 15.0386 18.3327 14.3678 18.3327H5.63223C4.96143 18.3327 4.40781 18.3327 3.95681 18.2959C3.4884 18.2576 3.05781 18.1754 2.65337 17.9694C2.02616 17.6498 1.51623 17.1399 1.19665 16.5127C0.990573 16.1082 0.908436 15.6776 0.870165 15.2092C0.833317 14.7582 0.833326 14.2046 0.833336 13.5338V6.46493C0.833326 5.79412 0.833317 5.24049 0.870165 4.78949C0.908436 4.32108 0.990573 3.89049 1.19665 3.48605C1.51623 2.85884 2.02616 2.34891 2.65337 2.02933C3.05781 1.82325 3.4884 1.74112 3.95681 1.70284C4.40781 1.666 4.96144 1.66601 5.63225 1.66602ZM4.09253 3.36398C3.72719 3.39383 3.54035 3.44793 3.41002 3.51434C3.09642 3.67413 2.84145 3.9291 2.68166 4.2427C2.61525 4.37303 2.56115 4.55987 2.5313 4.92521C2.50065 5.30029 2.5 5.78553 2.5 6.49935V13.4994C2.5 14.2132 2.50065 14.6984 2.5313 15.0735C2.56115 15.4388 2.61525 15.6257 2.68166 15.756C2.84145 16.0696 3.09642 16.3246 3.41002 16.4844C3.54035 16.5508 3.72719 16.6049 4.09253 16.6347C4.46761 16.6654 4.95285 16.666 5.66667 16.666H14.3333C15.0472 16.666 15.5324 16.6654 15.9075 16.6347C16.2728 16.6049 16.4597 16.5508 16.59 16.4844C16.9036 16.3246 17.1586 16.0696 17.3183 15.756C17.3848 15.6257 17.4389 15.4388 17.4687 15.0735C17.4994 14.6984 17.5 14.2132 17.5 13.4994V6.49935C17.5 5.78553 17.4994 5.30029 17.4687 4.92521C17.4389 4.55987 17.3848 4.37303 17.3183 4.2427C17.1586 3.9291 16.9036 3.67413 16.59 3.51434C16.4597 3.44793 16.2728 3.39383 15.9075 3.36398C15.5324 3.33333 15.0472 3.33268 14.3333 3.33268H5.66667C4.95285 3.33268 4.46761 3.33333 4.09253 3.36398Z" fill="#58616A"/>
</svg>
