<svg width="16" height="16" viewBox="0 0 16 16" fill="none" xmlns="http://www.w3.org/2000/svg">
<path fill-rule="evenodd" clip-rule="evenodd" d="M5.17247 1.33398L10.6667 1.33398C11.0349 1.33398 11.3333 1.63246 11.3333 2.00065C11.3333 2.36884 11.0349 2.66732 10.6667 2.66732H5.2C4.62895 2.66732 4.24075 2.66784 3.94069 2.69235C3.64841 2.71623 3.49894 2.75952 3.39468 2.81264C3.1438 2.94047 2.93982 3.14445 2.81199 3.39533C2.75886 3.4996 2.71558 3.64907 2.6917 3.94134C2.66718 4.2414 2.66667 4.6296 2.66667 5.20065V10.8007C2.66667 11.3717 2.66718 11.7599 2.6917 12.06C2.71558 12.3522 2.75886 12.5017 2.81199 12.606C2.93982 12.8569 3.1438 13.0608 3.39468 13.1887C3.49894 13.2418 3.64841 13.2851 3.94069 13.3089C4.24075 13.3335 4.62895 13.334 5.2 13.334H10.8C11.3711 13.334 11.7592 13.3335 12.0593 13.3089C12.3516 13.2851 12.5011 13.2418 12.6053 13.1887C12.8562 13.0608 13.0602 12.8569 13.188 12.606C13.2411 12.5017 13.2844 12.3522 13.3083 12.06C13.3328 11.7599 13.3333 11.3717 13.3333 10.8007V8.00065C13.3333 7.63246 13.6318 7.33398 14 7.33398C14.3682 7.33398 14.6667 7.63246 14.6667 8.00065V10.8282C14.6667 11.3648 14.6667 11.8077 14.6372 12.1685C14.6066 12.5433 14.5409 12.8877 14.376 13.2113C14.1204 13.7131 13.7124 14.121 13.2106 14.3767C12.8871 14.5415 12.5426 14.6072 12.1679 14.6379C11.8071 14.6673 11.3642 14.6673 10.8275 14.6673H5.17245C4.63581 14.6673 4.19291 14.6673 3.83212 14.6379C3.45738 14.6072 3.11291 14.5415 2.78936 14.3767C2.28759 14.121 1.87964 13.7131 1.62398 13.2113C1.45912 12.8877 1.39341 12.5433 1.3628 12.1685C1.33332 11.8077 1.33332 11.3648 1.33333 10.8282V5.17312C1.33332 4.63647 1.33332 4.19356 1.3628 3.83277C1.39341 3.45804 1.45912 3.11357 1.62398 2.79001C1.87964 2.28824 2.28759 1.8803 2.78936 1.62463C3.11291 1.45977 3.45738 1.39406 3.83212 1.36345C4.19291 1.33397 4.63582 1.33398 5.17247 1.33398ZM14.1953 2.19591C14.4556 1.93556 14.8777 1.93556 15.1381 2.19591C15.3984 2.45626 15.3984 2.87837 15.1381 3.13872L8.4714 9.80539C8.21105 10.0657 7.78894 10.0657 7.52859 9.80539L5.52859 7.80539C5.26825 7.54504 5.26825 7.12293 5.52859 6.86258C5.78894 6.60223 6.21105 6.60223 6.4714 6.86258L8 8.39118L14.1953 2.19591Z" fill="#33363D"/>
</svg>
