<svg width="20" height="20" viewBox="0 0 20 20" fill="none" xmlns="http://www.w3.org/2000/svg">
<g clip-path="url(#clip0_35_39602)">
<path fill-rule="evenodd" clip-rule="evenodd" d="M14.8275 1.49426C15.8432 0.478473 17.4902 0.478475 18.506 1.49427C19.5218 2.51006 19.5218 4.15699 18.506 5.17278L10.537 13.1417C10.5205 13.1582 10.5042 13.1746 10.488 13.1908C10.2484 13.4308 10.0372 13.6424 9.7826 13.7985C9.55892 13.9355 9.31506 14.0365 9.05997 14.0978C8.76959 14.1675 8.47063 14.1672 8.13155 14.1669C8.1086 14.1669 8.08547 14.1669 8.06214 14.1669H6.66669C6.20645 14.1669 5.83335 13.7938 5.83335 13.3335V11.9381C5.83335 11.9148 5.83333 11.8916 5.83331 11.8687C5.83299 11.5296 5.83272 11.2306 5.90243 10.9403C5.96367 10.6852 6.06468 10.4413 6.20175 10.2176C6.35778 9.96301 6.56938 9.75182 6.80937 9.51227C6.82561 9.49606 6.84199 9.47971 6.85848 9.46322L14.8275 1.49426ZM17.3274 2.67278C16.9625 2.30786 16.3709 2.30786 16.006 2.67278L8.03699 10.6417C7.72069 10.958 7.66237 11.0239 7.62282 11.0885C7.57713 11.163 7.54346 11.2443 7.52304 11.3293C7.50537 11.4029 7.50002 11.4908 7.50002 11.9381V12.5002H8.06214C8.50945 12.5002 8.59729 12.4948 8.67089 12.4772C8.75592 12.4567 8.83721 12.4231 8.91177 12.3774C8.9763 12.3378 9.0422 12.2795 9.3585 11.9632L17.3274 3.99427C17.6924 3.62935 17.6924 3.0377 17.3274 2.67278ZM5.63229 2.50019L9.16671 2.50019C9.62695 2.50019 10 2.87329 10 3.33352C10 3.79376 9.62695 4.16686 9.16671 4.16686H5.66671C4.95289 4.16686 4.46765 4.1675 4.09257 4.19815C3.72723 4.228 3.54039 4.2821 3.41006 4.34851C3.09645 4.5083 2.84149 4.76327 2.6817 5.07687C2.61529 5.20721 2.56118 5.39404 2.53133 5.75939C2.50069 6.13446 2.50004 6.61971 2.50004 7.33352V14.3335C2.50004 15.0473 2.50069 15.5326 2.53133 15.9077C2.56118 16.273 2.61529 16.4598 2.6817 16.5902C2.84149 16.9038 3.09645 17.1587 3.41006 17.3185C3.54039 17.3849 3.72723 17.439 4.09257 17.4689C4.46765 17.4995 4.95289 17.5002 5.66671 17.5002H12.6667C13.3805 17.5002 13.8658 17.4995 14.2408 17.4689C14.6062 17.439 14.793 17.3849 14.9234 17.3185C15.237 17.1587 15.4919 16.9038 15.6517 16.5902C15.7181 16.4598 15.7722 16.273 15.8021 15.9077C15.8327 15.5326 15.8334 15.0473 15.8334 14.3335V10.8335C15.8334 10.3733 16.2065 10.0002 16.6667 10.0002C17.1269 10.0002 17.5 10.3733 17.5 10.8335V14.368C17.5001 15.0388 17.5001 15.5924 17.4632 16.0434C17.4249 16.5118 17.3428 16.9424 17.1367 17.3468C16.8172 17.974 16.3072 18.484 15.68 18.8035C15.2756 19.0096 14.845 19.0918 14.3766 19.13C13.9256 19.1669 13.3719 19.1669 12.7011 19.1669H5.63227C4.96147 19.1669 4.40784 19.1669 3.95685 19.13C3.48844 19.0918 3.05785 19.0096 2.65341 18.8035C2.0262 18.484 1.51626 17.974 1.19669 17.3468C0.990611 16.9424 0.908474 16.5118 0.870203 16.0434C0.833355 15.5924 0.833364 15.0387 0.833374 14.3679V7.29911C0.833364 6.6283 0.833355 6.07466 0.870203 5.62367C0.908474 5.15525 0.990611 4.72467 1.19669 4.32022C1.51626 3.69301 2.0262 3.18308 2.65341 2.8635C3.05785 2.65743 3.48844 2.57529 3.95685 2.53702C4.40785 2.50017 4.96148 2.50018 5.63229 2.50019Z" fill="#33363D"/>
</g>
<defs>
<clipPath id="clip0_35_39602">
<rect width="20" height="20" fill="white"/>
</clipPath>
</defs>
</svg>
