<svg width="20" height="20" viewBox="0 0 20 20" fill="none" xmlns="http://www.w3.org/2000/svg">
<path fill-rule="evenodd" clip-rule="evenodd" d="M12.4808 2.50023H8.33333C7.87309 2.50023 7.49999 2.87332 7.49999 3.33356C7.49999 3.7938 7.87309 4.16689 8.33333 4.16689H11.2975L6.92249 15.8336H4.16666C3.70642 15.8336 3.33333 16.2067 3.33333 16.6669C3.33333 17.1271 3.70642 17.5002 4.16666 17.5002H7.48055C7.49346 17.5005 7.50634 17.5005 7.51919 17.5002H11.6667C12.1269 17.5002 12.5 17.1271 12.5 16.6669C12.5 16.2067 12.1269 15.8336 11.6667 15.8336H8.7025L13.0775 4.16689H15.8333C16.2936 4.16689 16.6667 3.7938 16.6667 3.33356C16.6667 2.87332 16.2936 2.50023 15.8333 2.50023H12.5194C12.5065 2.49992 12.4936 2.49993 12.4808 2.50023Z" fill="#58616A"/>
</svg>
