<svg width="96" height="96" viewBox="0 0 96 96" fill="none" xmlns="http://www.w3.org/2000/svg">
<path fill-rule="evenodd" clip-rule="evenodd" d="M8 24C8 19.5817 11.5817 16 16 16C20.4183 16 24 19.5817 24 24C24 28.4183 20.4183 32 16 32C11.5817 32 8 28.4183 8 24ZM32 24C32 21.7909 33.7909 20 36 20L84 20C86.2091 20 88 21.7909 88 24C88 26.2091 86.2091 28 84 28L36 28C33.7909 28 32 26.2091 32 24ZM8 48C8 43.5817 11.5817 40 16 40C20.4183 40 24 43.5817 24 48C24 52.4183 20.4183 56 16 56C11.5817 56 8 52.4183 8 48ZM32 48C32 45.7909 33.7909 44 36 44L84 44C86.2091 44 88 45.7909 88 48C88 50.2091 86.2091 52 84 52L36 52C33.7909 52 32 50.2091 32 48ZM8 72C8 67.5817 11.5817 64 16 64C20.4183 64 24 67.5817 24 72C24 76.4183 20.4183 80 16 80C11.5817 80 8 76.4183 8 72ZM32 72C32 69.7909 33.7909 68 36 68L84 68C86.2091 68 88 69.7909 88 72C88 74.2091 86.2091 76 84 76L36 76C33.7909 76 32 74.2091 32 72Z" fill="#33363D"/>
</svg>
