<svg width="20" height="20" viewBox="0 0 20 20" fill="none" xmlns="http://www.w3.org/2000/svg">
<path d="M10 7.91667C10.4602 7.91667 10.8333 8.28976 10.8333 8.75V12.6518L12.0551 11.4301C12.3805 11.1047 12.9082 11.1046 13.2336 11.4301C13.559 11.7555 13.559 12.283 13.2336 12.6084L10.5894 15.2529C10.264 15.5783 9.73625 15.5782 9.41081 15.2529L6.76656 12.6084C6.44114 12.283 6.44114 11.7555 6.76656 11.4301C7.09199 11.1046 7.61951 11.1046 7.94495 11.4301L9.16667 12.6518V8.75C9.16667 8.28976 9.53976 7.91667 10 7.91667Z" fill="#8A949E"/>
<path fill-rule="evenodd" clip-rule="evenodd" d="M15.0633 1.25102C15.8316 1.27387 16.5486 1.64942 17.0048 2.27153L18.285 4.06549C18.5874 4.48931 18.75 4.997 18.75 5.51767V15.2083L18.749 15.2944C18.7041 17.067 17.2753 18.4957 15.5027 18.5406L15.4167 18.5417H4.58333L4.49727 18.5406C2.7247 18.4957 1.29594 17.067 1.25102 15.2944L1.25 15.2083V5.51706C1.25 4.99624 1.41265 4.48843 1.71525 4.06454L2.9952 2.27153C3.46613 1.62937 4.21486 1.25001 5.01119 1.25H14.9888L15.0633 1.25102ZM2.91667 15.2083C2.91667 16.1288 3.66286 16.875 4.58333 16.875H15.4167C16.3371 16.875 17.0833 16.1288 17.0833 15.2083V6.45833H2.91667V15.2083ZM5.01119 2.91667C4.74575 2.91668 4.49616 3.04319 4.33919 3.25724L3.21391 4.79167H16.7861L15.6608 3.25724C15.5136 3.05654 15.285 2.93274 15.0382 2.91809L14.9888 2.91667H5.01119Z" fill="#8A949E"/>
</svg>
