<svg width="20" height="20" viewBox="0 0 20 20" fill="none" xmlns="http://www.w3.org/2000/svg">
<path fill-rule="evenodd" clip-rule="evenodd" d="M2.5 4.99935C2.5 4.53911 2.8731 4.16602 3.33333 4.16602H17.5C17.9602 4.16602 18.3333 4.53911 18.3333 4.99935C18.3333 5.45959 17.9602 5.83268 17.5 5.83268H3.33333C2.8731 5.83268 2.5 5.45959 2.5 4.99935ZM5.83333 8.33268C5.83333 7.87244 6.20643 7.49935 6.66667 7.49935H17.5C17.9602 7.49935 18.3333 7.87244 18.3333 8.33268C18.3333 8.79292 17.9602 9.16602 17.5 9.16602H6.66667C6.20643 9.16602 5.83333 8.79292 5.83333 8.33268ZM2.5 11.666C2.5 11.2058 2.8731 10.8327 3.33333 10.8327H17.5C17.9602 10.8327 18.3333 11.2058 18.3333 11.666C18.3333 12.1263 17.9602 12.4993 17.5 12.4993H3.33333C2.8731 12.4993 2.5 12.1263 2.5 11.666ZM5.83333 14.9993C5.83333 14.5391 6.20643 14.166 6.66667 14.166H17.5C17.9602 14.166 18.3333 14.5391 18.3333 14.9993C18.3333 15.4596 17.9602 15.8327 17.5 15.8327H6.66667C6.20643 15.8327 5.83333 15.4596 5.83333 14.9993Z" fill="#58616A"/>
</svg>
