<svg width="96" height="96" viewBox="0 0 96 96" fill="none" xmlns="http://www.w3.org/2000/svg">
<path fill-rule="evenodd" clip-rule="evenodd" d="M46.3884 4.74018C47.4517 4.5215 48.5483 4.5215 49.6116 4.74018C50.8407 4.99297 51.9393 5.60828 52.8126 6.09746C52.894 6.14301 52.9733 6.18747 53.0507 6.23044L82.6507 22.6749C82.7325 22.7203 82.8168 22.7668 82.9032 22.8144C83.8278 23.3236 84.9902 23.9639 85.8829 24.9326C86.6547 25.7701 87.2388 26.7628 87.5961 27.8442C88.0094 29.095 88.0046 30.4221 88.0007 31.4776C88.0004 31.5762 88 31.6725 88 31.7661V64.2346C88 64.3282 88.0004 64.4244 88.0007 64.5231C88.0046 65.5786 88.0094 66.9057 87.5961 68.1565C87.2388 69.2379 86.6547 70.2306 85.8829 71.0681C84.9902 72.0368 83.8278 72.6771 82.9033 73.1863C82.8169 73.2339 82.7325 73.2803 82.6507 73.3258L53.0507 89.7702C52.9734 89.8132 52.894 89.8577 52.8127 89.9032C51.9393 90.3924 50.8407 91.0077 49.6116 91.2605C48.5483 91.4792 47.4517 91.4792 46.3884 91.2605C45.1593 91.0077 44.0608 90.3924 43.1874 89.9032C43.1061 89.8577 43.0267 89.8132 42.9493 89.7702L13.3493 73.3258C13.2675 73.2803 13.1832 73.2339 13.0968 73.1863C12.1723 72.6771 11.0098 72.0368 10.1171 71.0681C9.34527 70.2306 8.76119 69.2379 8.40389 68.1565C7.99062 66.9057 7.99545 65.5786 7.9993 64.5231C7.99966 64.4244 8.00001 64.3282 8.00001 64.2346V31.7661C8.00001 31.6725 7.99966 31.5762 7.9993 31.4776C7.99545 30.4221 7.99062 29.095 8.40389 27.8442C8.76119 26.7628 9.34527 25.7701 10.1171 24.9326C11.0098 23.9639 12.1722 23.3236 13.0968 22.8144C13.1832 22.7668 13.2675 22.7203 13.3493 22.6749L42.9493 6.23044C43.0267 6.18746 43.1061 6.143 43.1874 6.09744C44.0607 5.60827 45.1593 4.99297 46.3884 4.74018ZM48 12.5963C47.9939 12.5992 47.9875 12.6022 47.9809 12.6054C47.7501 12.7168 47.4406 12.8869 46.8345 13.2237L17.2345 29.6681C16.5947 30.0236 16.268 30.207 16.0388 30.353C16.0321 30.3573 16.0256 30.3614 16.0195 30.3654C16.019 30.3727 16.0185 30.3804 16.018 30.3883C16.0017 30.6596 16 31.0342 16 31.7661V64.2346C16 64.9665 16.0017 65.3411 16.018 65.6123C16.0185 65.6203 16.019 65.628 16.0195 65.6353C16.0256 65.6392 16.0321 65.6434 16.0388 65.6477C16.268 65.7937 16.5947 65.9771 17.2345 66.3325L46.8345 82.777C47.4406 83.1137 47.7501 83.2839 47.9809 83.3952C47.9875 83.3984 47.9939 83.4015 48 83.4044C48.0061 83.4015 48.0125 83.3984 48.0191 83.3952C48.25 83.2839 48.5594 83.1137 49.1656 82.777L78.7655 66.3325C79.4054 65.9771 79.732 65.7937 79.9612 65.6477C79.9679 65.6434 79.9744 65.6392 79.9806 65.6353C79.981 65.628 79.9815 65.6203 79.982 65.6123C79.9983 65.3411 80 64.9665 80 64.2346V31.7661C80 31.0342 79.9983 30.6596 79.982 30.3883C79.9815 30.3803 79.981 30.3727 79.9806 30.3654C79.9744 30.3614 79.9679 30.3573 79.9612 30.353C79.732 30.207 79.4054 30.0236 78.7655 29.6681L49.1656 13.2237C48.5594 12.8869 48.25 12.7168 48.0191 12.6054C48.0125 12.6022 48.0061 12.5992 48 12.5963ZM44 32.0003C44 29.7912 45.7909 28.0003 48 28.0003H48.04C50.2492 28.0003 52.04 29.7912 52.04 32.0003C52.04 34.2095 50.2492 36.0003 48.04 36.0003H48C45.7909 36.0003 44 34.2095 44 32.0003ZM48 44.0003C50.2092 44.0003 52 45.7912 52 48.0003V64.0003C52 66.2095 50.2092 68.0003 48 68.0003C45.7909 68.0003 44 66.2095 44 64.0003V48.0003C44 45.7912 45.7909 44.0003 48 44.0003Z" fill="#33363D"/>
</svg>
