<svg width="16" height="17" viewBox="0 0 16 17" fill="none" xmlns="http://www.w3.org/2000/svg">
<path d="M8.13282 5.74463C7.96028 6.19322 7.83313 6.53862 7.62566 6.8304C7.4745 7.04297 7.29314 7.23209 7.08741 7.39176L6.99773 7.45833C6.70594 7.66581 6.36055 7.79296 5.91195 7.96549L4.52377 8.49935L5.91195 9.0332C6.36054 9.20574 6.70594 9.33289 6.99773 9.54036L7.08741 9.60693C7.29315 9.76661 7.47451 9.95573 7.62566 10.1683L7.66374 10.2236C7.84928 10.5036 7.97107 10.8335 8.13282 11.2541L8.66667 12.6421L9.20053 11.2541C9.37306 10.8055 9.50021 10.4601 9.70769 10.1683L9.77426 10.0786C9.93393 9.87288 10.123 9.69151 10.3356 9.54036L10.391 9.50228C10.671 9.31674 11.0009 9.19495 11.4214 9.0332L12.8094 8.49935L11.4214 7.96549C10.9728 7.79296 10.6274 7.66581 10.3356 7.45833C10.0927 7.28559 9.88043 7.07334 9.70769 6.8304C9.50021 6.53862 9.37306 6.19322 9.20053 5.74463L8.66667 4.35645L8.13282 5.74463ZM15.3333 8.49935C15.3333 8.7752 15.1634 9.02256 14.9059 9.12158L11.9001 10.2777C11.3794 10.4779 11.2293 10.5409 11.1082 10.627C10.9868 10.7133 10.8806 10.8195 10.7943 10.9409C10.7082 11.062 10.6453 11.2121 10.445 11.7327L9.2889 14.7386L9.26856 14.786C9.15876 15.0167 8.92525 15.166 8.66667 15.166C8.39082 15.166 8.14346 14.9961 8.04444 14.7386L6.88835 11.7327C6.68808 11.2121 6.62515 11.062 6.53907 10.9409C6.46349 10.8346 6.37273 10.7402 6.26986 10.6603L6.2251 10.627C6.1343 10.5624 6.02717 10.5109 5.75961 10.4046L5.43327 10.2777L2.42741 9.12158C2.16995 9.02256 2.00001 8.7752 2.00001 8.49935C2.00001 8.2235 2.16995 7.97614 2.42741 7.87712L5.43327 6.72103C5.88886 6.5458 6.06064 6.47561 6.17758 6.40316L6.2251 6.37174C6.33139 6.29617 6.42587 6.20541 6.5057 6.10254L6.53907 6.05778C6.60363 5.96698 6.65517 5.85985 6.7614 5.59228L6.88835 5.26595L8.04444 2.26009C8.14346 2.00263 8.39082 1.83268 8.66667 1.83268C8.94252 1.83268 9.18988 2.00263 9.2889 2.26009L10.445 5.26595C10.6453 5.78665 10.7082 5.93672 10.7943 6.05778C10.8806 6.17924 10.9868 6.28538 11.1082 6.37174C11.2293 6.45783 11.3794 6.52076 11.9001 6.72103L14.9059 7.87712C15.1634 7.97614 15.3333 8.2235 15.3333 8.49935Z" fill="#33363D"/>
<path d="M3.66667 1.83268C3.66667 1.46449 3.36819 1.16602 3.00001 1.16602C2.63182 1.16602 2.33334 1.46449 2.33334 1.83268V2.83268H1.33334C0.965149 2.83268 0.666672 3.13116 0.666672 3.49935C0.666672 3.86754 0.965149 4.16602 1.33334 4.16602H2.33334V5.16602C2.33334 5.5342 2.63182 5.83268 3.00001 5.83268C3.36819 5.83268 3.66667 5.5342 3.66667 5.16602V4.16602H4.66667C5.03486 4.16602 5.33334 3.86754 5.33334 3.49935C5.33334 3.13116 5.03486 2.83268 4.66667 2.83268H3.66667V1.83268Z" fill="#33363D"/>
<path d="M3.66667 11.8327C3.66667 11.4645 3.36819 11.166 3.00001 11.166C2.63182 11.166 2.33334 11.4645 2.33334 11.8327V12.8327H1.33334C0.965149 12.8327 0.666672 13.1312 0.666672 13.4993C0.666672 13.8675 0.965149 14.166 1.33334 14.166H2.33334V15.166C2.33334 15.5342 2.63182 15.8327 3.00001 15.8327C3.36819 15.8327 3.66667 15.5342 3.66667 15.166V14.166H4.66667C5.03486 14.166 5.33334 13.8675 5.33334 13.4993C5.33334 13.1312 5.03486 12.8327 4.66667 12.8327H3.66667V11.8327Z" fill="#33363D"/>
</svg>
