<svg width="20" height="20" viewBox="0 0 20 20" fill="none" xmlns="http://www.w3.org/2000/svg">
<path fill-rule="evenodd" clip-rule="evenodd" d="M1.66667 4.99935C1.66667 4.53911 2.03976 4.16602 2.5 4.16602H17.5C17.9602 4.16602 18.3333 4.53911 18.3333 4.99935C18.3333 5.45959 17.9602 5.83268 17.5 5.83268H2.5C2.03976 5.83268 1.66667 5.45959 1.66667 4.99935ZM4.16667 8.33268C4.16667 7.87244 4.53976 7.49935 5 7.49935H15C15.4602 7.49935 15.8333 7.87244 15.8333 8.33268C15.8333 8.79292 15.4602 9.16602 15 9.16602H5C4.53976 9.16602 4.16667 8.79292 4.16667 8.33268ZM1.66667 11.666C1.66667 11.2058 2.03976 10.8327 2.5 10.8327H17.5C17.9602 10.8327 18.3333 11.2058 18.3333 11.666C18.3333 12.1263 17.9602 12.4993 17.5 12.4993H2.5C2.03976 12.4993 1.66667 12.1263 1.66667 11.666ZM4.16667 14.9993C4.16667 14.5391 4.53976 14.166 5 14.166H15C15.4602 14.166 15.8333 14.5391 15.8333 14.9993C15.8333 15.4596 15.4602 15.8327 15 15.8327H5C4.53976 15.8327 4.16667 15.4596 4.16667 14.9993Z" fill="#58616A"/>
</svg>
