<svg width="96" height="96" viewBox="0 0 96 96" fill="none" xmlns="http://www.w3.org/2000/svg">
<path fill-rule="evenodd" clip-rule="evenodd" d="M20.6458 24H75.3542C77.4628 23.9999 79.2818 23.9999 80.7801 24.1223C82.3615 24.2515 83.9344 24.5368 85.4479 25.3079C87.7058 26.4584 89.5416 28.2942 90.6921 30.5521C91.4633 32.0656 91.7485 33.6385 91.8777 35.2199C92.0001 36.7182 92.0001 38.5372 92 40.6457V55.3543C92.0001 57.4628 92.0001 59.2819 91.8777 60.7801C91.7485 62.3615 91.4633 63.9344 90.6921 65.4479C89.5416 67.7058 87.7058 69.5416 85.4479 70.6921C83.9344 71.4633 82.3615 71.7485 80.7801 71.8777C79.2818 72.0001 77.4627 72.0001 75.3541 72H20.6459C18.5373 72.0001 16.7182 72.0001 15.2199 71.8777C13.6385 71.7485 12.0656 71.4633 10.5521 70.6921C8.29418 69.5416 6.45841 67.7058 5.30793 65.4479C4.53675 63.9344 4.25149 62.3615 4.12228 60.7801C3.99987 59.2818 3.99993 57.4628 4 55.3542V40.6458C3.99993 38.5372 3.99987 36.7182 4.12228 35.2199C4.25149 33.6385 4.53675 32.0656 5.30793 30.5521C6.45841 28.2942 8.29418 26.4584 10.5521 25.3079C12.0656 24.5368 13.6385 24.2515 15.2199 24.1223C16.7182 23.9999 18.5372 23.9999 20.6458 24ZM15.8714 32.0957C14.7847 32.1845 14.3818 32.3352 14.184 32.436C13.4314 32.8195 12.8195 33.4314 12.436 34.184C12.3352 34.3818 12.1845 34.7847 12.0957 35.8714C12.0031 37.0047 12 38.4938 12 40.8V55.2C12 57.5062 12.0031 58.9953 12.0957 60.1287C12.1845 61.2153 12.3352 61.6182 12.436 61.816C12.8195 62.5686 13.4314 63.1805 14.184 63.564C14.3818 63.6648 14.7847 63.8155 15.8714 63.9043C17.0047 63.9969 18.4938 64 20.8 64H75.2C77.5062 64 78.9953 63.9969 80.1287 63.9043C81.2153 63.8155 81.6182 63.6648 81.816 63.564C82.5686 63.1805 83.1805 62.5686 83.564 61.816C83.6648 61.6182 83.8155 61.2153 83.9043 60.1287C83.9969 58.9953 84 57.5062 84 55.2V40.8C84 38.4938 83.9969 37.0047 83.9043 35.8714C83.8155 34.7847 83.6648 34.3818 83.564 34.184C83.1805 33.4314 82.5686 32.8195 81.816 32.436C81.6182 32.3352 81.2153 32.1845 80.1287 32.0957C78.9953 32.0031 77.5062 32 75.2 32H20.8C18.4938 32 17.0047 32.0031 15.8714 32.0957ZM23 48C23 45.2386 25.2386 43 28 43C30.7614 43 33 45.2386 33 48C33 50.7614 30.7614 53 28 53C25.2386 53 23 50.7614 23 48ZM43 48C43 45.2386 45.2386 43 48 43C50.7614 43 53 45.2386 53 48C53 50.7614 50.7614 53 48 53C45.2386 53 43 50.7614 43 48ZM63 48C63 45.2386 65.2386 43 68 43C70.7614 43 73 45.2386 73 48C73 50.7614 70.7614 53 68 53C65.2386 53 63 50.7614 63 48Z" fill="#33363D"/>
</svg>
