<svg width="96" height="96" viewBox="0 0 96 96" fill="none" xmlns="http://www.w3.org/2000/svg">
<path fill-rule="evenodd" clip-rule="evenodd" d="M38.969 86.2164L36.3589 80.4329C35.429 78.3688 33.8584 76.6485 31.8732 75.5196C29.8868 74.3907 27.5889 73.9098 25.3083 74.1458L18.9221 74.8156C17.0213 75.0124 15.1032 74.6624 13.4001 73.8077C11.6969 72.9531 10.2816 71.6305 9.32542 70C8.36892 68.3696 7.91323 66.5008 8.01364 64.6202C8.11405 62.7397 8.76625 60.9283 9.8911 59.4058L13.6722 54.2871C15.0206 52.4601 15.7468 50.259 15.7464 48C15.7468 45.741 15.0206 43.5399 13.6722 41.7129L9.8911 36.5942C8.76625 35.0717 8.11405 33.2603 8.01364 31.3798C7.91323 29.4992 8.36892 27.6304 9.32542 26C10.2807 24.3686 11.6958 23.0454 13.3992 22.1906C15.1026 21.3358 17.0211 20.9863 18.9221 21.1844L25.3282 21.8542C27.6088 22.0902 29.9067 21.6093 31.893 20.4804C33.8709 19.3483 35.4342 17.6284 36.3589 15.5671L38.969 9.78356C39.7449 8.06195 41.0111 6.59915 42.6142 5.57255C44.2172 4.54596 46.0881 3.99969 48 4C49.9119 3.99969 51.7828 4.54596 53.3858 5.57255C54.9889 6.59915 56.2551 8.06195 57.031 9.78356L59.6609 15.5671C60.5857 17.6284 62.149 19.3483 64.1268 20.4804C66.1132 21.6093 68.4111 22.0902 70.6917 21.8542L77.0779 21.1844C78.9789 20.9863 80.8974 21.3358 82.6008 22.1906C84.3042 23.0454 85.7193 24.3686 86.6746 26C87.6311 27.6304 88.0868 29.4992 87.9864 31.3798C87.8859 33.2603 87.2338 35.0717 86.1089 36.5942L82.3278 41.7129C80.9793 43.5399 80.2532 45.741 80.2536 48C80.2422 50.2652 80.9616 52.4754 82.3079 54.3116L86.0891 59.4302C87.2139 60.9527 87.8661 62.7641 87.9665 64.6447C88.0669 66.5252 87.6112 68.3941 86.6547 70.0244C85.6995 71.6558 84.2843 72.9791 82.5809 73.8338C80.8775 74.6886 78.959 75.0381 77.058 74.84L70.6718 74.1702C68.3912 73.9342 66.0933 74.4151 64.107 75.544C62.1331 76.6698 60.5702 78.3807 59.6411 80.4329L57.031 86.2164C56.2551 87.938 54.9889 89.4008 53.3858 90.4274C51.7828 91.454 49.9119 92.0003 48 92C46.0881 92.0003 44.2172 91.454 42.6142 90.4274C41.0111 89.4008 39.7449 87.938 38.969 86.2164ZM60 48C60 54.6274 54.6274 60 48 60C41.3726 60 36 54.6274 36 48C36 41.3726 41.3726 36 48 36C54.6274 36 60 41.3726 60 48Z" fill="black"/>
</svg>
