<svg width="41" height="40" viewBox="0 0 41 40" fill="none" xmlns="http://www.w3.org/2000/svg">
<path d="M11.1619 4.5C14.3509 4.50017 17.0104 6.76424 17.6228 9.77246H23.7117C24.3283 6.76951 26.9863 4.51082 30.1716 4.51074C33.8137 4.51082 36.7663 7.46342 36.7664 11.1055C36.7664 14.7476 33.8137 17.6999 30.1716 17.7002C28.8336 17.7002 27.5892 17.3009 26.5496 16.6162L17.1111 26.0537C17.3396 26.5299 17.5137 27.0372 17.6228 27.5684H23.7185C24.3365 24.5672 26.9934 22.3105 30.1775 22.3105C33.8195 22.3108 36.7721 25.2633 36.7722 28.9053C36.7723 32.5474 33.8196 35.5 30.1775 35.5C26.9905 35.5 24.3315 33.2395 23.7166 30.2344H17.6228C17.0068 33.2381 14.3488 35.497 11.1628 35.4971C7.52064 35.4971 4.56812 32.5445 4.56812 28.9023C4.56838 25.2604 7.5208 22.3077 11.1628 22.3076C12.813 22.3076 14.3207 22.9153 15.4773 23.917L24.6628 14.7314C24.2107 14.0459 23.8825 13.2715 23.7117 12.4395H17.6179C16.9969 15.4366 14.343 17.6892 11.1619 17.6895C7.51967 17.6895 4.56616 14.7369 4.56616 11.0947C4.56631 7.45266 7.51975 4.50004 11.1619 4.5ZM30.1775 24.9775C28.4775 24.9775 27.0291 26.0571 26.4822 27.5684H30.1746C30.9109 27.5684 31.5075 28.1651 31.5076 28.9014C31.5076 29.6377 30.9109 30.2344 30.1746 30.2344H26.4802C27.0251 31.7497 28.4746 32.833 30.1775 32.833C32.3469 32.8329 34.1053 31.0747 34.1052 28.9053C34.1051 26.736 32.3467 24.9777 30.1775 24.9775ZM11.1628 24.9746C8.99349 24.9746 7.23438 26.7332 7.23413 28.9023C7.23413 31.0717 8.99333 32.8311 11.1628 32.8311C13.3323 32.831 15.0906 31.0717 15.0906 28.9023C15.0904 26.7331 13.3322 24.9746 11.1628 24.9746ZM30.1716 7.17773C28.0023 7.17779 26.2431 8.93619 26.2429 11.1055C26.2429 13.2749 28.0022 15.0342 30.1716 15.0342C32.3409 15.034 34.0994 13.2748 34.0994 11.1055C34.0993 8.93621 32.3409 7.17785 30.1716 7.17773ZM11.1619 7.16699C8.99245 7.16702 7.23329 8.92546 7.23315 11.0947C7.23315 13.2641 8.99236 15.0235 11.1619 15.0234C12.8588 15.0232 14.3042 13.9465 14.8533 12.4395H11.8132C11.0769 12.4395 10.4793 11.8427 10.4792 11.1064C10.4792 10.3701 11.0769 9.77246 11.8132 9.77246H14.8611C14.3182 8.25385 12.8671 7.16715 11.1619 7.16699Z" fill="#303336"/>
</svg>
