<svg width="20" height="20" viewBox="0 0 20 20" fill="none" xmlns="http://www.w3.org/2000/svg">
<path fill-rule="evenodd" clip-rule="evenodd" d="M5 2.5C5.46024 2.5 5.83333 2.8731 5.83333 3.33333V9.16667C5.83333 11.4679 7.69881 13.3333 10 13.3333C12.3012 13.3333 14.1667 11.4679 14.1667 9.16667V3.33333C14.1667 2.8731 14.5398 2.5 15 2.5C15.4602 2.5 15.8333 2.8731 15.8333 3.33333V9.16667C15.8333 12.3883 13.2217 15 10 15C6.77834 15 4.16667 12.3883 4.16667 9.16667V3.33333C4.16667 2.8731 4.53976 2.5 5 2.5ZM2.5 17.5C2.5 17.0398 2.8731 16.6667 3.33333 16.6667H16.6667C17.1269 16.6667 17.5 17.0398 17.5 17.5C17.5 17.9602 17.1269 18.3333 16.6667 18.3333H3.33333C2.8731 18.3333 2.5 17.9602 2.5 17.5Z" fill="#58616A"/>
</svg>
