<svg width="16" height="16" viewBox="0 0 16 16" fill="none" xmlns="http://www.w3.org/2000/svg">
<mask id="mask0_45_2460" style="mask-type:alpha" maskUnits="userSpaceOnUse" x="0" y="0" width="16" height="16">
<rect width="16" height="16" fill="#D9D9D9"/>
</mask>
<g mask="url(#mask0_45_2460)">
<path d="M3.60039 14.9668C3.08803 14.9668 2.65439 14.7893 2.29946 14.4344C1.94452 14.0794 1.76706 13.6458 1.76706 13.1334V12.3436C1.76706 11.9792 1.89686 11.6671 2.15646 11.4075C2.41606 11.1479 2.72815 11.0181 3.09274 11.0181H3.96706V2.35913C3.96706 1.99454 4.09686 1.68245 4.35646 1.42285C4.61606 1.16325 4.92815 1.03345 5.29274 1.03345H12.908C13.2726 1.03345 13.5847 1.16325 13.8443 1.42285C14.1039 1.68245 14.2337 1.99454 14.2337 2.35913V13.1334C14.2337 13.6458 14.0563 14.0794 13.7013 14.4344C13.3464 14.7893 12.9127 14.9668 12.4004 14.9668H3.60039ZM12.4004 13.8668C12.6082 13.8668 12.7823 13.7965 12.9229 13.6559C13.0634 13.5154 13.1337 13.3412 13.1337 13.1334V2.35913C13.1337 2.29325 13.1126 2.23917 13.0703 2.19688C13.028 2.15459 12.9739 2.13345 12.908 2.13345H5.29274C5.22686 2.13345 5.17278 2.15459 5.13049 2.19688C5.0882 2.23917 5.06706 2.29325 5.06706 2.35913V11.0181H10.3414C10.706 11.0181 11.0181 11.1479 11.2777 11.4075C11.5373 11.6671 11.6671 11.9792 11.6671 12.3436V13.1334C11.6671 13.3412 11.7373 13.5154 11.8779 13.6559C12.0184 13.7965 12.1926 13.8668 12.4004 13.8668ZM6.49137 5.57443C6.33554 5.57443 6.20494 5.52169 6.09959 5.41621C5.99411 5.31074 5.94137 5.18008 5.94137 5.02425C5.94137 4.86829 5.99411 4.7377 6.09959 4.63246C6.20494 4.52711 6.33554 4.47443 6.49137 4.47443H11.7094C11.8652 4.47443 11.9958 4.52717 12.1012 4.63265C12.2067 4.73813 12.2594 4.86884 12.2594 5.0248C12.2594 5.18063 12.2067 5.31123 12.1012 5.41658C11.9958 5.52181 11.8652 5.57443 11.7094 5.57443H6.49137ZM6.49137 7.68991C6.33554 7.68991 6.20494 7.63718 6.09959 7.5317C5.99411 7.42622 5.94137 7.2955 5.94137 7.13955C5.94137 6.98371 5.99411 6.85312 6.09959 6.74776C6.20494 6.64253 6.33554 6.58991 6.49137 6.58991H11.7094C11.8652 6.58991 11.9958 6.64265 12.1012 6.74813C12.2067 6.85349 12.2594 6.98414 12.2594 7.1401C12.2594 7.29605 12.2067 7.42665 12.1012 7.53188C11.9958 7.63724 11.8652 7.68991 11.7094 7.68991H6.49137ZM3.60039 13.8668H10.5671V12.3436C10.5671 12.2779 10.5459 12.2239 10.5036 12.1816C10.4613 12.1392 10.4073 12.118 10.3414 12.118H3.09274C3.02686 12.118 2.97278 12.1392 2.93049 12.1816C2.8882 12.2239 2.86706 12.2779 2.86706 12.3436V13.1334C2.86706 13.3412 2.93733 13.5154 3.07789 13.6559C3.21844 13.7965 3.39261 13.8668 3.60039 13.8668ZM3.60039 13.8668H2.86706H10.5671H3.60039Z" fill="#33363D"/>
</g>
</svg>
