<svg width="16" height="16" viewBox="0 0 16 16" fill="none" xmlns="http://www.w3.org/2000/svg">
<path fill-rule="evenodd" clip-rule="evenodd" d="M2.00016 1.33301C2.36835 1.33301 2.66683 1.63148 2.66683 1.99967V4.66634L9.41751 4.66634C9.71354 3.51619 10.7576 2.66634 12.0002 2.66634C13.4729 2.66634 14.6668 3.86025 14.6668 5.33301C14.6668 6.80577 13.4729 7.99967 12.0002 7.99967C10.7576 7.99967 9.71354 7.14983 9.41751 5.99968L2.66683 5.99967V8.79967C2.66683 9.37073 2.66735 9.75892 2.69186 10.059C2.71574 10.3513 2.75903 10.5007 2.81215 10.605C2.93999 10.8559 3.14396 11.0599 3.39484 11.1877C3.49911 11.2408 3.64858 11.2841 3.94086 11.308C4.24091 11.3325 4.62911 11.333 5.20016 11.333H9.41751C9.71354 10.1829 10.7576 9.33301 12.0002 9.33301C13.4729 9.33301 14.6668 10.5269 14.6668 11.9997C14.6668 13.4724 13.4729 14.6663 12.0002 14.6663C10.7576 14.6663 9.71354 13.8165 9.41751 12.6663H5.17261C4.63597 12.6664 4.19307 12.6664 3.83228 12.6369C3.45755 12.6063 3.11308 12.5406 2.78952 12.3757C2.28776 12.12 1.87981 11.7121 1.62415 11.2103C1.45929 10.8868 1.39358 10.5423 1.36296 10.1676C1.33348 9.80676 1.33349 9.36385 1.3335 8.82721L1.3335 1.99967C1.3335 1.63148 1.63197 1.33301 2.00016 1.33301ZM12.0002 3.99967C11.2638 3.99967 10.6668 4.59663 10.6668 5.33301C10.6668 6.06939 11.2638 6.66634 12.0002 6.66634C12.7365 6.66634 13.3335 6.06939 13.3335 5.33301C13.3335 4.59663 12.7365 3.99967 12.0002 3.99967ZM12.0002 10.6663C11.2638 10.6663 10.6668 11.2633 10.6668 11.9997C10.6668 12.7361 11.2638 13.333 12.0002 13.333C12.7365 13.333 13.3335 12.7361 13.3335 11.9997C13.3335 11.2633 12.7365 10.6663 12.0002 10.6663Z" fill="#1E2124"/>
</svg>
