<svg width="25" height="24" viewBox="0 0 25 24" fill="none" xmlns="http://www.w3.org/2000/svg">
<path fill-rule="evenodd" clip-rule="evenodd" d="M22.3333 12.0002C22.3333 12.2178 22.2446 12.426 22.0877 12.5769L16.8877 17.5769C16.5693 17.8831 16.0628 17.8732 15.7566 17.5547C15.4504 17.2362 15.4603 16.7298 15.7788 16.4235L19.547 12.8002L3.13403 12.8002C2.69221 12.8002 2.33404 12.442 2.33404 12.0002C2.33404 11.5584 2.69221 11.2002 3.13403 11.2002L19.547 11.2002L15.7788 7.57686C15.4603 7.27063 15.4504 6.76419 15.7566 6.44571C16.0628 6.12722 16.5693 6.11729 16.8877 6.42353L22.0877 11.4235C22.2446 11.5744 22.3333 11.7826 22.3333 12.0002Z" fill="#33363D"/>
</svg>
