<svg width="16" height="17" viewBox="0 0 16 17" fill="none" xmlns="http://www.w3.org/2000/svg">
<path fill-rule="evenodd" clip-rule="evenodd" d="M4.66675 5.83333C3.19399 5.83333 2.00008 7.02724 2.00008 8.5C2.00008 9.97276 3.19399 11.1667 4.66675 11.1667H6.00008C6.36827 11.1667 6.66675 11.4651 6.66675 11.8333C6.66675 12.2015 6.36827 12.5 6.00008 12.5H4.66675C2.45761 12.5 0.666748 10.7091 0.666748 8.5C0.666748 6.29086 2.45761 4.5 4.66675 4.5H6.00008C6.36827 4.5 6.66675 4.79848 6.66675 5.16667C6.66675 5.53486 6.36827 5.83333 6.00008 5.83333H4.66675ZM9.33341 5.16667C9.33341 4.79848 9.63189 4.5 10.0001 4.5H11.3334C13.5426 4.5 15.3334 6.29086 15.3334 8.5C15.3334 10.7091 13.5426 12.5 11.3334 12.5H10.0001C9.63189 12.5 9.33341 12.2015 9.33341 11.8333C9.33341 11.4651 9.63189 11.1667 10.0001 11.1667H11.3334C12.8062 11.1667 14.0001 9.97276 14.0001 8.5C14.0001 7.02724 12.8062 5.83333 11.3334 5.83333H10.0001C9.63189 5.83333 9.33341 5.53486 9.33341 5.16667ZM4.00008 8.5C4.00008 8.13181 4.29856 7.83333 4.66675 7.83333L11.3334 7.83333C11.7016 7.83333 12.0001 8.13181 12.0001 8.5C12.0001 8.86819 11.7016 9.16667 11.3334 9.16667L4.66675 9.16667C4.29856 9.16667 4.00008 8.86819 4.00008 8.5Z" fill="#33363D"/>
</svg>
