<svg width="16" height="17" viewBox="0 0 16 17" fill="none" xmlns="http://www.w3.org/2000/svg">
<path fill-rule="evenodd" clip-rule="evenodd" d="M11.4305 3.20079C11.0193 3.1672 10.4911 3.16668 9.73338 3.16668H5.00004C4.63185 3.16668 4.33338 2.8682 4.33338 2.50001C4.33338 2.13182 4.63185 1.83334 5.00004 1.83334L9.76191 1.83334C10.4844 1.83334 11.0672 1.83333 11.5391 1.87189C12.025 1.91159 12.4518 1.99546 12.8467 2.19666C13.4739 2.51623 13.9838 3.02617 14.3034 3.65338C14.5046 4.04824 14.5885 4.47503 14.6282 4.96093C14.6667 5.43284 14.6667 6.01561 14.6667 6.73812V11.5C14.6667 11.8682 14.3682 12.1667 14 12.1667C13.6319 12.1667 13.3334 11.8682 13.3334 11.5V6.76668C13.3334 6.00894 13.3329 5.48073 13.2993 5.0695C13.2663 4.66606 13.2048 4.43427 13.1154 4.2587C12.9236 3.88237 12.6177 3.57641 12.2414 3.38466C12.0658 3.29521 11.834 3.23376 11.4305 3.20079ZM4.10768 4.16668H9.55907C9.9105 4.16666 10.2137 4.16665 10.4634 4.18706C10.727 4.20859 10.9891 4.25613 11.2414 4.38466C11.6177 4.57641 11.9236 4.88237 12.1154 5.2587C12.2439 5.51095 12.2915 5.7731 12.313 6.03666C12.3334 6.28638 12.3334 6.58956 12.3334 6.941V12.3924C12.3334 12.7438 12.3334 13.047 12.313 13.2967C12.2915 13.5603 12.2439 13.8224 12.1154 14.0747C11.9236 14.451 11.6177 14.7569 11.2414 14.9487C10.9891 15.0772 10.727 15.1248 10.4634 15.1463C10.2137 15.1667 9.91051 15.1667 9.55909 15.1667H4.10766C3.75624 15.1667 3.45307 15.1667 3.20336 15.1463C2.93979 15.1248 2.67765 15.0772 2.42539 14.9487C2.04907 14.7569 1.74311 14.451 1.55136 14.0747C1.42283 13.8224 1.37529 13.5603 1.35375 13.2967C1.33335 13.047 1.33336 12.7438 1.33337 12.3924V6.94098C1.33336 6.58955 1.33335 6.28637 1.35375 6.03666C1.37529 5.7731 1.42283 5.51095 1.55136 5.2587C1.74311 4.88237 2.04907 4.57641 2.42539 4.38466C2.67765 4.25613 2.93979 4.20859 3.20336 4.18706C3.45307 4.16665 3.75625 4.16666 4.10768 4.16668ZM3.31193 5.51596C3.13082 5.53076 3.06368 5.55588 3.03071 5.57267C2.90527 5.63659 2.80329 5.73858 2.73937 5.86402C2.72258 5.89698 2.69746 5.96413 2.68266 6.14523C2.66723 6.33413 2.66671 6.58231 2.66671 6.96668V12.3667C2.66671 12.751 2.66723 12.9992 2.68266 13.1881C2.69746 13.3692 2.72258 13.4364 2.73937 13.4693C2.80329 13.5948 2.90527 13.6968 3.03071 13.7607C3.06368 13.7775 3.13082 13.8026 3.31193 13.8174C3.50082 13.8328 3.74901 13.8333 4.13338 13.8333H9.53338C9.91774 13.8333 10.1659 13.8328 10.3548 13.8174C10.5359 13.8026 10.6031 13.7775 10.636 13.7607C10.7615 13.6968 10.8635 13.5948 10.9274 13.4693C10.9442 13.4364 10.9693 13.3692 10.9841 13.1881C10.9995 12.9992 11 12.751 11 12.3667V6.96668C11 6.58231 10.9995 6.33413 10.9841 6.14523C10.9693 5.96413 10.9442 5.89698 10.9274 5.86402C10.8635 5.73858 10.7615 5.63659 10.636 5.57267C10.6031 5.55588 10.5359 5.53076 10.3548 5.51596C10.1659 5.50053 9.91774 5.50001 9.53338 5.50001H4.13338C3.74901 5.50001 3.50082 5.50053 3.31193 5.51596Z" fill="#33363D"/>
</svg>
