<svg width="24" height="25" viewBox="0 0 24 25" fill="none" xmlns="http://www.w3.org/2000/svg">
<path d="M11.968 4.35416C13.1337 4.95202 14.1767 5.7634 15.0429 6.74626C15.0429 6.74626 13.6581 2.5 10.9677 2.5C9.0466 2.5 8.81374 3.81234 8.81374 3.81234C9.894 3.70592 10.9829 3.89266 11.9662 4.35243L11.968 4.35416Z" fill="#33A7FF"/>
<path d="M15.0447 7.74984L14.8101 7.51338C13.4568 6.32106 11.82 5.49623 10.0565 5.11784C8.29306 4.73944 6.46195 4.82041 4.73862 5.35257C4.55607 5.43365 4.39126 5.54977 4.25363 5.69454C4.116 5.83932 4.00822 6.00988 3.93647 6.19631C3.79157 6.5728 3.80216 6.99136 3.96592 7.36005C4.12968 7.72874 4.43319 8.01711 4.80969 8.16201C5.18618 8.30692 5.60483 8.29649 5.97352 8.13273C7.2898 7.76384 8.68868 7.81738 9.97282 8.28606C8.81682 8.68558 7.78372 9.37747 6.97379 10.294C6.40744 10.9372 6.01758 11.7158 5.84226 12.5547C5.66694 13.3936 5.71216 14.2637 5.97352 15.0799C6.30986 15.9329 6.89168 16.6668 7.64535 17.189C8.39902 17.7113 9.29065 17.9985 10.2074 18.0138H10.4421C11.4532 18.0134 12.448 17.7585 13.3349 17.273C14.2218 16.7875 14.9723 16.0865 15.5175 15.235C16.1549 14.1386 16.4239 12.8669 16.2849 11.6063L16.4384 11.7614C16.6939 12.0779 17.0646 12.2803 17.4691 12.3234C17.8735 12.3666 18.2785 12.2473 18.5951 11.9918C18.9116 11.7363 19.1137 11.3656 19.1568 10.9611C19.2 10.5567 19.0808 10.1518 18.8253 9.83528C17.8848 8.67528 16.5293 7.92709 15.0465 7.74984H15.0447ZM12.9683 13.6172C12.6779 14.038 12.2861 14.3789 11.8292 14.6083C11.3722 14.8377 10.8648 14.9485 10.3539 14.93C10.058 14.9262 9.76805 14.8461 9.51216 14.6974C9.25628 14.5488 9.04308 14.3367 8.89317 14.0815C8.78668 13.7713 8.75899 13.4391 8.81257 13.1155C8.86616 12.7918 8.99932 12.4868 9.20012 12.2274C10.2615 11.2671 11.6174 10.6956 13.046 10.6062C13.4305 12.4586 13.1994 13.312 12.9683 13.6172Z" fill="#33A7FF"/>
<path d="M11.5058 19.4093C11.8119 19.4075 12.1116 19.4967 12.367 19.6655C12.6223 19.8344 12.8217 20.0754 12.94 20.3577C13.0583 20.64 13.09 20.951 13.0313 21.2514C12.9725 21.5518 12.8259 21.8278 12.6099 22.0447C12.394 22.2617 12.1184 22.4097 11.8183 22.4698C11.5182 22.53 11.2069 22.4998 10.9241 22.3828C10.6412 22.2659 10.3994 22.0676 10.2295 21.813C10.0595 21.5585 9.96889 21.259 9.96924 20.9529C9.96969 20.5449 10.1315 20.1537 10.4194 19.8645C10.7072 19.5753 11.0978 19.4116 11.5058 19.4093Z" fill="#33A7FF"/>
</svg>
