<svg width="16" height="16" viewBox="0 0 16 16" fill="none" xmlns="http://www.w3.org/2000/svg">
<path d="M12.4199 2.82324C12.6282 2.61498 12.9665 2.61498 13.1748 2.82324C13.3831 3.03151 13.3831 3.36984 13.1748 3.57812L8.75293 7.99902L13.1768 12.4238C13.385 12.6321 13.385 12.9704 13.1768 13.1787C12.9685 13.3866 12.631 13.3867 12.4229 13.1787L7.99805 8.75391L3.57422 13.1787C3.36598 13.3866 3.02852 13.3867 2.82031 13.1787C2.61203 12.9704 2.61204 12.6321 2.82031 12.4238L7.24414 7.99902L2.82324 3.57812C2.61497 3.36984 2.61496 3.03152 2.82324 2.82324C3.03151 2.61538 3.36898 2.61523 3.57715 2.82324L7.99805 7.24414L12.4199 2.82324Z" fill="#052B57"/>
</svg>
