<svg width="20" height="20" viewBox="0 0 20 20" fill="none" xmlns="http://www.w3.org/2000/svg">
<path fill-rule="evenodd" clip-rule="evenodd" d="M11.0617 1.29452C11.4289 1.05364 11.8764 0.967454 12.3069 1.05472C12.6319 1.12059 12.8802 1.29569 13.0652 1.44993C13.2421 1.59735 13.4401 1.79537 13.6531 2.00849L17.9858 6.34116C18.1989 6.55424 18.3969 6.75223 18.5444 6.92908C18.6986 7.11412 18.8737 7.36242 18.9396 7.6874C19.0268 8.11785 18.9407 8.56535 18.6998 8.93261C18.5179 9.20988 18.2631 9.3754 18.0512 9.48992C17.8486 9.59937 17.5912 9.70966 17.3142 9.82836L15.2052 10.7322C15.1579 10.7525 15.1348 10.7624 15.1181 10.77C15.1178 10.7702 15.1174 10.7704 15.117 10.7705C15.1167 10.7708 15.1164 10.7711 15.1161 10.7714C15.1029 10.7841 15.0851 10.8018 15.0486 10.8382L13.7479 12.1389C13.691 12.1959 13.663 12.224 13.6434 12.2451C13.6429 12.2456 13.6424 12.2461 13.642 12.2466C13.6418 12.2472 13.6416 12.2479 13.6415 12.2486C13.6348 12.2767 13.627 12.3155 13.6112 12.3944L12.9934 15.4835C12.9201 15.8499 12.8542 16.1794 12.7774 16.438C12.7005 16.6969 12.5741 17.0312 12.2891 17.2841C11.9246 17.6075 11.4367 17.7552 10.954 17.6883C10.5767 17.636 10.286 17.4279 10.0784 17.2552C9.87103 17.0826 9.63347 16.845 9.36927 16.5808L6.98062 14.1922L2.85582 18.317C2.53038 18.6424 2.00274 18.6424 1.67731 18.317C1.35187 17.9915 1.35187 17.4639 1.67731 17.1384L5.8021 13.0136L3.4135 10.625C3.14927 10.3608 2.91167 10.1233 2.73909 9.91588C2.56638 9.70833 2.35832 9.41765 2.306 9.04027C2.23908 8.55756 2.38678 8.06974 2.71022 7.70522C2.96309 7.42025 3.29744 7.29379 3.55627 7.2169C3.81491 7.14007 4.14439 7.0742 4.5108 7.00094L7.59986 6.38313C7.67878 6.36735 7.71763 6.35946 7.74572 6.35282C7.74641 6.35266 7.74708 6.3525 7.74772 6.35234C7.7482 6.3519 7.7487 6.35143 7.74922 6.35095C7.77033 6.33126 7.79844 6.3033 7.85535 6.24639L9.15609 4.94565C9.19251 4.90923 9.21025 4.89143 9.2229 4.87819C9.2232 4.87787 9.22349 4.87757 9.22376 4.87729C9.22393 4.87692 9.2241 4.87654 9.22428 4.87615C9.23187 4.85949 9.24182 4.83641 9.26211 4.78906L10.166 2.68009C10.2846 2.40306 10.3949 2.14567 10.5044 1.94311C10.6189 1.73117 10.7844 1.47638 11.0617 1.29452ZM10.5223 15.3768C10.8201 15.6746 11.0031 15.8565 11.1445 15.9741C11.1536 15.9817 11.1621 15.9886 11.17 15.995C11.1731 15.9853 11.1764 15.9748 11.1797 15.9634C11.2321 15.7871 11.2835 15.5343 11.3661 15.1213L11.9769 12.0676C11.9789 12.0577 11.9809 12.0475 11.9829 12.037C12.0057 11.9222 12.0343 11.7776 12.0893 11.6374C12.137 11.5156 12.199 11.3999 12.2738 11.2926C12.36 11.169 12.4644 11.065 12.5473 10.9825C12.5549 10.9749 12.5622 10.9676 12.5694 10.9604L13.8701 9.6597C13.8747 9.65514 13.8794 9.65044 13.8842 9.64564C13.9372 9.59249 14.0039 9.52556 14.0801 9.46504C14.1464 9.41243 14.2165 9.36493 14.29 9.32297C14.3745 9.2747 14.4614 9.23757 14.5305 9.20809C14.5367 9.20543 14.5428 9.20282 14.5487 9.20028L16.6273 8.30944C16.9452 8.17321 17.1312 8.09262 17.2589 8.02362C17.2657 8.01993 17.2721 8.01642 17.278 8.0131C17.2737 8.00783 17.2691 8.00221 17.2642 7.99624C17.1712 7.88475 17.0285 7.74085 16.7839 7.49631L12.498 3.21037C12.2534 2.96583 12.1096 2.82309 11.9981 2.73014C11.9921 2.72517 11.9865 2.72056 11.9812 2.71631C11.9779 2.72222 11.9744 2.72858 11.9707 2.73541C11.9017 2.86312 11.8211 3.04909 11.6849 3.36696L10.794 5.44559C10.7915 5.45153 10.7889 5.45762 10.7862 5.46387C10.7567 5.53289 10.7196 5.61984 10.6713 5.70432C10.6294 5.77777 10.5819 5.84793 10.5293 5.91417C10.4687 5.99036 10.4018 6.05713 10.3487 6.11013C10.3439 6.11492 10.3392 6.1196 10.3346 6.12417L9.03386 7.4249C9.0267 7.43206 9.01936 7.43943 9.01185 7.44698C8.92927 7.52989 8.82525 7.63432 8.70171 7.72048C8.59441 7.79531 8.47868 7.85725 8.35689 7.90502C8.21667 7.96002 8.07209 7.98864 7.9573 8.01136C7.94685 8.01343 7.93665 8.01544 7.92672 8.01743L4.873 8.62817C4.45997 8.71078 4.20716 8.7622 4.03088 8.81456C4.01952 8.81794 4.00902 8.82117 3.99934 8.82425C4.00569 8.83219 4.01263 8.8407 4.02021 8.84981C4.13783 8.99116 4.31966 9.17418 4.6175 9.47202L10.5223 15.3768Z" fill="#8A949E"/>
</svg>
