<svg width="40" height="40" viewBox="0 0 40 40" fill="none" xmlns="http://www.w3.org/2000/svg">
<path d="M31.667 5C33.5077 5.00018 34.9998 6.49232 35 8.33301V31.667C34.9998 33.5077 33.5077 34.9998 31.667 35H8.33301C6.49232 34.9998 5.00018 33.5077 5 31.667V8.33301C5.00018 6.49232 6.49232 5.00018 8.33301 5H31.667ZM8.33301 7.66699C7.96508 7.66717 7.66717 7.96508 7.66699 8.33301V31.667C7.66717 32.0349 7.96508 32.3328 8.33301 32.333H31.667C32.0349 32.3328 32.3328 32.0349 32.333 31.667V8.33301C32.3328 7.96508 32.0349 7.66717 31.667 7.66699H8.33301ZM20 21.167C21.8118 21.167 23.5944 21.6765 25.0449 22.6436C26.4975 23.6121 27.5579 25.0034 27.9609 26.6221C28.1388 27.3365 27.7036 28.0602 26.9893 28.2383C26.2747 28.4162 25.551 27.9811 25.373 27.2666C25.1516 26.3769 24.5425 25.5137 23.5654 24.8623C22.586 24.2094 21.3265 23.833 20 23.833C18.6735 23.833 17.414 24.2094 16.4346 24.8623C15.4575 25.5137 14.8484 26.3769 14.627 27.2666C14.449 27.9811 13.7253 28.4162 13.0107 28.2383C12.2964 28.0602 11.8612 27.3365 12.0391 26.6221C12.4421 25.0034 13.5025 23.6121 14.9551 22.6436C16.4056 21.6765 18.1882 21.167 20 21.167ZM20 11.167C22.5772 11.167 24.6668 13.2558 24.667 15.833C24.667 18.4103 22.5773 20.5 20 20.5C17.4227 20.5 15.333 18.4103 15.333 15.833C15.3332 13.2558 17.4228 11.167 20 11.167ZM20 13.833C18.8955 13.833 18.0002 14.7286 18 15.833C18 16.9376 18.8954 17.833 20 17.833C21.1046 17.833 22 16.9376 22 15.833C21.9998 14.7286 21.1045 13.833 20 13.833Z" fill="#303336"/>
</svg>
