<svg width="96" height="96" viewBox="0 0 96 96" fill="none" xmlns="http://www.w3.org/2000/svg">
<path fill-rule="evenodd" clip-rule="evenodd" d="M20 12C17.7909 12 16 13.7909 16 16C16 18.2091 17.7909 20 20 20C22.2091 20 24 18.2091 24 16C24 13.7909 22.2091 12 20 12ZM8 16C8 9.37258 13.3726 4 20 4C25.2249 4 29.6698 7.33923 31.3172 12L64.6828 12C66.3302 7.33923 70.7751 4 76 4C82.6274 4 88 9.37258 88 16C88 22.6274 82.6274 28 76 28C70.7751 28 66.3302 24.6608 64.6828 20L52 20V44H64.6828C66.3302 39.3392 70.7751 36 76 36C82.6274 36 88 41.3726 88 48C88 54.6274 82.6274 60 76 60C70.7751 60 66.3302 56.6608 64.6828 52H52V60.8C52 64.2263 52.0031 66.5555 52.1502 68.3559C52.2935 70.1095 52.5532 71.0063 52.8719 71.6319C53.6389 73.1372 54.8628 74.3611 56.3681 75.1281C56.9937 75.4468 57.8905 75.7065 59.6441 75.8498C60.9648 75.9577 62.57 75.9881 64.684 75.9967C66.3323 71.3376 70.7764 68 76 68C82.6274 68 88 73.3726 88 80C88 86.6274 82.6274 92 76 92C70.774 92 66.3283 88.6594 64.6818 83.9971C62.4926 83.9886 60.6059 83.955 58.9927 83.8232C56.7443 83.6395 54.6775 83.2453 52.7362 82.2561C49.7256 80.7221 47.2779 78.2744 45.7439 75.2639C44.7547 73.3225 44.3605 71.2557 44.1768 69.0073C43.9999 66.8425 43.9999 64.1851 44 60.9652V20L31.3172 20C29.6698 24.6608 25.2249 28 20 28C13.3726 28 8 22.6274 8 16ZM76 12C73.7909 12 72 13.7909 72 16C72 18.2091 73.7909 20 76 20C78.2091 20 80 18.2091 80 16C80 13.7909 78.2091 12 76 12ZM76 44C73.7909 44 72 45.7909 72 48C72 50.2091 73.7909 52 76 52C78.2091 52 80 50.2091 80 48C80 45.7909 78.2091 44 76 44ZM76 76C73.7909 76 72 77.7909 72 80C72 82.2091 73.7909 84 76 84C78.2091 84 80 82.2091 80 80C80 77.7909 78.2091 76 76 76Z" fill="#33363D"/>
</svg>
