<svg width="16" height="16" viewBox="0 0 16 16" fill="none" xmlns="http://www.w3.org/2000/svg">
<path fill-rule="evenodd" clip-rule="evenodd" d="M6.49483 14.3694L6.05982 13.4054C5.90483 13.0614 5.64307 12.7747 5.3122 12.5866C4.98114 12.3984 4.59815 12.3183 4.21806 12.3576L3.15369 12.4692C2.83688 12.502 2.51721 12.4437 2.23335 12.3012C1.94949 12.1588 1.71361 11.9384 1.55424 11.6666C1.39482 11.3949 1.31887 11.0834 1.33561 10.77C1.35234 10.4566 1.46104 10.1547 1.64852 9.90092L2.2787 9.04781C2.50344 8.7433 2.62447 8.37646 2.6244 7.99996C2.62447 7.62346 2.50344 7.25662 2.2787 6.95211L1.64852 6.099C1.46104 5.84525 1.35234 5.54334 1.33561 5.22992C1.31887 4.9165 1.39482 4.60502 1.55424 4.33329C1.71345 4.0614 1.9493 3.84085 2.2332 3.69839C2.5171 3.55593 2.83685 3.49768 3.15369 3.5307L4.22136 3.64233C4.60146 3.68166 4.98445 3.60151 5.31551 3.41337C5.64514 3.22468 5.90569 2.93802 6.05982 2.59448L6.49483 1.63055C6.62415 1.34362 6.83519 1.09982 7.10236 0.928718C7.36953 0.75762 7.68135 0.666575 8 0.666626C8.31865 0.666575 8.63047 0.75762 8.89764 0.928718C9.16481 1.09982 9.37585 1.34362 9.50517 1.63055L9.94349 2.59448C10.0976 2.93802 10.3582 3.22468 10.6878 3.41337C11.0189 3.60151 11.4018 3.68166 11.7819 3.64233L12.8463 3.5307C13.1631 3.49768 13.4829 3.55593 13.7668 3.69839C14.0507 3.84085 14.2866 4.0614 14.4458 4.33329C14.6052 4.60502 14.6811 4.9165 14.6644 5.22992C14.6477 5.54334 14.539 5.84525 14.3515 6.099L13.7213 6.95211C13.4966 7.25662 13.3755 7.62346 13.3756 7.99996C13.3737 8.37749 13.4936 8.74585 13.718 9.05189L14.3482 9.905C14.5357 10.1587 14.6444 10.4606 14.6611 10.7741C14.6778 11.0875 14.6019 11.399 14.4425 11.6707C14.2832 11.9426 14.0474 12.1631 13.7635 12.3056C13.4796 12.4481 13.1598 12.5063 12.843 12.4733L11.7786 12.3617C11.3985 12.3223 11.0156 12.4025 10.6845 12.5906C10.3555 12.7783 10.095 13.0634 9.94018 13.4054L9.50517 14.3694C9.37585 14.6563 9.16481 14.9001 8.89764 15.0712C8.63047 15.2423 8.31865 15.3333 8 15.3333C7.68135 15.3333 7.36953 15.2423 7.10236 15.0712C6.83519 14.9001 6.62415 14.6563 6.49483 14.3694ZM10 7.99996C10 9.10453 9.10457 9.99996 8 9.99996C6.89543 9.99996 6 9.10453 6 7.99996C6 6.89539 6.89543 5.99996 8 5.99996C9.10457 5.99996 10 6.89539 10 7.99996Z" fill="black"/>
</svg>
