<svg width="96" height="96" viewBox="0 0 96 96" fill="none" xmlns="http://www.w3.org/2000/svg">
<path fill-rule="evenodd" clip-rule="evenodd" d="M44.6458 4H51.3542C53.4626 3.99994 55.2819 3.99988 56.7801 4.12229C58.3615 4.2515 59.9344 4.53676 61.4479 5.30794C63.7058 6.45842 65.5416 8.29418 66.6921 10.5521C67.4633 12.0656 67.7485 13.6385 67.8777 15.2199C67.9875 16.563 67.9988 18.1639 67.9999 20H84C86.2091 20 88 21.7909 88 24C88 26.2091 86.2091 28 84 28H80V68.9651C80.0001 72.1849 80.0001 74.8426 79.8232 77.0073C79.6395 79.2557 79.2453 81.3225 78.2561 83.2638C76.7221 86.2744 74.2744 88.7221 71.2639 90.2561C69.3225 91.2453 67.2557 91.6395 65.0073 91.8232C62.8425 92.0001 60.1851 92.0001 56.9653 92H39.0347C35.8149 92.0001 33.1575 92.0001 30.9927 91.8232C28.7443 91.6395 26.6775 91.2453 24.7362 90.2561C21.7256 88.7221 19.2779 86.2744 17.7439 83.2638C16.7547 81.3225 16.3605 79.2557 16.1768 77.0073C15.9999 74.8425 16 72.1851 16 68.9652L16 28H12C9.79086 28 8 26.2091 8 24C8 21.7909 9.79086 20 12 20H28.0001C28.0012 18.1639 28.0125 16.563 28.1223 15.2199C28.2515 13.6385 28.5368 12.0656 29.3079 10.5521C30.4584 8.29418 32.2942 6.45842 34.5521 5.30794C36.0656 4.53676 37.6385 4.2515 39.2199 4.12229C40.7181 3.99988 42.5374 3.99994 44.6458 4ZM40 42C42.2091 42 44 43.7909 44 46V66C44 68.2091 42.2091 70 40 70C37.7909 70 36 68.2091 36 66V46C36 43.7909 37.7909 42 40 42ZM60 46C60 43.7909 58.2091 42 56 42C53.7909 42 52 43.7909 52 46V66C52 68.2091 53.7909 70 56 70C58.2091 70 60 68.2091 60 66V46Z" fill="black"/>
</svg>
