<svg width="16" height="16" viewBox="0 0 16 16" fill="none" xmlns="http://www.w3.org/2000/svg">
<mask id="mask0_45_2444" style="mask-type:alpha" maskUnits="userSpaceOnUse" x="0" y="0" width="16" height="16">
<rect width="16" height="16" fill="#D9D9D9"/>
</mask>
<g mask="url(#mask0_45_2444)">
<path d="M3.09274 14.2333C2.72228 14.2333 2.40872 14.1049 2.15206 13.8483C1.89539 13.5916 1.76706 13.278 1.76706 12.9076V3.09228C1.76706 2.72183 1.89539 2.40827 2.15206 2.1516C2.40872 1.89493 2.72228 1.7666 3.09274 1.7666H12.908C13.2785 1.7666 13.5921 1.89493 13.8487 2.1516C14.1054 2.40827 14.2337 2.72183 14.2337 3.09228V12.9076C14.2337 13.278 14.1054 13.5916 13.8487 13.8483C13.5921 14.1049 13.2785 14.2333 12.908 14.2333H3.09274ZM2.86706 5.5517H13.1337V3.09228C13.1337 3.03582 13.1102 2.98412 13.0631 2.93718C13.0162 2.89013 12.9645 2.8666 12.908 2.8666H3.09274C3.03627 2.8666 2.98457 2.89013 2.93764 2.93718C2.89058 2.98412 2.86706 3.03582 2.86706 3.09228V5.5517ZM2.86706 9.34817H13.1337V6.6517H2.86706V9.34817ZM3.09274 13.1333H12.908C12.9645 13.1333 13.0162 13.1097 13.0631 13.0627C13.1102 13.0158 13.1337 12.9641 13.1337 12.9076V10.4482H2.86706V12.9076C2.86706 12.9641 2.89058 13.0158 2.93764 13.0627C2.98457 13.1097 3.03627 13.1333 3.09274 13.1333ZM4.54401 4.8664C4.35591 4.8664 4.19861 4.80272 4.07211 4.67537C3.94573 4.54813 3.88254 4.39047 3.88254 4.20237C3.88254 4.01415 3.94616 3.85685 4.07339 3.73047C4.20062 3.60397 4.35835 3.54072 4.54657 3.54072C4.73467 3.54072 4.89197 3.60433 5.01847 3.73157C5.14485 3.85892 5.20804 4.01665 5.20804 4.20475C5.20804 4.39297 5.14442 4.55027 5.01719 4.67665C4.88996 4.80315 4.73223 4.8664 4.54401 4.8664ZM4.54401 8.66269C4.35591 8.66269 4.19861 8.59907 4.07211 8.47184C3.94573 8.3446 3.88254 8.18687 3.88254 7.99865C3.88254 7.81055 3.94616 7.65325 4.07339 7.52675C4.20062 7.40037 4.35835 7.33718 4.54657 7.33718C4.73467 7.33718 4.89197 7.4008 5.01847 7.52804C5.14485 7.65527 5.20804 7.813 5.20804 8.00122C5.20804 8.18932 5.14442 8.34662 5.01719 8.47312C4.88996 8.5995 4.73223 8.66269 4.54401 8.66269ZM4.54401 12.4592C4.35591 12.4592 4.19861 12.3955 4.07211 12.2683C3.94573 12.1409 3.88254 11.9832 3.88254 11.7951C3.88254 11.6069 3.94616 11.4496 4.07339 11.3232C4.20062 11.1967 4.35835 11.1335 4.54657 11.1335C4.73467 11.1335 4.89197 11.1971 5.01847 11.3245C5.14485 11.4517 5.20804 11.6094 5.20804 11.7975C5.20804 11.9857 5.14442 12.143 5.01719 12.2694C4.88996 12.3959 4.73223 12.4592 4.54401 12.4592Z" fill="#33363D"/>
</g>
</svg>
