<svg width="96" height="96" viewBox="0 0 96 96" fill="none" xmlns="http://www.w3.org/2000/svg">
<path fill-rule="evenodd" clip-rule="evenodd" d="M42.8257 5.27639C46.098 3.71256 49.902 3.71256 53.1743 5.27639C55.1048 6.19896 56.522 7.74581 57.7467 9.37876C58.9514 10.9849 60.285 13.1205 61.8821 15.678L61.9762 15.8288C63.3285 17.9941 63.626 18.4042 63.9371 18.6876C64.3631 19.0758 64.868 19.3672 65.4171 19.5421C65.8181 19.6698 66.322 19.7224 68.8734 19.8109L69.0511 19.817C72.0644 19.9214 74.5807 20.0085 76.574 20.2487C78.6006 20.4929 80.6488 20.9468 82.413 22.1573C85.4035 24.2093 87.3055 27.5037 87.5873 31.1195C87.7535 33.2526 87.1225 35.2534 86.3207 37.1305C85.532 38.9769 84.3493 41.1998 82.9329 43.8618L82.8496 44.0184C81.6505 46.2721 81.4441 46.7349 81.3542 47.146C81.2311 47.709 81.2311 48.2919 81.3542 48.8549C81.4441 49.266 81.6505 49.7288 82.8496 51.9825L82.9329 52.1391C84.3493 54.8011 85.532 57.024 86.3207 58.8704C87.1225 60.7475 87.7535 62.7483 87.5873 64.8814C87.3055 68.4972 85.4034 71.7916 82.413 73.8435C80.6488 75.0541 78.6006 75.508 76.574 75.7522C74.5808 75.9924 72.0646 76.0795 69.0513 76.1839L68.8734 76.19C66.322 76.2784 65.8181 76.3311 65.4171 76.4588C64.868 76.6336 64.3631 76.9251 63.9371 77.3132C63.626 77.5966 63.3285 78.0068 61.9762 80.1721L61.882 80.3231C60.2849 82.8805 58.9514 85.016 57.7467 86.6221C56.522 88.2551 55.1048 89.8019 53.1743 90.7245C49.902 92.2883 46.098 92.2883 42.8257 90.7245C40.8953 89.8019 39.478 88.2551 38.2533 86.6221C37.0487 85.016 35.7151 82.8805 34.1181 80.3231L34.0238 80.1721C32.6716 78.0068 32.374 77.5966 32.0629 77.3132C31.6369 76.9251 31.1321 76.6336 30.5829 76.4588C30.1819 76.3311 29.678 76.2784 27.1267 76.19L26.9487 76.1839C23.9355 76.0795 21.4193 75.9924 19.426 75.7522C17.3995 75.508 15.3512 75.0541 13.587 73.8435C10.5966 71.7916 8.69458 68.4972 8.41275 64.8814C8.24649 62.7483 8.87749 60.7475 9.67929 58.8704C10.468 57.024 11.6506 54.8013 13.0669 52.1394L13.1504 51.9825C14.3495 49.7288 14.5559 49.266 14.6458 48.8549C14.7689 48.2919 14.7689 47.709 14.6458 47.146C14.5559 46.7349 14.3495 46.2721 13.1504 44.0184L13.067 43.8615C11.6506 41.1996 10.468 38.9769 9.67929 37.1305C8.87749 35.2534 8.24649 33.2526 8.41275 31.1195C8.69458 27.5037 10.5966 24.2093 13.587 22.1573C15.3512 20.9468 17.3995 20.4929 19.426 20.2487C21.4193 20.0085 23.9356 19.9214 26.949 19.817L27.1267 19.8109C29.678 19.7224 30.1819 19.6698 30.5829 19.5421C31.1321 19.3672 31.6369 19.0758 32.0629 18.6876C32.374 18.4042 32.6716 17.9941 34.0238 15.8288L34.118 15.678C35.715 13.1205 37.0486 10.9849 38.2533 9.37876C39.478 7.74581 40.8953 6.19896 42.8257 5.27639ZM40.8093 20.0664C40.7382 20.1802 40.6678 20.2932 40.598 20.4053C39.5797 22.0398 38.6836 23.4781 37.4506 24.6014C36.1725 25.7658 34.658 26.6402 33.0106 27.1649C31.4212 27.6711 29.7277 27.7279 27.8029 27.7925C27.671 27.7969 27.5379 27.8014 27.4037 27.8061C24.1666 27.9182 21.9956 27.9969 20.383 28.1912C18.7647 28.3863 18.2701 28.6462 18.1133 28.7538C17.1165 29.4378 16.4825 30.5359 16.3886 31.7411C16.3738 31.9307 16.3959 32.489 17.0363 33.988C17.6743 35.4817 18.6916 37.4012 20.213 40.2607C20.2761 40.3793 20.3387 40.4967 20.4009 40.6132C21.3073 42.3124 22.1048 43.8075 22.4612 45.437C22.8305 47.126 22.8305 48.8749 22.4612 50.5639C22.1048 52.1934 21.3073 53.6885 20.4009 55.3876C20.3387 55.5042 20.2761 55.6216 20.213 55.7401C18.6916 58.5997 17.6743 60.5192 17.0363 62.0128C16.3959 63.5119 16.3738 64.0702 16.3886 64.2597C16.4825 65.465 17.1165 66.5631 18.1133 67.2471C18.2701 67.3547 18.7647 67.6146 20.383 67.8096C21.9956 68.004 24.1666 68.0827 27.4037 68.1948C27.5379 68.1995 27.671 68.204 27.803 68.2084C29.7277 68.273 31.4212 68.3298 33.0106 68.836C34.658 69.3607 36.1725 70.2351 37.4506 71.3995C38.6837 72.5228 39.5797 73.961 40.598 75.5956C40.6678 75.7077 40.7382 75.8207 40.8093 75.9345C42.525 78.6819 43.6787 80.5227 44.6532 81.822C45.6313 83.1261 46.1037 83.4245 46.2752 83.5064C47.366 84.0277 48.634 84.0277 49.7248 83.5064C49.8963 83.4245 50.3687 83.1261 51.3468 81.822C52.3213 80.5227 53.475 78.6819 55.1907 75.9345C55.2618 75.8207 55.3322 75.7077 55.402 75.5956C56.4204 73.961 57.3164 72.5228 58.5494 71.3995C59.8275 70.2351 61.3421 69.3607 62.9895 68.836C64.5788 68.3298 66.2723 68.273 68.1971 68.2084C68.329 68.204 68.4621 68.1995 68.5963 68.1948C71.8334 68.0827 74.0044 68.004 75.617 67.8096C77.2354 67.6146 77.73 67.3547 77.8867 67.2471C78.8835 66.5631 79.5175 65.465 79.6115 64.2597C79.6262 64.0702 79.6041 63.5119 78.9638 62.0128C78.3258 60.5192 77.3084 58.5997 75.787 55.7401C75.7239 55.6216 75.6613 55.5042 75.5991 55.3877C74.6927 53.6885 73.8952 52.1934 73.5389 50.5639C73.1695 48.8749 73.1695 47.126 73.5389 45.437C73.8952 43.8075 74.6927 42.3124 75.5991 40.6132C75.6613 40.4967 75.7239 40.3793 75.787 40.2607C77.3084 37.4012 78.3258 35.4817 78.9638 33.988C79.6041 32.489 79.6262 31.9307 79.6115 31.7411C79.5175 30.5359 78.8835 29.4378 77.8867 28.7538C77.73 28.6462 77.2354 28.3863 75.617 28.1912C74.0044 27.9969 71.8334 27.9182 68.5963 27.8061C68.4621 27.8014 68.3291 27.7969 68.1971 27.7925C66.2724 27.7279 64.5788 27.6711 62.9895 27.1649C61.3421 26.6402 59.8275 25.7658 58.5494 24.6014C57.3164 23.4781 56.4204 22.0398 55.4021 20.4053C55.3322 20.2932 55.2618 20.1802 55.1907 20.0664C53.475 17.319 52.3213 15.4782 51.3468 14.1788C50.3687 12.8748 49.8963 12.5764 49.7248 12.4945C48.634 11.9732 47.366 11.9732 46.2752 12.4945C46.1037 12.5764 45.6313 12.8748 44.6532 14.1788C43.6787 15.4782 42.525 17.319 40.8093 20.0664Z" fill="#33363D"/>
<path fill-rule="evenodd" clip-rule="evenodd" d="M48 40.0005C43.5817 40.0005 40 43.5822 40 48.0005C40 52.4188 43.5817 56.0005 48 56.0005C52.4183 56.0005 56 52.4188 56 48.0005C56 43.5822 52.4183 40.0005 48 40.0005ZM32 48.0005C32 39.1639 39.1634 32.0005 48 32.0005C56.8366 32.0005 64 39.1639 64 48.0005C64 56.837 56.8366 64.0005 48 64.0005C39.1634 64.0005 32 56.837 32 48.0005Z" fill="#33363D"/>
</svg>
