<svg width="16" height="17" viewBox="0 0 16 17" fill="none" xmlns="http://www.w3.org/2000/svg">
<path fill-rule="evenodd" clip-rule="evenodd" d="M10.5286 2.36143C11.3413 1.5488 12.6588 1.54879 13.4714 2.36143C14.2841 3.17406 14.2841 4.4916 13.4714 5.30424L5.09628 13.6794C5.08308 13.6926 5.07 13.7057 5.05702 13.7187C4.8654 13.9107 4.69644 14.08 4.49275 14.2048C4.3138 14.3144 4.11871 14.3952 3.91464 14.4442C3.68235 14.5 3.44318 14.4998 3.17192 14.4995C3.15356 14.4995 3.13505 14.4995 3.11638 14.4995H2.00002C1.63183 14.4995 1.33335 14.201 1.33335 13.8328V12.7165C1.33335 12.6978 1.33333 12.6793 1.33332 12.661C1.33306 12.3897 1.33284 12.1505 1.38861 11.9182C1.4376 11.7142 1.51841 11.5191 1.62807 11.3401C1.75289 11.1364 1.92217 10.9675 2.11415 10.7758C2.12715 10.7629 2.14025 10.7498 2.15345 10.7366L10.5286 2.36143ZM12.5286 3.30424C12.2367 3.0123 11.7634 3.0123 11.4714 3.30424L3.09626 11.6794C2.84322 11.9324 2.79656 11.9852 2.76492 12.0368C2.72837 12.0964 2.70144 12.1615 2.6851 12.2295C2.67097 12.2884 2.66668 12.3586 2.66668 12.7165V13.1662H3.11638C3.47423 13.1662 3.5445 13.1619 3.60338 13.1477C3.6714 13.1314 3.73643 13.1045 3.79608 13.0679C3.84771 13.0363 3.90043 12.9896 4.15347 12.7366L12.5286 4.36143C12.8206 4.06949 12.8206 3.59617 12.5286 3.30424ZM7.33333 13.8328C7.33333 13.4647 7.63181 13.1662 8 13.1662H14C14.3682 13.1662 14.6667 13.4647 14.6667 13.8328C14.6667 14.201 14.3682 14.4995 14 14.4995H8C7.63181 14.4995 7.33333 14.201 7.33333 13.8328Z" fill="#33363D"/>
</svg>
