<svg width="16" height="17" viewBox="0 0 16 17" fill="none" xmlns="http://www.w3.org/2000/svg">
<path fill-rule="evenodd" clip-rule="evenodd" d="M5.17246 1.83398H10.8275C11.3642 1.83398 11.8071 1.83397 12.1679 1.86345C12.5426 1.89406 12.8871 1.95977 13.2106 2.12463C13.7124 2.3803 14.1203 2.78824 14.376 3.29001C14.5409 3.61357 14.6066 3.95804 14.6372 4.33277C14.6667 4.69356 14.6667 5.13646 14.6667 5.6731V11.3282C14.6667 11.8648 14.6667 12.3077 14.6372 12.6685C14.6066 13.0433 14.5409 13.3877 14.376 13.7113C14.1203 14.2131 13.7124 14.621 13.2106 14.8767C12.8871 15.0415 12.5426 15.1072 12.1679 15.1379C11.8071 15.1673 11.3642 15.1673 10.8275 15.1673H5.17245C4.63581 15.1673 4.1929 15.1673 3.83211 15.1379C3.45738 15.1072 3.11291 15.0415 2.78935 14.8767C2.28759 14.621 1.87964 14.2131 1.62398 13.7113C1.45912 13.3877 1.39341 13.0433 1.36279 12.6685C1.33331 12.3077 1.33332 11.8648 1.33333 11.3282V5.67312C1.33332 5.13647 1.33331 4.69356 1.36279 4.33277C1.39341 3.95804 1.45912 3.61357 1.62398 3.29001C1.87964 2.78824 2.28759 2.3803 2.78935 2.12463C3.11291 1.95977 3.45738 1.89406 3.83211 1.86345C4.19291 1.83397 4.63582 1.83398 5.17246 1.83398ZM3.94069 3.19235C3.64841 3.21623 3.49894 3.25952 3.39467 3.31264C3.14379 3.44047 2.93982 3.64445 2.81199 3.89533C2.75886 3.9996 2.71558 4.14907 2.6917 4.44134C2.66718 4.7414 2.66666 5.1296 2.66666 5.70065V11.3007C2.66666 11.8717 2.66718 12.2599 2.6917 12.56C2.71558 12.8522 2.75886 13.0017 2.81199 13.106C2.93982 13.3569 3.14379 13.5608 3.39467 13.6887C3.49894 13.7418 3.64841 13.7851 3.94069 13.8089C4.24075 13.8335 4.62894 13.834 5.2 13.834H10.8C11.371 13.834 11.7592 13.8335 12.0593 13.8089C12.3516 13.7851 12.501 13.7418 12.6053 13.6887C12.8562 13.5608 13.0602 13.3569 13.188 13.106C13.2411 13.0017 13.2844 12.8522 13.3083 12.56C13.3328 12.2599 13.3333 11.8717 13.3333 11.3007V5.70065C13.3333 5.1296 13.3328 4.7414 13.3083 4.44134C13.2844 4.14907 13.2411 3.9996 13.188 3.89533C13.0602 3.64445 12.8562 3.44047 12.6053 3.31264C12.501 3.25952 12.3516 3.21623 12.0593 3.19235C11.7592 3.16784 11.371 3.16732 10.8 3.16732H5.2C4.62894 3.16732 4.24075 3.16784 3.94069 3.19235ZM8 5.16732C8.36819 5.16732 8.66666 5.4658 8.66666 5.83398V7.83398H10.6667C11.0349 7.83398 11.3333 8.13246 11.3333 8.50065C11.3333 8.86884 11.0349 9.16732 10.6667 9.16732H8.66666V11.1673C8.66666 11.5355 8.36819 11.834 8 11.834C7.6318 11.834 7.33333 11.5355 7.33333 11.1673V9.16732H5.33333C4.96514 9.16732 4.66666 8.86884 4.66666 8.50065C4.66666 8.13246 4.96514 7.83398 5.33333 7.83398H7.33333V5.83398C7.33333 5.4658 7.6318 5.16732 8 5.16732Z" fill="#33363D"/>
</svg>
