<svg width="14" height="14" viewBox="0 0 14 14" fill="none" xmlns="http://www.w3.org/2000/svg">
<rect x="13.667" y="0.333344" width="13.3333" height="13.3333" rx="6.66667" transform="rotate(90 13.667 0.333344)" fill="#CDD1D5"/>
<path d="M9.62402 3.62308C9.83225 3.41485 10.1696 3.41497 10.3779 3.62308C10.5862 3.83136 10.5862 4.1687 10.3779 4.37698L7.75391 7.00003L10.377 9.62308C10.5852 9.83136 10.5852 10.1687 10.377 10.377C10.1687 10.5852 9.83131 10.5852 9.62305 10.377L7 7.75394L4.37793 10.377C4.16964 10.5852 3.83228 10.5852 3.62402 10.377C3.41594 10.1687 3.41588 9.83131 3.62402 9.62308L6.24609 7.00003L3.62305 4.37698C3.41492 4.16871 3.41486 3.83131 3.62305 3.62308C3.83128 3.41484 4.16866 3.41494 4.37695 3.62308L7 6.24612L9.62402 3.62308Z" fill="#33363D"/>
</svg>
