<svg width="16" height="16" viewBox="0 0 16 16" fill="none" xmlns="http://www.w3.org/2000/svg">
<path fill-rule="evenodd" clip-rule="evenodd" d="M5.83913 0.666016H10.1609C10.6975 0.666007 11.1404 0.666 11.5012 0.695479C11.8759 0.726095 12.2204 0.791805 12.544 0.956666C13.0457 1.21233 13.4537 1.62028 13.7094 2.12204C13.8742 2.4456 13.9399 2.79007 13.9705 3.1648C14 3.52559 14 3.96849 14 4.50513V11.4936C14 12.0302 14 12.4731 13.9705 12.8339C13.9399 13.2086 13.8742 13.5531 13.7094 13.8767C13.4537 14.3784 13.0457 14.7864 12.544 15.042C12.2204 15.2069 11.8759 15.2726 11.5012 15.3032C11.1404 15.3327 10.6975 15.3327 10.1609 15.3327H5.83912C5.30248 15.3327 4.85958 15.3327 4.49878 15.3032C4.12405 15.2726 3.77958 15.2069 3.45603 15.042C2.95426 14.7864 2.54631 14.3784 2.29065 13.8767C2.12579 13.5531 2.06008 13.2086 2.02946 12.8339C1.99998 12.4731 1.99999 12.0302 2 11.4935V4.50515C1.99999 3.9685 1.99998 3.5256 2.02946 3.1648C2.06008 2.79007 2.12579 2.4456 2.29065 2.12204C2.54631 1.62028 2.95426 1.21233 3.45603 0.956666C3.77958 0.791805 4.12405 0.726095 4.49878 0.695479C4.85958 0.666 5.30249 0.666007 5.83913 0.666016ZM4.60736 2.02438C4.31508 2.04826 4.16561 2.09155 4.06135 2.14467C3.81046 2.27251 3.60649 2.47648 3.47866 2.72736C3.42553 2.83163 3.38225 2.9811 3.35837 3.27338C3.33385 3.57343 3.33333 3.96163 3.33333 4.53268V11.466C3.33333 12.0371 3.33385 12.4253 3.35837 12.7253C3.38225 13.0176 3.42553 13.1671 3.47866 13.2713C3.60649 13.5222 3.81046 13.7262 4.06135 13.854C4.16561 13.9072 4.31508 13.9504 4.60736 13.9743C4.90742 13.9988 5.29561 13.9993 5.86667 13.9993H10.1333C10.7044 13.9993 11.0926 13.9988 11.3926 13.9743C11.6849 13.9504 11.8344 13.9072 11.9387 13.854C12.1895 13.7262 12.3935 13.5222 12.5213 13.2713C12.5745 13.1671 12.6178 13.0176 12.6416 12.7253C12.6661 12.4253 12.6667 12.0371 12.6667 11.466V4.53268C12.6667 3.96163 12.6661 3.57343 12.6416 3.27338C12.6178 2.9811 12.5745 2.83163 12.5213 2.72736C12.3935 2.47648 12.1895 2.27251 11.9387 2.14467C11.8344 2.09155 11.6849 2.04826 11.3926 2.02438C11.0926 1.99987 10.7044 1.99935 10.1333 1.99935H5.86667C5.29561 1.99935 4.90742 1.99987 4.60736 2.02438ZM4.66667 4.66602C4.66667 4.29783 4.96514 3.99935 5.33333 3.99935H10.6667C11.0349 3.99935 11.3333 4.29783 11.3333 4.66602C11.3333 5.03421 11.0349 5.33268 10.6667 5.33268H5.33333C4.96514 5.33268 4.66667 5.03421 4.66667 4.66602ZM4.66667 7.33268C4.66667 6.96449 4.96514 6.66602 5.33333 6.66602H9.33333C9.70152 6.66602 10 6.96449 10 7.33268C10 7.70087 9.70152 7.99935 9.33333 7.99935H5.33333C4.96514 7.99935 4.66667 7.70087 4.66667 7.33268ZM4.66667 9.99935C4.66667 9.63116 4.96514 9.33268 5.33333 9.33268H6.66667C7.03486 9.33268 7.33333 9.63116 7.33333 9.99935C7.33333 10.3675 7.03486 10.666 6.66667 10.666H5.33333C4.96514 10.666 4.66667 10.3675 4.66667 9.99935Z" fill="#33363D"/>
</svg>
