<svg width="16" height="16" viewBox="0 0 16 16" fill="none" xmlns="http://www.w3.org/2000/svg">
<mask id="mask0_45_2421" style="mask-type:alpha" maskUnits="userSpaceOnUse" x="0" y="0" width="16" height="16">
<rect width="16" height="16" fill="#D9D9D9"/>
</mask>
<g mask="url(#mask0_45_2421)">
<path d="M3.09274 14.2333C2.72228 14.2333 2.40872 14.1049 2.15206 13.8483C1.89539 13.5916 1.76706 13.278 1.76706 12.9076V3.09228C1.76706 2.72183 1.89539 2.40827 2.15206 2.1516C2.40872 1.89493 2.72228 1.7666 3.09274 1.7666H12.908C13.2785 1.7666 13.5921 1.89493 13.8487 2.1516C14.1054 2.40827 14.2337 2.72183 14.2337 3.09228V12.9076C14.2337 13.278 14.1054 13.5916 13.8487 13.8483C13.5921 14.1049 13.2785 14.2333 12.908 14.2333H3.09274ZM3.09274 13.1333H12.908C12.9645 13.1333 13.0162 13.1097 13.0631 13.0627C13.1102 13.0158 13.1337 12.9641 13.1337 12.9076V3.09228C13.1337 3.03582 13.1102 2.98412 13.0631 2.93718C13.0162 2.89013 12.9645 2.8666 12.908 2.8666H3.09274C3.03627 2.8666 2.98457 2.89013 2.93764 2.93718C2.89058 2.98412 2.86706 3.03582 2.86706 3.09228V12.9076C2.86706 12.9641 2.89058 13.0158 2.93764 13.0627C2.98457 13.1097 3.03627 13.1333 3.09274 13.1333ZM4.81332 11.4833H11.2439C11.3765 11.4833 11.4748 11.4231 11.5387 11.3027C11.6026 11.1824 11.5927 11.0659 11.509 10.9531L9.76039 8.61062C9.6917 8.52225 9.60333 8.47807 9.49529 8.47807C9.38712 8.47807 9.29876 8.52225 9.23019 8.61062L7.43627 10.9474L6.23471 9.40738C6.16614 9.32366 6.07893 9.2818 5.97309 9.2818C5.86737 9.2818 5.78016 9.32605 5.71147 9.41454L4.55519 10.9531C4.46682 11.0659 4.4546 11.1824 4.51852 11.3027C4.58244 11.4231 4.68071 11.4833 4.81332 11.4833ZM5.43372 6.34994C5.68758 6.34994 5.90379 6.26059 6.08236 6.0819C6.26104 5.90334 6.35039 5.68712 6.35039 5.43327C6.35039 5.17941 6.26104 4.9632 6.08236 4.78463C5.90379 4.60595 5.68758 4.5166 5.43372 4.5166C5.17987 4.5166 4.96366 4.60595 4.78509 4.78463C4.6064 4.9632 4.51706 5.17941 4.51706 5.43327C4.51706 5.68712 4.6064 5.90334 4.78509 6.0819C4.96366 6.26059 5.17987 6.34994 5.43372 6.34994Z" fill="#33363D"/>
</g>
</svg>
