<svg width="24" height="24" viewBox="0 0 24 24" fill="none" xmlns="http://www.w3.org/2000/svg">
<path d="M3.7331 24C3.10907 24 2.58088 23.7803 2.14853 23.3408C1.71618 22.9014 1.5 22.3646 1.5 21.7303V4.92549C1.5 4.29123 1.71618 3.75438 2.14853 3.31494C2.58088 2.8755 3.10907 2.65578 3.7331 2.65578H5.44337V0.965512C5.44337 0.690339 5.53406 0.460574 5.71544 0.276219C5.89682 0.0920727 6.12288 0 6.39362 0C6.66456 0 6.89062 0.0920727 7.07179 0.276219C7.25318 0.460574 7.34387 0.690339 7.34387 0.965512V2.65578H16.7037V0.941657C16.7037 0.674435 16.7923 0.450635 16.9696 0.270255C17.1471 0.0900847 17.3672 0 17.6302 0C17.8931 0 18.1132 0.0900847 18.2904 0.270255C18.4679 0.450635 18.5566 0.674435 18.5566 0.941657V2.65578H20.2669C20.8909 2.65578 21.4191 2.8755 21.8515 3.31494C22.2838 3.75438 22.5 4.29123 22.5 4.92549V21.7303C22.5 22.3646 22.2838 22.9014 21.8515 23.3408C21.4191 23.7803 20.8909 24 20.2669 24H3.7331ZM3.7331 22.1167H20.2669C20.362 22.1167 20.4491 22.0764 20.5282 21.9958C20.6074 21.9155 20.6471 21.827 20.6471 21.7303V9.94766H3.35294V21.7303C3.35294 21.827 3.39257 21.9155 3.47184 21.9958C3.5509 22.0764 3.63799 22.1167 3.7331 22.1167ZM3.35294 8.06435H20.6471V4.92549C20.6471 4.82881 20.6074 4.7403 20.5282 4.65994C20.4491 4.57938 20.362 4.5391 20.2669 4.5391H3.7331C3.63799 4.5391 3.5509 4.57938 3.47184 4.65994C3.39257 4.7403 3.35294 4.82881 3.35294 4.92549V8.06435ZM7.05882 14.2695C6.79591 14.2695 6.57582 14.1794 6.39856 13.999C6.22109 13.8188 6.13235 13.5951 6.13235 13.3279C6.13235 13.0607 6.22109 12.837 6.39856 12.6568C6.57582 12.4764 6.79591 12.3862 7.05882 12.3862H16.9412C17.2041 12.3862 17.4242 12.4764 17.6014 12.6568C17.7789 12.837 17.8676 13.0607 17.8676 13.3279C17.8676 13.5951 17.7789 13.8188 17.6014 13.999C17.4242 14.1794 17.2041 14.2695 16.9412 14.2695H7.05882ZM7.05882 19.2917C6.79591 19.2917 6.57582 19.2015 6.39856 19.0211C6.22109 18.841 6.13235 18.6173 6.13235 18.3501C6.13235 18.0828 6.22109 17.8591 6.39856 17.679C6.57582 17.4986 6.79591 17.4084 7.05882 17.4084H13.2353C13.4982 17.4084 13.7183 17.4986 13.8956 17.679C14.073 17.8591 14.1618 18.0828 14.1618 18.3501C14.1618 18.6173 14.073 18.841 13.8956 19.0211C13.7183 19.2015 13.4982 19.2917 13.2353 19.2917H7.05882Z" fill="#8A949E"/>
</svg>
