<svg width="41" height="40" viewBox="0 0 41 40" fill="none" xmlns="http://www.w3.org/2000/svg">
<path d="M20.6572 36.793C20.4441 36.8463 20.2208 36.8466 20.0078 36.793L20.333 35.5L20.6572 36.793ZM20.3291 2.5C20.7388 2.5 21.1262 2.68823 21.3789 3.01074C23.2584 5.40978 26.1429 6.96479 29.4131 6.96484H29.4209C30.7394 6.96484 32.0005 6.69682 33.1787 6.2334C33.5891 6.0721 34.0526 6.12478 34.417 6.37305C34.7815 6.62138 35 7.03356 35 7.47461V18.2002C35 25.6813 31.3996 30.367 27.8154 33.1406C26.0367 34.517 24.2641 35.4238 22.9375 35.9873C22.2726 36.2697 21.7152 36.4687 21.3184 36.5977C21.1198 36.6622 20.961 36.7092 20.8486 36.7412C20.7926 36.7572 20.748 36.7697 20.7158 36.7783L20.6768 36.7881L20.6641 36.792L20.6602 36.793H20.6582C20.6569 36.7906 20.642 36.7348 20.333 35.5C20.0072 36.7929 20.0066 36.7931 20.0059 36.793L20.0039 36.792L20 36.791L19.9873 36.7881L19.9492 36.7773C19.917 36.7687 19.8716 36.7563 19.8154 36.7402C19.7032 36.708 19.5448 36.6604 19.3467 36.5957C18.9499 36.4661 18.3914 36.2668 17.7266 35.9834C16.4002 35.418 14.6278 34.5095 12.8496 33.1318C9.26662 30.3559 5.66699 25.67 5.66699 18.2002V7.47461C5.66699 7.0333 5.88515 6.62035 6.25 6.37207C6.61481 6.12393 7.07883 6.07245 7.48926 6.23438C8.66192 6.69699 9.92602 6.96483 11.2451 6.96484C14.5153 6.96484 17.3998 5.40982 19.2793 3.01074C19.532 2.68819 19.9193 2.50004 20.3291 2.5ZM20.3291 5.8418C18.0102 8.16509 14.8155 9.63086 11.2451 9.63086C10.2393 9.63085 9.26484 9.50881 8.33301 9.28809V18.2002C8.33301 24.6699 11.3997 28.6344 14.4834 31.0234C16.0381 32.2279 17.5989 33.03 18.7725 33.5303C19.3576 33.7797 19.8424 33.952 20.1748 34.0605C20.2327 34.0795 20.2857 34.0972 20.334 34.1123C20.3823 34.0973 20.4362 34.0804 20.4941 34.0615C20.8264 33.9535 21.3105 33.7817 21.8955 33.5332C23.0687 33.0348 24.6292 32.235 26.1836 31.0322C29.2661 28.6468 32.333 24.6823 32.333 18.2002V9.28809C31.4014 9.50894 30.4277 9.63086 29.4209 9.63086H29.4131C25.8427 9.63081 22.648 8.16512 20.3291 5.8418ZM26.0762 15.3721C26.6071 14.8621 27.4507 14.8786 27.9609 15.4092C28.4711 15.9402 28.4548 16.7848 27.9238 17.2949L19.249 25.6279C18.9926 25.8743 18.6485 26.0086 18.293 26C17.9373 25.9912 17.5996 25.8399 17.3555 25.5811L12.6963 20.6416C12.1911 20.1059 12.2163 19.2621 12.752 18.7568C13.2876 18.2517 14.1315 18.2759 14.6367 18.8115L18.3721 22.7725L26.0762 15.3721Z" fill="#303336"/>
</svg>
