<svg width="96" height="96" viewBox="0 0 96 96" fill="none" xmlns="http://www.w3.org/2000/svg">
<path fill-rule="evenodd" clip-rule="evenodd" d="M36 20C30.4772 20 26 24.4772 26 30C26 35.5228 30.4772 40 36 40C41.5229 40 46 35.5228 46 30C46 24.4772 41.5229 20 36 20ZM18 30C18 20.0589 26.0589 12 36 12C45.9411 12 54 20.0589 54 30C54 39.9411 45.9411 48 36 48C26.0589 48 18 39.9411 18 30ZM76 12C78.2091 12 80 13.7909 80 16V24H88C90.2091 24 92 25.7909 92 28C92 30.2091 90.2091 32 88 32H80V40C80 42.2091 78.2091 44 76 44C73.7909 44 72 42.2091 72 40V32H64C61.7909 32 60 30.2091 60 28C60 25.7909 61.7909 24 64 24H72V16C72 13.7909 73.7909 12 76 12ZM27.0349 56H44.9651C48.185 55.9999 50.8425 55.9999 53.0073 56.1768C55.2557 56.3605 57.3225 56.7547 59.2639 57.7439C62.2744 59.2779 64.7221 61.7256 66.2561 64.7362C67.2453 66.6775 67.6395 68.7443 67.8232 70.9927C68.0001 73.1575 68.0001 75.815 68 79.0349V84C68 86.2091 66.2091 88 64 88C61.7909 88 60 86.2091 60 84V79.2C60 75.7737 59.9969 73.4445 59.8498 71.6441C59.7065 69.8905 59.4468 68.9937 59.1281 68.3681C58.3611 66.8628 57.1372 65.6389 55.6319 64.8719C55.0063 64.5532 54.1095 64.2935 52.3559 64.1502C50.5555 64.0031 48.2263 64 44.8 64H27.2C23.7737 64 21.4445 64.0031 19.6442 64.1502C17.8905 64.2935 16.9937 64.5532 16.3681 64.8719C14.8628 65.6389 13.6389 66.8628 12.872 68.3681C12.5532 68.9937 12.2935 69.8905 12.1502 71.6441C12.0031 73.4445 12 75.7737 12 79.2V84C12 86.2091 10.2091 88 8 88C5.79086 88 4 86.2091 4 84L4 79.0348C3.99995 75.8149 3.99991 73.1575 4.17678 70.9927C4.36048 68.7443 4.75474 66.6775 5.7439 64.7361C7.27787 61.7256 9.72556 59.2779 12.7362 57.7439C14.6775 56.7547 16.7443 56.3605 18.9927 56.1768C21.1575 55.9999 23.815 55.9999 27.0349 56Z" fill="#33363D"/>
</svg>
