<svg width="20" height="20" viewBox="0 0 20 20" fill="none" xmlns="http://www.w3.org/2000/svg">
<path fill-rule="evenodd" clip-rule="evenodd" d="M1.66666 5.00065C1.66666 4.08018 2.41286 3.33398 3.33333 3.33398C4.25381 3.33398 5 4.08018 5 5.00065C5 5.92113 4.25381 6.66732 3.33333 6.66732C2.41286 6.66732 1.66666 5.92113 1.66666 5.00065ZM6.66666 5.00065C6.66666 4.54041 7.03976 4.16732 7.5 4.16732L17.5 4.16732C17.9602 4.16732 18.3333 4.54041 18.3333 5.00065C18.3333 5.46089 17.9602 5.83399 17.5 5.83399L7.5 5.83398C7.03976 5.83398 6.66666 5.46089 6.66666 5.00065ZM1.66666 10.0007C1.66666 9.08018 2.41286 8.33398 3.33333 8.33398C4.25381 8.33398 5 9.08018 5 10.0007C5 10.9211 4.25381 11.6673 3.33333 11.6673C2.41286 11.6673 1.66666 10.9211 1.66666 10.0007ZM6.66666 10.0007C6.66666 9.54041 7.03976 9.16732 7.5 9.16732L17.5 9.16732C17.9602 9.16732 18.3333 9.54041 18.3333 10.0007C18.3333 10.4609 17.9602 10.834 17.5 10.834L7.5 10.834C7.03976 10.834 6.66666 10.4609 6.66666 10.0007ZM1.66666 15.0007C1.66666 14.0802 2.41286 13.334 3.33333 13.334C4.25381 13.334 5 14.0802 5 15.0007C5 15.9211 4.25381 16.6673 3.33333 16.6673C2.41286 16.6673 1.66666 15.9211 1.66666 15.0007ZM6.66666 15.0007C6.66666 14.5404 7.03976 14.1673 7.5 14.1673L17.5 14.1673C17.9602 14.1673 18.3333 14.5404 18.3333 15.0007C18.3333 15.4609 17.9602 15.834 17.5 15.834L7.5 15.834C7.03976 15.834 6.66666 15.4609 6.66666 15.0007Z" fill="#58616A"/>
</svg>
