<svg width="16" height="16" viewBox="0 0 16 16" fill="none" xmlns="http://www.w3.org/2000/svg">
<path fill-rule="evenodd" clip-rule="evenodd" d="M8.66667 1.34404C8.66667 1.32651 8.66667 1.31774 8.66591 1.30184C8.65018 0.972656 8.3607 0.683312 8.03151 0.667739C8.01562 0.666987 8.0104 0.666989 8.00001 0.666993H5.8391C5.30248 0.666985 4.85957 0.66698 4.49878 0.696457C4.12405 0.727074 3.77958 0.792783 3.45603 0.957644C2.95426 1.21331 2.54631 1.62125 2.29065 2.12302C2.12579 2.44658 2.06008 2.79105 2.02946 3.16578C1.99999 3.52657 1.99999 3.96948 2 4.50611V11.4945C1.99999 12.0312 1.99999 12.4741 2.02946 12.8349C2.06008 13.2096 2.12579 13.5541 2.29065 13.8776C2.54631 14.3794 2.95426 14.7873 3.45603 15.043C3.77958 15.2079 4.12405 15.2736 4.49878 15.3042C4.85958 15.3337 5.30248 15.3337 5.83912 15.3337H10.1609C10.6975 15.3337 11.1404 15.3337 11.5012 15.3042C11.8759 15.2736 12.2204 15.2079 12.544 15.043C13.0457 14.7873 13.4537 14.3794 13.7093 13.8776C13.8742 13.5541 13.9399 13.2096 13.9705 12.8349C14 12.4741 14 12.0312 14 11.4945V6.66695C14 6.6566 14 6.65142 13.9993 6.63554C13.9837 6.30632 13.6943 6.0168 13.3651 6.00109C13.3492 6.00033 13.3405 6.00033 13.323 6.00033L10.3787 6.00033C10.2105 6.00035 10.0466 6.00037 9.90785 5.98904C9.75545 5.97659 9.57563 5.94721 9.39468 5.85501C9.1438 5.72718 8.93983 5.5232 8.81199 5.27232C8.7198 5.09137 8.69042 4.91155 8.67797 4.75915C8.66663 4.62038 8.66665 4.45652 8.66667 4.28827L8.66667 1.34404ZM5.33333 8.66699C4.96514 8.66699 4.66667 8.96547 4.66667 9.33366C4.66667 9.70185 4.96514 10.0003 5.33333 10.0003H10.6667C11.0349 10.0003 11.3333 9.70185 11.3333 9.33366C11.3333 8.96547 11.0349 8.66699 10.6667 8.66699H5.33333ZM5.33333 11.3337C4.96514 11.3337 4.66667 11.6321 4.66667 12.0003C4.66667 12.3685 4.96514 12.667 5.33333 12.667H9.33333C9.70152 12.667 10 12.3685 10 12.0003C10 11.6321 9.70152 11.3337 9.33333 11.3337H5.33333Z" fill="#33363D"/>
<path d="M12.6053 4.66699C12.8011 4.66699 12.8989 4.66699 12.9791 4.61784C13.0923 4.54842 13.16 4.38489 13.129 4.25575C13.107 4.16431 13.0432 4.10055 12.9155 3.97302L10.694 1.75147C10.5664 1.62382 10.5027 1.55999 10.4112 1.53801C10.2821 1.50697 10.1186 1.57466 10.0492 1.68789C10 1.76806 10 1.86594 10 2.06169L10 4.13363C10 4.32031 10 4.41365 10.0363 4.48495C10.0683 4.54767 10.1193 4.59867 10.182 4.63062C10.2533 4.66696 10.3466 4.66696 10.5333 4.66696L12.6053 4.66699Z" fill="#33363D"/>
</svg>
