<svg width="16" height="16" viewBox="0 0 16 16" fill="none" xmlns="http://www.w3.org/2000/svg">
<mask id="mask0_45_2391" style="mask-type:alpha" maskUnits="userSpaceOnUse" x="0" y="0" width="16" height="16">
<rect width="16" height="16" fill="#D9D9D9"/>
</mask>
<g mask="url(#mask0_45_2391)">
<path d="M15.8053 6.16998C15.8053 6.98039 15.6592 7.74987 15.3668 8.4784C15.0744 9.20706 14.6809 9.86421 14.1864 10.4499C14.0726 10.5787 13.934 10.6504 13.7704 10.6649C13.6068 10.6795 13.4602 10.6219 13.3306 10.4922C13.2101 10.3718 13.1548 10.2299 13.1645 10.0664C13.1742 9.90271 13.2323 9.75275 13.3389 9.61648C13.7338 9.14265 14.0415 8.6115 14.2619 8.02302C14.4824 7.43443 14.5926 6.81675 14.5926 6.16998C14.5926 5.52321 14.4824 4.90931 14.2619 4.3283C14.0415 3.74728 13.7338 3.21985 13.3389 2.74602C13.2251 2.60975 13.1652 2.45936 13.159 2.29486C13.1529 2.13036 13.2113 1.98419 13.3341 1.85635C13.4539 1.72839 13.5974 1.66984 13.7648 1.68072C13.9321 1.69148 14.0726 1.76126 14.1864 1.89008C14.6809 2.47574 15.0744 3.1329 15.3668 3.86155C15.6592 4.59009 15.8053 5.35956 15.8053 6.16998ZM12.4124 6.16998C12.4124 6.51976 12.356 6.85586 12.2432 7.17826C12.1304 7.50067 11.9734 7.79588 11.7722 8.0639C11.6706 8.20018 11.5374 8.27137 11.3724 8.27748C11.2074 8.28359 11.06 8.22181 10.9304 8.09214C10.81 7.97175 10.7479 7.82907 10.7441 7.66407C10.7404 7.49908 10.7818 7.34093 10.8682 7.18963C10.9651 7.04101 11.0409 6.88042 11.0954 6.70785C11.1499 6.53516 11.1771 6.35587 11.1771 6.16998C11.1771 5.97541 11.1494 5.79386 11.0939 5.62532C11.0385 5.45678 10.9633 5.29472 10.8682 5.13914C10.7818 4.98772 10.7404 4.8314 10.7441 4.6702C10.7479 4.50899 10.81 4.3682 10.9304 4.24782C11.06 4.11815 11.2074 4.05637 11.3724 4.06248C11.5374 4.06859 11.6706 4.13978 11.7722 4.27605C11.9743 4.54529 12.1316 4.83867 12.2439 5.15619C12.3562 5.47383 12.4124 5.81176 12.4124 6.16998ZM5.69425 8.73652C4.98845 8.73652 4.38427 8.48519 3.88172 7.98251C3.37904 7.47995 3.1277 6.87578 3.1277 6.16998C3.1277 5.46418 3.37904 4.86 3.88172 4.35745C4.38427 3.85477 4.98845 3.60343 5.69425 3.60343C6.40005 3.60343 7.00422 3.85477 7.50678 4.35745C8.00945 4.86 8.26079 5.46418 8.26079 6.16998C8.26079 6.87578 8.00945 7.47995 7.50678 7.98251C7.00422 8.48519 6.40005 8.73652 5.69425 8.73652ZM0.194506 13.2067V12.6907C0.194506 12.3202 0.288979 11.9849 0.477926 11.6846C0.666872 11.3842 0.930615 11.1517 1.26916 10.9872C1.87828 10.6835 2.55988 10.4299 3.31396 10.2264C4.06791 10.0229 4.86134 9.92117 5.69425 9.92117C6.52715 9.92117 7.32064 10.0229 8.07472 10.2264C8.82867 10.4299 9.51021 10.6835 10.1193 10.9872C10.4579 11.1517 10.7216 11.3842 10.9106 11.6846C11.0995 11.9849 11.194 12.3202 11.194 12.6907V13.2067C11.194 13.516 11.0856 13.7791 10.869 13.9957C10.6523 14.2124 10.3893 14.3208 10.0799 14.3208H1.30857C0.99924 14.3208 0.73623 14.2124 0.51954 13.9957C0.302851 13.7791 0.194506 13.516 0.194506 13.2067ZM1.29445 13.2208H10.094V12.6907C10.094 12.5233 10.0487 12.38 9.95801 12.2606C9.86721 12.1412 9.75275 12.0439 9.61465 11.9687C9.16526 11.7393 8.5953 11.524 7.90478 11.3229C7.21425 11.1216 6.47741 11.0209 5.69425 11.0209C4.91108 11.0209 4.17424 11.1216 3.48372 11.3229C2.79319 11.524 2.22324 11.7393 1.77385 11.9687C1.63574 12.0439 1.52129 12.1412 1.43048 12.2606C1.3398 12.38 1.29445 12.5233 1.29445 12.6907V13.2208ZM5.69425 7.63658C6.09756 7.63658 6.44282 7.49297 6.73003 7.20576C7.01724 6.91855 7.16084 6.57329 7.16084 6.16998C7.16084 5.76666 7.01724 5.4214 6.73003 5.13419C6.44282 4.84698 6.09756 4.70338 5.69425 4.70338C5.29093 4.70338 4.94567 4.84698 4.65846 5.13419C4.37125 5.4214 4.22765 5.76666 4.22765 6.16998C4.22765 6.57329 4.37125 6.91855 4.65846 7.20576C4.94567 7.49297 5.29093 7.63658 5.69425 7.63658Z" fill="#33363D"/>
</g>
</svg>
