<svg width="17" height="16" viewBox="0 0 17 16" fill="none" xmlns="http://www.w3.org/2000/svg">
<path fill-rule="evenodd" clip-rule="evenodd" d="M3.99957 4.76194C4.54221 2.78536 6.35102 1.33325 8.50008 1.33325C10.6491 1.33325 12.4579 2.78536 13.0006 4.76194C14.6241 5.13966 15.8334 6.59492 15.8334 8.33325C15.8334 9.60517 15.1852 10.7254 14.2043 11.3821C13.8983 11.5869 13.4842 11.5049 13.2794 11.1989C13.0746 10.8929 13.1566 10.4789 13.4626 10.2741C14.0896 9.85436 14.5001 9.14161 14.5001 8.33325C14.5001 7.11844 13.5712 6.11981 12.3854 6.00999C12.0834 5.98202 11.8383 5.75364 11.7891 5.45431C11.5291 3.87304 10.1549 2.66659 8.50008 2.66659C6.84531 2.66659 5.47103 3.87304 5.21108 5.45431C5.16187 5.75364 4.91678 5.98202 4.61472 6.00999C3.42894 6.11981 2.50008 7.11844 2.50008 8.33325C2.50008 9.14161 2.91058 9.85436 3.53759 10.2741C3.84356 10.4789 3.92556 10.8929 3.72075 11.1989C3.51594 11.5049 3.10188 11.5869 2.79591 11.3821C1.81493 10.7254 1.16675 9.60517 1.16675 8.33325C1.16675 6.59492 2.37602 5.13966 3.99957 4.76194ZM7.83341 9.60939L6.30482 11.138C6.04447 11.3983 5.62236 11.3983 5.36201 11.138C5.10166 10.8776 5.10166 10.4555 5.36201 10.1952L8.02868 7.52851C8.28903 7.26816 8.71114 7.26816 8.97149 7.52851L11.6382 10.1952C11.8985 10.4555 11.8985 10.8776 11.6382 11.138C11.3778 11.3983 10.9557 11.3983 10.6953 11.138L9.16675 9.60939V13.9999C9.16675 14.3681 8.86827 14.6666 8.50008 14.6666C8.13189 14.6666 7.83341 14.3681 7.83341 13.9999V9.60939Z" fill="#256EF4"/>
</svg>
