<svg width="20" height="20" viewBox="0 0 20 20" fill="none" xmlns="http://www.w3.org/2000/svg">
<path fill-rule="evenodd" clip-rule="evenodd" d="M6.4655 1.66675H13.5343C14.2051 1.66674 14.7588 1.66673 15.2098 1.70358C15.6782 1.74185 16.1088 1.82398 16.5132 2.03006C17.1404 2.34964 17.6504 2.85957 17.9699 3.48678C18.176 3.89123 18.2582 4.32181 18.2964 4.79023C18.3333 5.24122 18.3333 5.79485 18.3333 6.46565V11.0345C18.3333 11.7053 18.3333 12.2589 18.2964 12.7099C18.2582 13.1784 18.176 13.6089 17.9699 14.0134C17.6504 14.6406 17.1404 15.1505 16.5132 15.4701C16.1088 15.6762 15.6782 15.7583 15.2098 15.7966C14.7588 15.8334 14.2052 15.8334 13.5344 15.8334H11.403C10.8496 15.8334 10.6885 15.8373 10.5418 15.8674C10.3947 15.8976 10.2523 15.9476 10.1186 16.0159C9.9853 16.084 9.857 16.1816 9.42484 16.5273L7.4139 18.1361C7.26083 18.2586 7.10481 18.3835 6.96764 18.4741C6.83645 18.5609 6.58209 18.7161 6.25127 18.7165C5.87059 18.7169 5.51047 18.5438 5.27299 18.2463C5.06661 17.9878 5.02894 17.6921 5.01471 17.5355C4.99984 17.3718 4.99988 17.1719 4.99991 16.9759L4.99992 15.8266C4.67341 15.8158 4.39341 15.7885 4.13719 15.7198C2.98688 15.4116 2.08839 14.5131 1.78016 13.3628C1.66592 12.9364 1.66618 12.4442 1.66654 11.7814C1.66656 11.7437 1.66658 11.7055 1.66658 11.6667L1.66658 6.46567C1.66657 5.79486 1.66656 5.24122 1.70341 4.79023C1.74168 4.32181 1.82382 3.89123 2.0299 3.48678C2.34947 2.85957 2.85941 2.34964 3.48662 2.03006C3.89106 1.82398 4.32165 1.74185 4.79006 1.70358C5.24106 1.66673 5.79469 1.66674 6.4655 1.66675ZM4.92578 3.36471C4.56044 3.39456 4.3736 3.44866 4.24327 3.51507C3.92966 3.67486 3.6747 3.92983 3.51491 4.24343C3.4485 4.37376 3.39439 4.5606 3.36454 4.92595C3.3339 5.30102 3.33325 5.78627 3.33325 6.50008V11.6667C3.33325 12.4954 3.34041 12.7462 3.39004 12.9314C3.54415 13.5066 3.9934 13.9558 4.56855 14.11C4.75378 14.1596 5.00462 14.1667 5.83325 14.1667C6.29349 14.1667 6.66658 14.5398 6.66658 15.0001V16.5996L8.38368 15.2259C8.40263 15.2107 8.42132 15.1958 8.43978 15.181C8.7915 14.8994 9.05739 14.6865 9.36036 14.5317C9.62782 14.3951 9.91252 14.2952 10.2067 14.2348C10.54 14.1664 10.8806 14.1665 11.3312 14.1667C11.3548 14.1667 11.3788 14.1667 11.403 14.1667H13.4999C14.2137 14.1667 14.699 14.1661 15.0741 14.1355C15.4394 14.1056 15.6262 14.0515 15.7566 13.9851C16.0702 13.8253 16.3251 13.5703 16.4849 13.2567C16.5513 13.1264 16.6054 12.9396 16.6353 12.5742C16.6659 12.1991 16.6666 11.7139 16.6666 11.0001V6.50008C16.6666 5.78627 16.6659 5.30102 16.6353 4.92595C16.6054 4.5606 16.5513 4.37376 16.4849 4.24343C16.3251 3.92983 16.0702 3.67486 15.7566 3.51507C15.6262 3.44866 15.4394 3.39456 15.0741 3.36471C14.699 3.33406 14.2137 3.33342 13.4999 3.33342H6.49992C5.7861 3.33342 5.30086 3.33406 4.92578 3.36471ZM4.99992 7.08342C4.99992 6.62318 5.37301 6.25008 5.83325 6.25008H9.99992C10.4602 6.25008 10.8333 6.62318 10.8333 7.08342C10.8333 7.54365 10.4602 7.91675 9.99992 7.91675H5.83325C5.37301 7.91675 4.99992 7.54365 4.99992 7.08342ZM4.99992 10.0001C4.99992 9.53984 5.37301 9.16675 5.83325 9.16675H12.4999C12.9602 9.16675 13.3333 9.53984 13.3333 10.0001C13.3333 10.4603 12.9602 10.8334 12.4999 10.8334H5.83325C5.37301 10.8334 4.99992 10.4603 4.99992 10.0001Z" fill="#8A949E"/>
</svg>
