<svg width="20" height="20" viewBox="0 0 20 20" fill="none" xmlns="http://www.w3.org/2000/svg">
<path fill-rule="evenodd" clip-rule="evenodd" d="M4.41076 5.24408C4.7362 4.91864 5.26384 4.91864 5.58928 5.24408L9.75594 9.41074C10.0814 9.73618 10.0814 10.2638 9.75594 10.5893L5.58928 14.7559C5.26384 15.0814 4.7362 15.0814 4.41076 14.7559C4.08533 14.4305 4.08533 13.9028 4.41076 13.5774L7.98818 10L4.41076 6.42259C4.08533 6.09715 4.08533 5.56951 4.41076 5.24408ZM10.2441 5.24408C10.5695 4.91864 11.0972 4.91864 11.4226 5.24408L15.5893 9.41074C15.9147 9.73618 15.9147 10.2638 15.5893 10.5893L11.4226 14.7559C11.0972 15.0814 10.5695 15.0814 10.2441 14.7559C9.91866 14.4305 9.91866 13.9028 10.2441 13.5774L13.8215 10L10.2441 6.42259C9.91866 6.09715 9.91866 5.56951 10.2441 5.24408Z" fill="#58616A"/>
</svg>
