<svg width="20" height="20" viewBox="0 0 20 20" fill="none" xmlns="http://www.w3.org/2000/svg">
<path fill-rule="evenodd" clip-rule="evenodd" d="M9.99967 3.33341C8.15767 3.33341 6.49147 4.07937 5.284 5.28767C4.65256 5.91954 3.93552 6.77615 3.35867 7.50008H6.66634C7.12658 7.50008 7.49967 7.87318 7.49967 8.33341C7.49967 8.79365 7.12658 9.16675 6.66634 9.16675H1.66634C1.2061 9.16675 0.833008 8.79365 0.833008 8.33341V3.33341C0.833008 2.87318 1.2061 2.50008 1.66634 2.50008C2.12658 2.50008 2.49967 2.87318 2.49967 3.33341V5.91212C3.00124 5.30215 3.57205 4.64296 4.10508 4.10956C5.61236 2.60124 7.69768 1.66675 9.99967 1.66675C14.602 1.66675 18.333 5.39771 18.333 10.0001C18.333 14.6025 14.602 18.3334 9.99967 18.3334C6.1993 18.3334 2.9951 15.7901 1.99215 12.3145C1.86455 11.8723 2.11958 11.4103 2.56177 11.2827C3.00397 11.1551 3.46588 11.4102 3.59348 11.8524C4.3961 14.6338 6.96156 16.6667 9.99967 16.6667C13.6816 16.6667 16.6663 13.682 16.6663 10.0001C16.6663 6.31818 13.6816 3.33341 9.99967 3.33341Z" fill="#33363D"/>
</svg>
