<svg width="25" height="24" viewBox="0 0 25 24" fill="none" xmlns="http://www.w3.org/2000/svg">
<path fill-rule="evenodd" clip-rule="evenodd" d="M15.7929 2.29289C16.1834 1.90237 16.8166 1.90237 17.2071 2.29289L21.2071 6.29289C21.5976 6.68342 21.5976 7.31658 21.2071 7.70711L17.2071 11.7071C16.8166 12.0976 16.1834 12.0976 15.7929 11.7071C15.4024 11.3166 15.4024 10.6834 15.7929 10.2929L18.0858 8H4.5C3.94772 8 3.5 7.55228 3.5 7C3.5 6.44772 3.94772 6 4.5 6H18.0858L15.7929 3.70711C15.4024 3.31658 15.4024 2.68342 15.7929 2.29289ZM9.20711 12.2929C9.59763 12.6834 9.59763 13.3166 9.20711 13.7071L6.91421 16H20.5C21.0523 16 21.5 16.4477 21.5 17C21.5 17.5523 21.0523 18 20.5 18H6.91421L9.20711 20.2929C9.59763 20.6834 9.59763 21.3166 9.20711 21.7071C8.81658 22.0976 8.18342 22.0976 7.79289 21.7071L3.79289 17.7071C3.40237 17.3166 3.40237 16.6834 3.79289 16.2929L7.79289 12.2929C8.18342 11.9024 8.81658 11.9024 9.20711 12.2929Z" fill="#256EF4"/>
</svg>
