<svg width="96" height="96" viewBox="0 0 96 96" fill="none" xmlns="http://www.w3.org/2000/svg">
<path fill-rule="evenodd" clip-rule="evenodd" d="M47.9998 16C40.2679 16 33.9998 22.268 33.9998 30C33.9998 37.732 40.2679 44 47.9998 44C55.7318 44 61.9998 37.732 61.9998 30C61.9998 22.268 55.7318 16 47.9998 16ZM25.9998 30C25.9998 17.8497 35.8496 8 47.9998 8C60.1501 8 69.9998 17.8497 69.9998 30C69.9998 42.1503 60.1501 52 47.9998 52C35.8496 52 25.9998 42.1503 25.9998 30ZM37.3049 57.9998C37.5332 57.9999 37.7648 58 37.9999 58H57.9998C58.2349 58 58.4665 57.9999 58.6948 57.9998C63.6039 57.998 66.9559 57.9968 69.8056 58.8612C76.1976 60.8002 81.1996 65.8023 83.1386 72.1943C84.0031 75.0439 84.0018 78.396 84 83.3051C83.9999 83.5333 83.9998 83.7649 83.9998 84C83.9998 86.2091 82.209 88 79.9998 88C77.7907 88 75.9998 86.2091 75.9998 84C75.9998 78.1267 75.9564 76.0768 75.4831 74.5166C74.3197 70.6813 71.3185 67.6801 67.4833 66.5167C65.923 66.0434 63.8731 66 57.9998 66H37.9999C32.1266 66 30.0767 66.0434 28.5164 66.5167C24.6812 67.6801 21.68 70.6813 20.5166 74.5166C20.0433 76.0768 19.9998 78.1267 19.9998 84C19.9998 86.2091 18.209 88 15.9998 88C13.7907 88 11.9998 86.2091 11.9998 84C11.9998 83.7649 11.9998 83.5333 11.9997 83.3051C11.9979 78.396 11.9966 75.0439 12.861 72.1943C14.8 65.8023 19.8021 60.8002 26.1941 58.8612C29.0437 57.9968 32.3958 57.998 37.3049 57.9998Z" fill="#33363D"/>
</svg>
