<svg width="20" height="20" viewBox="0 0 20 20" fill="none" xmlns="http://www.w3.org/2000/svg">
<path fill-rule="evenodd" clip-rule="evenodd" d="M5.83333 7.49992C5.83333 7.03968 6.20643 6.66658 6.66667 6.66658H8.33333C8.79357 6.66658 9.16667 7.03968 9.16667 7.49992C9.16667 7.96016 8.79357 8.33325 8.33333 8.33325H6.66667C6.20643 8.33325 5.83333 7.96016 5.83333 7.49992ZM5.83333 10.8333C5.83333 10.373 6.20643 9.99992 6.66667 9.99992H13.3333C13.7936 9.99992 14.1667 10.373 14.1667 10.8333C14.1667 11.2935 13.7936 11.6666 13.3333 11.6666H6.66667C6.20643 11.6666 5.83333 11.2935 5.83333 10.8333ZM5.83333 14.1666C5.83333 13.7063 6.20643 13.3333 6.66667 13.3333H13.3333C13.7936 13.3333 14.1667 13.7063 14.1667 14.1666C14.1667 14.6268 13.7936 14.9999 13.3333 14.9999H6.66667C6.20643 14.9999 5.83333 14.6268 5.83333 14.1666Z" fill="#33363D"/>
<path fill-rule="evenodd" clip-rule="evenodd" d="M6.96602 0.833252L11.6667 0.833253C11.8877 0.833253 12.0996 0.92105 12.2559 1.07733L17.2559 6.07733C17.4122 6.23361 17.5 6.44557 17.5 6.66659V14.7006C17.5 15.3134 17.5 15.8233 17.466 16.2396C17.4306 16.6733 17.3541 17.0781 17.1594 17.4603C16.8598 18.0483 16.3817 18.5264 15.7937 18.826C15.4116 19.0207 15.0067 19.0972 14.573 19.1326C14.1568 19.1666 13.6468 19.1666 13.034 19.1666H6.966C6.35319 19.1666 5.84325 19.1666 5.42698 19.1326C4.9933 19.0972 4.58844 19.0207 4.20628 18.826C3.61827 18.5264 3.14021 18.0483 2.84061 17.4603C2.64588 17.0781 2.56942 16.6733 2.53399 16.2396C2.49998 15.8233 2.49999 15.3134 2.5 14.7006V5.29927C2.49999 4.68645 2.49998 4.17651 2.53399 3.76023C2.56942 3.32656 2.64588 2.9217 2.84061 2.53953C3.14021 1.95153 3.61827 1.47346 4.20628 1.17386C4.58844 0.979135 4.9933 0.902675 5.42698 0.867242C5.84325 0.833231 6.3532 0.833241 6.96602 0.833252ZM5.5627 2.52837C5.23209 2.55539 5.07098 2.60381 4.96293 2.65887C4.68853 2.79868 4.46543 3.02178 4.32562 3.29618C4.27056 3.40423 4.22213 3.56534 4.19512 3.89595C4.16732 4.23628 4.16667 4.67777 4.16667 5.33325V14.6666C4.16667 15.3221 4.16732 15.7636 4.19512 16.1039C4.22213 16.4345 4.27056 16.5956 4.32562 16.7037C4.46543 16.9781 4.68853 17.2012 4.96293 17.341C5.07098 17.396 5.23209 17.4445 5.5627 17.4715C5.90303 17.4993 6.34452 17.4999 7 17.4999H13C13.6555 17.4999 14.097 17.4993 14.4373 17.4715C14.7679 17.4445 14.929 17.396 15.0371 17.341C15.3115 17.2012 15.5346 16.9781 15.6744 16.7037C15.7294 16.5956 15.7779 16.4345 15.8049 16.1039C15.8327 15.7636 15.8333 15.3221 15.8333 14.6666V7.49992H12.5C11.5795 7.49992 10.8333 6.75373 10.8333 5.83325V2.49992H7C6.34452 2.49992 5.90303 2.50057 5.5627 2.52837ZM12.5 3.67843V5.83325H14.6548L12.5 3.67843Z" fill="#33363D"/>
</svg>
