<svg width="20" height="20" viewBox="0 0 20 20" fill="none" xmlns="http://www.w3.org/2000/svg">
<path fill-rule="evenodd" clip-rule="evenodd" d="M14.2406 2.53097C13.8656 2.50032 13.3803 2.49968 12.6665 2.49968H10.4165C9.95627 2.49968 9.58317 2.12658 9.58317 1.66634C9.58317 1.2061 9.95627 0.833009 10.4165 0.833009L12.7009 0.833008C13.3717 0.832998 13.9254 0.832989 14.3764 0.869837C14.8448 0.908108 15.2754 0.990244 15.6798 1.19632C16.307 1.5159 16.8169 2.02583 17.1365 2.65304C17.3426 3.05749 17.4247 3.48807 17.463 3.95649C17.4999 4.40748 17.4998 4.96111 17.4998 5.63191V14.3674C17.4998 15.0382 17.4999 15.5919 17.463 16.0429C17.4247 16.5113 17.3426 16.9419 17.1365 17.3463C16.8169 17.9735 16.307 18.4835 15.6798 18.803C15.2754 19.0091 14.8448 19.0912 14.3764 19.1295C13.9254 19.1664 13.3717 19.1664 12.7009 19.1663H7.29873C6.62793 19.1664 6.07431 19.1664 5.62332 19.1295C5.1549 19.0912 4.72432 19.0091 4.31987 18.803C3.69266 18.4835 3.18273 17.9735 2.86315 17.3463C2.65707 16.9419 2.57494 16.5113 2.53667 16.0429C2.49982 15.5919 2.49983 15.0382 2.49984 14.3674V13.7497C2.49984 13.2894 2.87293 12.9163 3.33317 12.9163C3.79341 12.9163 4.1665 13.2894 4.1665 13.7497V14.333C4.1665 15.0468 4.16715 15.5321 4.1978 15.9071C4.22765 16.2725 4.28175 16.4593 4.34816 16.5897C4.50795 16.9033 4.76292 17.1582 5.07652 17.318C5.20685 17.3844 5.39369 17.4385 5.75904 17.4684C6.13411 17.499 6.61935 17.4997 7.33317 17.4997H12.6665C13.3803 17.4997 13.8656 17.499 14.2406 17.4684C14.606 17.4385 14.7928 17.3844 14.9232 17.318C15.2368 17.1582 15.4917 16.9033 15.6515 16.5897C15.7179 16.4593 15.772 16.2725 15.8019 15.9071C15.8325 15.5321 15.8332 15.0468 15.8332 14.333V5.66634C15.8332 4.95253 15.8325 4.46728 15.8019 4.09221C15.772 3.72686 15.7179 3.54002 15.6515 3.40969C15.4917 3.09609 15.2368 2.84112 14.9232 2.68133C14.7928 2.61492 14.606 2.56082 14.2406 2.53097ZM6.24984 3.33301C6.01972 3.33301 5.83317 3.51956 5.83317 3.74968V8.33301C5.83317 8.79325 5.46007 9.16634 4.99984 9.16634C4.5396 9.16634 4.1665 8.79325 4.1665 8.33301V3.74968C4.1665 2.59908 5.09924 1.66634 6.24984 1.66634C7.40043 1.66634 8.33317 2.59908 8.33317 3.74968V8.33301C8.33317 10.174 6.84079 11.6663 4.99984 11.6663C3.15889 11.6663 1.6665 10.174 1.6665 8.33301V4.99968C1.6665 4.53944 2.0396 4.16634 2.49984 4.16634C2.96007 4.16634 3.33317 4.53944 3.33317 4.99968V8.33301C3.33317 9.25348 4.07936 9.99968 4.99984 9.99968C5.92031 9.99968 6.6665 9.25348 6.6665 8.33301V3.74968C6.6665 3.51956 6.47996 3.33301 6.24984 3.33301Z" fill="#58616A"/>
</svg>
