<svg width="16" height="16" viewBox="0 0 16 16" fill="none" xmlns="http://www.w3.org/2000/svg">
<mask id="mask0_508_4556" style="mask-type:alpha" maskUnits="userSpaceOnUse" x="0" y="0" width="16" height="16">
<rect width="16" height="16" fill="#D9D9D9"/>
</mask>
<g mask="url(#mask0_508_4556)">
<path fill-rule="evenodd" clip-rule="evenodd" d="M4.33301 3.33333C4.33301 2.59695 4.92996 2 5.66634 2C6.40272 2 6.99967 2.59695 6.99967 3.33333C6.99967 4.06971 6.40272 4.66667 5.66634 4.66667C4.92996 4.66667 4.33301 4.06971 4.33301 3.33333ZM8.99967 3.33333C8.99967 2.59695 9.59663 2 10.333 2C11.0694 2 11.6663 2.59695 11.6663 3.33333C11.6663 4.06971 11.0694 4.66667 10.333 4.66667C9.59663 4.66667 8.99967 4.06971 8.99967 3.33333ZM4.33301 8C4.33301 7.26362 4.92996 6.66667 5.66634 6.66667C6.40272 6.66667 6.99967 7.26362 6.99967 8C6.99967 8.73638 6.40272 9.33333 5.66634 9.33333C4.92996 9.33333 4.33301 8.73638 4.33301 8ZM8.99967 8C8.99967 7.26362 9.59663 6.66667 10.333 6.66667C11.0694 6.66667 11.6663 7.26362 11.6663 8C11.6663 8.73638 11.0694 9.33333 10.333 9.33333C9.59663 9.33333 8.99967 8.73638 8.99967 8ZM4.33301 12.6667C4.33301 11.9303 4.92996 11.3333 5.66634 11.3333C6.40272 11.3333 6.99967 11.9303 6.99967 12.6667C6.99967 13.403 6.40272 14 5.66634 14C4.92996 14 4.33301 13.403 4.33301 12.6667ZM8.99967 12.6667C8.99967 11.9303 9.59663 11.3333 10.333 11.3333C11.0694 11.3333 11.6663 11.9303 11.6663 12.6667C11.6663 13.403 11.0694 14 10.333 14C9.59663 14 8.99967 13.403 8.99967 12.6667Z" fill="#33363D"/>
</g>
</svg>
