<svg width="130" height="32" viewBox="0 0 130 32" fill="none" xmlns="http://www.w3.org/2000/svg">
<path d="M31.8933 16C31.8933 24.8351 24.7523 32 15.9467 32C7.14101 32 0 24.8351 0 16C0 7.16489 7.14101 0 15.9467 0C24.7523 0 31.8933 7.16489 31.8933 16Z" fill="white"/>
<path d="M23.4276 14.8837C20.8935 13.1549 17.649 13.8571 15.942 16.4581C14.5212 18.6283 12.3741 18.8996 11.5471 18.8996C8.83276 18.8996 6.98256 16.9847 6.43121 15.006C6.43121 15.006 6.42061 14.9688 6.41531 14.9475C6.41001 14.9262 6.40471 14.9049 6.39941 14.8837C6.18205 14.0539 6.12903 13.6656 6.12903 12.7879C6.12903 8.0592 10.9692 2.78792 17.9353 2.78792C24.9014 2.78792 29.1584 8.24005 30.2134 11.272C30.1922 11.2135 30.1763 11.1656 30.1604 11.1124C28.1299 5.18154 22.5316 0.920898 15.9314 0.920898C7.63994 0.920898 0.907135 7.6709 0.907135 16.0007C0.907135 23.4475 6.25627 29.8145 13.6836 29.8145C19.5999 29.8145 23.5813 26.4847 25.405 21.8943C26.407 19.3837 25.6966 16.4315 23.4276 14.8837Z" fill="#003763"/>
<path d="M30.303 11.5578C29.423 8.6004 25.3091 2.78125 17.9348 2.78125C10.9688 2.78125 6.12857 8.05253 6.12857 12.7812C6.12857 13.6589 6.18158 14.0525 6.39894 14.877C6.30882 14.5153 6.26111 14.1536 6.26111 13.8025C6.26111 8.87168 11.1755 5.4621 16.2331 5.4621C23.0772 5.4621 28.6278 11.0259 28.6278 17.893C28.6278 23.2759 25.5424 27.9355 21.0574 30.1749C26.8412 28.0791 30.9657 22.5206 30.9657 15.994C30.9657 14.4515 30.759 13.0898 30.3083 11.5578" fill="#E4022D"/>
<path d="M43.8764 8.43492V7H46.1292V8.43492H49.2616V10.2H40.4023V8.43492H43.8828H43.8764ZM48.8819 14.2254C48.8819 14.7206 48.7744 15.1841 48.5719 15.6222C48.363 16.054 48.0846 16.4349 47.7302 16.7587C47.3759 17.0889 46.9709 17.3429 46.5089 17.5333C46.047 17.7238 45.547 17.819 45.0155 17.819C44.4839 17.819 43.984 17.7238 43.5221 17.5333C43.0601 17.3429 42.6488 17.0825 42.3008 16.7587C41.9464 16.4349 41.668 16.054 41.4591 15.6222C41.2503 15.1905 41.1491 14.727 41.1491 14.2254C41.1491 13.7238 41.2503 13.2603 41.4591 12.8222C41.668 12.3841 41.9464 12.0032 42.3008 11.673C42.6551 11.3429 43.0601 11.0889 43.5221 10.8984C43.984 10.7079 44.4839 10.6127 45.0155 10.6127C45.547 10.6127 46.047 10.7079 46.5089 10.8984C46.9709 11.0889 47.3759 11.3492 47.7302 11.673C48.0846 11.9968 48.363 12.3841 48.5719 12.8222C48.7807 13.2603 48.8819 13.7302 48.8819 14.2254ZM46.9076 14.2C46.9076 13.6921 46.7241 13.2476 46.3507 12.873C45.9774 12.4984 45.5344 12.3143 45.0092 12.3143C44.4839 12.3143 44.041 12.4984 43.6803 12.873C43.3132 13.2476 43.1297 13.6857 43.1297 14.2C43.1297 14.7143 43.3132 15.146 43.6803 15.5143C44.0473 15.8825 44.4903 16.0667 45.0092 16.0667C45.5281 16.0667 45.9774 15.8825 46.3507 15.5143C46.7241 15.146 46.9076 14.7079 46.9076 14.2ZM54.381 21.1333C54.381 21.654 54.2671 22.1492 54.0456 22.6127C53.8241 23.0762 53.533 23.4889 53.166 23.8381C52.7863 24.1937 52.3497 24.473 51.8561 24.6825C51.3625 24.8921 50.831 25 50.2741 25C49.7172 25 49.1793 24.8921 48.6794 24.6825C48.1795 24.473 47.7365 24.1937 47.3569 23.8381C46.9898 23.4825 46.6987 23.0762 46.4773 22.6127C46.2558 22.1492 46.1419 21.654 46.1419 21.1333C46.1419 20.6127 46.2495 20.1111 46.4773 19.6413C46.6987 19.1714 46.9898 18.7587 47.3569 18.4032C47.7365 18.0476 48.1732 17.7683 48.6794 17.5587C49.1793 17.3492 49.7109 17.2413 50.2741 17.2413C50.8373 17.2413 51.3625 17.3429 51.8561 17.5587C52.3497 17.7683 52.7863 18.0476 53.166 18.4032C53.533 18.7587 53.8241 19.1714 54.0456 19.6413C54.2671 20.1111 54.381 20.6127 54.381 21.1333ZM52.3054 21.1143C52.3054 20.5619 52.1029 20.0857 51.6979 19.6794C51.2929 19.273 50.812 19.0698 50.2488 19.0698C49.6856 19.0698 49.211 19.273 48.8123 19.6794C48.4136 20.0857 48.2175 20.5619 48.2175 21.1143C48.2175 21.6667 48.4136 22.1365 48.8123 22.5365C49.211 22.9365 49.6919 23.1333 50.2488 23.1333C50.8056 23.1333 51.2929 22.9365 51.6979 22.5365C52.1029 22.1365 52.3054 21.6603 52.3054 21.1143ZM52.2674 16.7143H50.3121V7.3746H52.2674V11.0825H54.0076V7.35556H56.0389V16.9556H54.0076V13.0127H52.2674V16.7206V16.7143Z" fill="#575756"/>
<path d="M58.5073 9.6656V7.83703H68.2904V9.6656H64.1266L68.4676 14.9862L66.9805 16.2053L63.5001 11.8497L60.0387 16.5037L58.4946 15.2466L62.8167 9.67195H58.5136L58.5073 9.6656ZM72.043 20.8148C72.043 21.3926 71.9227 21.9323 71.6886 22.4339C71.4545 22.9354 71.1381 23.3799 70.752 23.7608C70.3471 24.1418 69.8724 24.4402 69.3346 24.6624C68.7967 24.8847 68.2208 24.9989 67.626 24.9989C67.0312 24.9989 66.4553 24.8847 65.9048 24.6624C65.3542 24.4402 64.8796 24.1354 64.4746 23.7608C64.0823 23.3799 63.7722 22.9418 63.5381 22.4339C63.3039 21.9323 63.1837 21.3926 63.1837 20.8148C63.1837 20.237 63.3039 19.6974 63.5381 19.1831C63.7722 18.6751 64.0886 18.2307 64.4746 17.8497C64.8796 17.4688 65.3542 17.1704 65.9048 16.9481C66.4553 16.7259 67.0248 16.6116 67.626 16.6116C68.2272 16.6116 68.7967 16.7196 69.3346 16.9481C69.8724 17.1767 70.3471 17.4688 70.752 17.8497C71.1444 18.2307 71.4545 18.6751 71.6886 19.1831C71.9227 19.691 72.043 20.237 72.043 20.8148ZM69.9674 20.7958C69.9674 20.1545 69.7332 19.6021 69.265 19.1386C68.7967 18.6751 68.2398 18.4402 67.6007 18.4402C66.9616 18.4402 66.411 18.6751 65.9491 19.1386C65.4871 19.6021 65.253 20.1545 65.253 20.7958C65.253 21.437 65.4871 21.9894 65.9491 22.4466C66.411 22.9037 66.9616 23.1323 67.6007 23.1323C68.2398 23.1323 68.7967 22.9037 69.265 22.4466C69.7332 21.9894 69.9674 21.437 69.9674 20.7958ZM71.3785 16.4212V12.7132H68.2082V10.8847H71.3785V7.35449H73.4921V16.4212H71.3785Z" fill="#575756"/>
<path d="M85.6608 12.1418C85.6608 12.7831 85.5342 13.3862 85.2811 13.945C85.028 14.51 84.68 15.0053 84.237 15.437C83.794 15.8561 83.2815 16.1926 82.6993 16.4402C82.1171 16.6878 81.497 16.8148 80.8325 16.8148C80.1681 16.8148 79.5416 16.6878 78.9657 16.4402C78.3836 16.1926 77.871 15.8561 77.428 15.437C76.9851 15.0053 76.637 14.51 76.3839 13.945C76.1308 13.3799 76.0042 12.7767 76.0042 12.1418C76.0042 11.5069 76.1308 10.8973 76.3839 10.3386C76.637 9.77354 76.9851 9.2783 77.428 8.84655C77.871 8.42751 78.3836 8.091 78.9657 7.84338C79.5479 7.59576 80.1681 7.46878 80.8325 7.46878C81.497 7.46878 82.1171 7.59576 82.6993 7.84338C83.2815 8.091 83.794 8.42751 84.237 8.84655C84.68 9.2783 85.028 9.77354 85.2811 10.3386C85.5342 10.9037 85.6608 11.5005 85.6608 12.1418ZM79.1809 18.4021V22.2307H90.641V24.1164H77.0673V18.4021H79.1809ZM83.6232 12.1608C83.6232 11.7799 83.5472 11.418 83.3954 11.0815C83.2435 10.7386 83.0473 10.4402 82.8005 10.1799C82.5411 9.93227 82.2437 9.73544 81.9083 9.58306C81.5729 9.43068 81.2185 9.35449 80.8452 9.35449C80.4718 9.35449 80.1111 9.43068 79.7694 9.58306C79.4277 9.73544 79.1303 9.93227 78.8708 10.1799C78.624 10.4402 78.4215 10.745 78.276 11.0815C78.1241 11.4243 78.0482 11.7799 78.0482 12.1608C78.0482 12.5418 78.1241 12.8974 78.276 13.2275C78.4278 13.564 78.624 13.8624 78.8708 14.1227C79.1303 14.3704 79.434 14.5735 79.7694 14.7196C80.1111 14.872 80.4655 14.9481 80.8452 14.9481C81.2248 14.9481 81.5792 14.872 81.9083 14.7196C82.2373 14.5672 82.5348 14.3704 82.8005 14.1227C83.0473 13.8624 83.2498 13.564 83.3954 13.2275C83.5472 12.891 83.6232 12.5354 83.6232 12.1608ZM90.217 18.3069H88.1034V7.35449H90.217V11.0815H92.6596V13.1831H90.217V18.3069Z" fill="#575756"/>
<path d="M94.1843 9.66609V7.83752H103.967V9.66609H99.8226L104.145 16.0661L102.537 17.1455L99.1708 12.0026L95.8043 17.2851L94.159 16.1867L98.4621 9.67244H94.178L94.1843 9.66609ZM95.3613 24.1105V18.3963H97.4749V22.2248H109.327V24.1105H95.3613ZM107.056 18.3074V13.2597H103.885V11.374H107.056V7.34863H109.169V18.301H107.056V18.3074Z" fill="#575756"/>
<path d="M112.086 18.1681H127.735V20.0538H120.964V24.4475H118.832V20.0538H112.086V18.1681ZM115.427 9.80619H124.388V7.64746H126.482V15.8697H113.339V7.64746H115.433V9.80619H115.427ZM124.388 11.6538H115.427V14.0094H124.388V11.6538Z" fill="#575756"/>
</svg>
